<svg xmlns="http://www.w3.org/2000/svg" width="16719" height="100" viewBox="0 0 16719 100" preserveAspectRatio="none"><rect x="0" y="0" width="1107" height="100" fill="rgb(150,100,80)"/><rect x="1107" y="0" width="1100" height="100" fill="rgb(110,99,118)"/><rect x="2207" y="0" width="693" height="100" fill="rgb(105,98,65)"/><rect x="2900" y="0" width="715" height="100" fill="rgb(58,82,30)"/><rect x="3615" y="0" width="1915" height="100" fill="rgb(128,151,104)"/><rect x="5530" y="0" width="1977" height="100" fill="rgb(108,90,111)"/><rect x="7507" y="0" width="1975" height="100" fill="rgb(77,100,130)"/><rect x="9482" y="0" width="785" height="100" fill="rgb(130,150,90)"/><rect x="10267" y="0" width="1520" height="100" fill="rgb(110,55,137)"/><rect x="11787" y="0" width="1063" height="100" fill="rgb(71,88,116)"/><rect x="12850" y="0" width="413" height="100" fill="rgb(83,57,177)"/><rect x="13263" y="0" width="403" height="100" fill="rgb(110,210,160)"/><rect x="13666" y="0" width="1495" height="100" fill="rgb(100,10,130)"/><rect x="15161" y="0" width="878" height="100" fill="rgb(102,132,101)"/><rect x="16039" y="0" width="567" height="100" fill="rgb(53,30,50)"/><rect x="16606" y="0" width="113" height="100" fill="rgb(61,101,115)"/></svg>
