<svg xmlns="http://www.w3.org/2000/svg" width="18919" height="100" viewBox="0 0 18919 100"><rect x="0" y="0" width="573" height="100" fill="rgb(87,65,125)"/><rect x="573" y="0" width="358" height="100" fill="rgb(71,106,91)"/><rect x="931" y="0" width="407" height="100" fill="rgb(103,75,87)"/><rect x="1338" y="0" width="458" height="100" fill="rgb(40,30,120)"/><rect x="1796" y="0" width="322" height="100" fill="rgb(66,84,110)"/><rect x="2118" y="0" width="773" height="100" fill="rgb(116,140,110)"/><rect x="2891" y="0" width="433" height="100" fill="rgb(103,93,110)"/><rect x="3324" y="0" width="662" height="100" fill="rgb(82,112,90)"/><rect x="3986" y="0" width="295" height="100" fill="rgb(92,142,97)"/><rect x="4281" y="0" width="583" height="100" fill="rgb(58,111,132)"/><rect x="4864" y="0" width="658" height="100" fill="rgb(98,140,108)"/><rect x="5522" y="0" width="1227" height="100" fill="rgb(128,83,43)"/><rect x="6749" y="0" width="425" height="100" fill="rgb(153,94,78)"/><rect x="7174" y="0" width="495" height="100" fill="rgb(47,125,140)"/><rect x="7669" y="0" width="632" height="100" fill="rgb(70,117,133)"/><rect x="8301" y="0" width="547" height="100" fill="rgb(120,67,96)"/><rect x="8848" y="0" width="360" height="100" fill="rgb(108,55,118)"/><rect x="9208" y="0" width="1013" height="100" fill="rgb(45,90,120)"/><rect x="10221" y="0" width="1188" height="100" fill="rgb(190,117,115)"/><rect x="11409" y="0" width="185" height="100" fill="rgb(110,210,160)"/><rect x="11594" y="0" width="2975" height="100" fill="rgb(83,132,85)"/><rect x="14569" y="0" width="1050" height="100" fill="rgb(103,22,87)"/><rect x="15619" y="0" width="718" height="100" fill="rgb(132,53,102)"/><rect x="16337" y="0" width="1203" height="100" fill="rgb(128,151,104)"/><rect x="17540" y="0" width="862" height="100" fill="rgb(113,131,117)"/><rect x="18402" y="0" width="517" height="100" fill="rgb(106,119,105)"/></svg>
