<svg xmlns="http://www.w3.org/2000/svg" width="21430" height="100" viewBox="0 0 21430 100"><rect x="0" y="0" width="595" height="100" fill="rgb(119,128,120)"/><rect x="595" y="0" width="528" height="100" fill="rgb(40,30,120)"/><rect x="1123" y="0" width="417" height="100" fill="rgb(103,75,87)"/><rect x="1540" y="0" width="355" height="100" fill="rgb(71,106,91)"/><rect x="1895" y="0" width="542" height="100" fill="rgb(144,78,140)"/><rect x="2437" y="0" width="350" height="100" fill="rgb(92,142,97)"/><rect x="2787" y="0" width="1058" height="100" fill="rgb(128,83,43)"/><rect x="3845" y="0" width="425" height="100" fill="rgb(153,94,78)"/><rect x="4270" y="0" width="742" height="100" fill="rgb(116,140,110)"/><rect x="5012" y="0" width="837" height="100" fill="rgb(107,35,113)"/><rect x="5849" y="0" width="487" height="100" fill="rgb(85,57,170)"/><rect x="6336" y="0" width="412" height="100" fill="rgb(62,98,98)"/><rect x="6748" y="0" width="702" height="100" fill="rgb(113,131,117)"/><rect x="7450" y="0" width="642" height="100" fill="rgb(70,117,133)"/><rect x="8092" y="0" width="2332" height="100" fill="rgb(123,78,150)"/><rect x="10424" y="0" width="635" height="100" fill="rgb(131,132,67)"/><rect x="11059" y="0" width="695" height="100" fill="rgb(92,85,114)"/><rect x="11754" y="0" width="497" height="100" fill="rgb(47,125,140)"/><rect x="12251" y="0" width="1937" height="100" fill="rgb(77,100,130)"/><rect x="14188" y="0" width="255" height="100" fill="rgb(110,210,160)"/><rect x="14443" y="0" width="1758" height="100" fill="rgb(77,100,130)"/><rect x="16201" y="0" width="770" height="100" fill="rgb(132,53,102)"/><rect x="16971" y="0" width="1163" height="100" fill="rgb(103,22,87)"/><rect x="18134" y="0" width="403" height="100" fill="rgb(108,55,118)"/><rect x="18537" y="0" width="665" height="100" fill="rgb(45,138,70)"/><rect x="19202" y="0" width="727" height="100" fill="rgb(110,110,42)"/><rect x="19929" y="0" width="727" height="100" fill="rgb(101,77,59)"/><rect x="20656" y="0" width="297" height="100" fill="rgb(123,32,125)"/><rect x="20953" y="0" width="477" height="100" fill="rgb(106,119,105)"/></svg>
