<svg xmlns="http://www.w3.org/2000/svg" width="14545" height="100" viewBox="0 0 14545 100"><rect x="0" y="0" width="692" height="100" fill="rgb(35,190,45)"/><rect x="692" y="0" width="348" height="100" fill="rgb(66,84,110)"/><rect x="1040" y="0" width="375" height="100" fill="rgb(103,75,87)"/><rect x="1415" y="0" width="707" height="100" fill="rgb(200,87,50)"/><rect x="2122" y="0" width="590" height="100" fill="rgb(82,112,90)"/><rect x="2712" y="0" width="292" height="100" fill="rgb(92,142,97)"/><rect x="3004" y="0" width="580" height="100" fill="rgb(58,111,132)"/><rect x="3584" y="0" width="592" height="100" fill="rgb(98,140,108)"/><rect x="4176" y="0" width="330" height="100" fill="rgb(71,106,91)"/><rect x="4506" y="0" width="668" height="100" fill="rgb(116,140,110)"/><rect x="5174" y="0" width="732" height="100" fill="rgb(133,106,48)"/><rect x="5906" y="0" width="1127" height="100" fill="rgb(128,83,43)"/><rect x="7033" y="0" width="340" height="100" fill="rgb(155,74,78)"/><rect x="7373" y="0" width="1212" height="100" fill="rgb(190,117,115)"/><rect x="8585" y="0" width="247" height="100" fill="rgb(110,210,160)"/><rect x="8832" y="0" width="1962" height="100" fill="rgb(83,132,85)"/><rect x="10794" y="0" width="1070" height="100" fill="rgb(103,22,87)"/><rect x="11864" y="0" width="683" height="100" fill="rgb(132,53,102)"/><rect x="12547" y="0" width="393" height="100" fill="rgb(123,32,125)"/><rect x="12940" y="0" width="737" height="100" fill="rgb(101,77,59)"/><rect x="13677" y="0" width="340" height="100" fill="rgb(123,32,125)"/><rect x="14017" y="0" width="528" height="100" fill="rgb(106,119,105)"/></svg>
