<svg xmlns="http://www.w3.org/2000/svg" width="18413" height="100" viewBox="0 0 18413 100"><rect x="0" y="0" width="648" height="100" fill="rgb(87,65,125)"/><rect x="648" y="0" width="633" height="100" fill="rgb(62,77,55)"/><rect x="1281" y="0" width="293" height="100" fill="rgb(92,142,97)"/><rect x="1574" y="0" width="608" height="100" fill="rgb(58,111,132)"/><rect x="2182" y="0" width="648" height="100" fill="rgb(98,140,108)"/><rect x="2830" y="0" width="497" height="100" fill="rgb(47,125,140)"/><rect x="3327" y="0" width="703" height="100" fill="rgb(107,35,113)"/><rect x="4030" y="0" width="520" height="100" fill="rgb(131,132,67)"/><rect x="4550" y="0" width="685" height="100" fill="rgb(82,112,90)"/><rect x="5235" y="0" width="572" height="100" fill="rgb(70,117,133)"/><rect x="5807" y="0" width="382" height="100" fill="rgb(103,75,87)"/><rect x="6189" y="0" width="998" height="100" fill="rgb(128,83,43)"/><rect x="7187" y="0" width="703" height="100" fill="rgb(200,87,50)"/><rect x="7890" y="0" width="482" height="100" fill="rgb(106,119,105)"/><rect x="8372" y="0" width="723" height="100" fill="rgb(116,140,110)"/><rect x="9095" y="0" width="722" height="100" fill="rgb(92,85,114)"/><rect x="9817" y="0" width="530" height="100" fill="rgb(85,57,170)"/><rect x="10347" y="0" width="363" height="100" fill="rgb(62,98,98)"/><rect x="10710" y="0" width="1113" height="100" fill="rgb(190,117,115)"/><rect x="11823" y="0" width="3100" height="100" fill="rgb(77,100,130)"/><rect x="14923" y="0" width="693" height="100" fill="rgb(132,53,102)"/><rect x="15616" y="0" width="2365" height="100" fill="rgb(102,132,101)"/><rect x="17981" y="0" width="432" height="100" fill="rgb(122,68,92)"/></svg>
