<svg xmlns="http://www.w3.org/2000/svg" width="20280" height="100" viewBox="0 0 20280 100"><rect x="0" y="0" width="573" height="100" fill="rgb(119,128,120)"/><rect x="573" y="0" width="563" height="100" fill="rgb(40,30,120)"/><rect x="1136" y="0" width="407" height="100" fill="rgb(103,75,87)"/><rect x="1543" y="0" width="650" height="100" fill="rgb(82,112,90)"/><rect x="2193" y="0" width="725" height="100" fill="rgb(133,106,48)"/><rect x="2918" y="0" width="687" height="100" fill="rgb(45,138,70)"/><rect x="3605" y="0" width="343" height="100" fill="rgb(71,106,91)"/><rect x="3948" y="0" width="740" height="100" fill="rgb(200,87,50)"/><rect x="4688" y="0" width="518" height="100" fill="rgb(47,125,140)"/><rect x="5206" y="0" width="278" height="100" fill="rgb(92,142,97)"/><rect x="5484" y="0" width="652" height="100" fill="rgb(58,111,132)"/><rect x="6136" y="0" width="595" height="100" fill="rgb(98,140,108)"/><rect x="6731" y="0" width="1090" height="100" fill="rgb(128,83,43)"/><rect x="7821" y="0" width="542" height="100" fill="rgb(131,132,67)"/><rect x="8363" y="0" width="455" height="100" fill="rgb(144,78,140)"/><rect x="8818" y="0" width="722" height="100" fill="rgb(144,74,84)"/><rect x="9540" y="0" width="357" height="100" fill="rgb(62,98,98)"/><rect x="9897" y="0" width="605" height="100" fill="rgb(70,117,133)"/><rect x="10502" y="0" width="1545" height="100" fill="rgb(123,78,150)"/><rect x="12047" y="0" width="625" height="100" fill="rgb(92,85,114)"/><rect x="12672" y="0" width="1945" height="100" fill="rgb(190,117,115)"/><rect x="14617" y="0" width="330" height="100" fill="rgb(110,210,160)"/><rect x="14947" y="0" width="2578" height="100" fill="rgb(83,132,85)"/><rect x="17525" y="0" width="785" height="100" fill="rgb(90,50,118)"/><rect x="18310" y="0" width="785" height="100" fill="rgb(132,53,102)"/><rect x="19095" y="0" width="698" height="100" fill="rgb(102,120,44)"/><rect x="19793" y="0" width="487" height="100" fill="rgb(106,119,105)"/></svg>
