<svg xmlns="http://www.w3.org/2000/svg" width="16927" height="100" viewBox="0 0 16927 100" preserveAspectRatio="none"><rect x="0" y="0" width="572" height="100" fill="rgb(35,190,45)"/><rect x="572" y="0" width="620" height="100" fill="rgb(82,112,90)"/><rect x="1192" y="0" width="278" height="100" fill="rgb(92,142,97)"/><rect x="1470" y="0" width="687" height="100" fill="rgb(135,190,115)"/><rect x="2157" y="0" width="348" height="100" fill="rgb(71,106,91)"/><rect x="2505" y="0" width="412" height="100" fill="rgb(103,75,87)"/><rect x="2917" y="0" width="502" height="100" fill="rgb(58,111,132)"/><rect x="3419" y="0" width="687" height="100" fill="rgb(98,140,108)"/><rect x="4106" y="0" width="310" height="100" fill="rgb(66,84,110)"/><rect x="4416" y="0" width="372" height="100" fill="rgb(62,98,98)"/><rect x="4788" y="0" width="503" height="100" fill="rgb(131,132,67)"/><rect x="5291" y="0" width="1267" height="100" fill="rgb(128,83,43)"/><rect x="6558" y="0" width="735" height="100" fill="rgb(200,87,50)"/><rect x="7293" y="0" width="358" height="100" fill="rgb(108,55,118)"/><rect x="7651" y="0" width="638" height="100" fill="rgb(70,117,133)"/><rect x="8289" y="0" width="1102" height="100" fill="rgb(190,117,115)"/><rect x="9391" y="0" width="248" height="100" fill="rgb(110,210,160)"/><rect x="9639" y="0" width="2868" height="100" fill="rgb(83,132,85)"/><rect x="12507" y="0" width="813" height="100" fill="rgb(107,35,113)"/><rect x="13320" y="0" width="833" height="100" fill="rgb(116,140,110)"/><rect x="14153" y="0" width="672" height="100" fill="rgb(132,53,102)"/><rect x="14825" y="0" width="455" height="100" fill="rgb(123,32,125)"/><rect x="15280" y="0" width="788" height="100" fill="rgb(101,77,59)"/><rect x="16068" y="0" width="317" height="100" fill="rgb(123,32,125)"/><rect x="16385" y="0" width="542" height="100" fill="rgb(106,119,105)"/></svg>
