<svg xmlns="http://www.w3.org/2000/svg" width="16393" height="100" viewBox="0 0 16393 100" preserveAspectRatio="none"><rect x="0" y="0" width="540" height="100" fill="rgb(119,128,120)"/><rect x="540" y="0" width="713" height="100" fill="rgb(200,87,50)"/><rect x="1253" y="0" width="303" height="100" fill="rgb(92,142,97)"/><rect x="1556" y="0" width="365" height="100" fill="rgb(66,84,110)"/><rect x="1921" y="0" width="557" height="100" fill="rgb(58,111,132)"/><rect x="2478" y="0" width="525" height="100" fill="rgb(98,140,108)"/><rect x="3003" y="0" width="468" height="100" fill="rgb(45,138,70)"/><rect x="3471" y="0" width="593" height="100" fill="rgb(82,112,90)"/><rect x="4064" y="0" width="692" height="100" fill="rgb(135,190,115)"/><rect x="4756" y="0" width="495" height="100" fill="rgb(103,75,87)"/><rect x="5251" y="0" width="398" height="100" fill="rgb(71,106,91)"/><rect x="5649" y="0" width="703" height="100" fill="rgb(133,106,48)"/><rect x="6352" y="0" width="1013" height="100" fill="rgb(128,83,43)"/><rect x="7365" y="0" width="1088" height="100" fill="rgb(190,117,115)"/><rect x="8453" y="0" width="265" height="100" fill="rgb(110,210,160)"/><rect x="8718" y="0" width="1960" height="100" fill="rgb(83,132,85)"/><rect x="10678" y="0" width="473" height="100" fill="rgb(85,57,170)"/><rect x="11151" y="0" width="835" height="100" fill="rgb(83,132,85)"/><rect x="11986" y="0" width="1098" height="100" fill="rgb(107,80,130)"/><rect x="13084" y="0" width="635" height="100" fill="rgb(92,85,114)"/><rect x="13719" y="0" width="793" height="100" fill="rgb(132,53,102)"/><rect x="14512" y="0" width="432" height="100" fill="rgb(123,32,125)"/><rect x="14944" y="0" width="615" height="100" fill="rgb(101,77,59)"/><rect x="15559" y="0" width="372" height="100" fill="rgb(123,32,125)"/><rect x="15931" y="0" width="462" height="100" fill="rgb(106,119,105)"/></svg>
