<svg xmlns="http://www.w3.org/2000/svg" width="21639" height="100" viewBox="0 0 21639 100"><rect x="0" y="0" width="585" height="100" fill="rgb(35,190,45)"/><rect x="585" y="0" width="330" height="100" fill="rgb(66,84,110)"/><rect x="915" y="0" width="367" height="100" fill="rgb(103,75,87)"/><rect x="1282" y="0" width="473" height="100" fill="rgb(58,111,132)"/><rect x="1755" y="0" width="527" height="100" fill="rgb(98,140,108)"/><rect x="2282" y="0" width="582" height="100" fill="rgb(82,112,90)"/><rect x="2864" y="0" width="677" height="100" fill="rgb(135,190,115)"/><rect x="3541" y="0" width="528" height="100" fill="rgb(131,132,67)"/><rect x="4069" y="0" width="497" height="100" fill="rgb(85,57,170)"/><rect x="4566" y="0" width="757" height="100" fill="rgb(107,35,113)"/><rect x="5323" y="0" width="288" height="100" fill="rgb(92,142,97)"/><rect x="5611" y="0" width="1383" height="100" fill="rgb(128,83,43)"/><rect x="6994" y="0" width="393" height="100" fill="rgb(62,98,98)"/><rect x="7387" y="0" width="488" height="100" fill="rgb(47,125,140)"/><rect x="7875" y="0" width="752" height="100" fill="rgb(133,106,48)"/><rect x="8627" y="0" width="435" height="100" fill="rgb(45,138,70)"/><rect x="9062" y="0" width="535" height="100" fill="rgb(119,128,120)"/><rect x="9597" y="0" width="588" height="100" fill="rgb(70,117,133)"/><rect x="10185" y="0" width="885" height="100" fill="rgb(190,117,115)"/><rect x="11070" y="0" width="242" height="100" fill="rgb(110,210,160)"/><rect x="11312" y="0" width="3435" height="100" fill="rgb(83,132,85)"/><rect x="14747" y="0" width="558" height="100" fill="rgb(62,77,55)"/><rect x="15305" y="0" width="207" height="100" fill="rgb(83,132,85)"/><rect x="15512" y="0" width="890" height="100" fill="rgb(107,80,130)"/><rect x="16402" y="0" width="365" height="100" fill="rgb(71,106,91)"/><rect x="16767" y="0" width="700" height="100" fill="rgb(113,131,117)"/><rect x="17467" y="0" width="680" height="100" fill="rgb(92,85,114)"/><rect x="18147" y="0" width="1002" height="100" fill="rgb(103,22,87)"/><rect x="19149" y="0" width="705" height="100" fill="rgb(132,53,102)"/><rect x="19854" y="0" width="478" height="100" fill="rgb(123,32,125)"/><rect x="20332" y="0" width="887" height="100" fill="rgb(101,77,59)"/><rect x="21219" y="0" width="420" height="100" fill="rgb(123,32,125)"/></svg>
