<svg xmlns="http://www.w3.org/2000/svg" width="23912" height="100" viewBox="0 0 23912 100"><rect x="0" y="0" width="1095" height="100" fill="rgb(190,117,115)"/><rect x="1095" y="0" width="750" height="100" fill="rgb(200,87,50)"/><rect x="1845" y="0" width="428" height="100" fill="rgb(103,75,87)"/><rect x="2273" y="0" width="407" height="100" fill="rgb(71,106,91)"/><rect x="2680" y="0" width="767" height="100" fill="rgb(107,35,113)"/><rect x="3447" y="0" width="338" height="100" fill="rgb(92,142,97)"/><rect x="3785" y="0" width="595" height="100" fill="rgb(58,111,132)"/><rect x="4380" y="0" width="595" height="100" fill="rgb(98,140,108)"/><rect x="4975" y="0" width="598" height="100" fill="rgb(82,112,90)"/><rect x="5573" y="0" width="592" height="100" fill="rgb(131,132,67)"/><rect x="6165" y="0" width="1160" height="100" fill="rgb(128,83,43)"/><rect x="7325" y="0" width="773" height="100" fill="rgb(133,106,48)"/><rect x="8098" y="0" width="2003" height="100" fill="rgb(123,78,150)"/><rect x="10101" y="0" width="680" height="100" fill="rgb(70,117,133)"/><rect x="10781" y="0" width="785" height="100" fill="rgb(119,128,120)"/><rect x="11566" y="0" width="645" height="100" fill="rgb(45,138,70)"/><rect x="12211" y="0" width="698" height="100" fill="rgb(92,85,114)"/><rect x="12909" y="0" width="500" height="100" fill="rgb(47,125,140)"/><rect x="13409" y="0" width="1983" height="100" fill="rgb(77,100,130)"/><rect x="15392" y="0" width="240" height="100" fill="rgb(110,210,160)"/><rect x="15632" y="0" width="3057" height="100" fill="rgb(83,132,85)"/><rect x="18689" y="0" width="1147" height="100" fill="rgb(103,22,87)"/><rect x="19836" y="0" width="938" height="100" fill="rgb(132,53,102)"/><rect x="20774" y="0" width="1305" height="100" fill="rgb(146,133,119)"/><rect x="22079" y="0" width="893" height="100" fill="rgb(101,77,59)"/><rect x="22972" y="0" width="435" height="100" fill="rgb(123,32,125)"/><rect x="23407" y="0" width="505" height="100" fill="rgb(106,119,105)"/></svg>
