<svg xmlns="http://www.w3.org/2000/svg" width="22280" height="100" viewBox="0 0 22280 100" preserveAspectRatio="none"><rect x="0" y="0" width="382" height="100" fill="rgb(155,74,78)"/><rect x="382" y="0" width="758" height="100" fill="rgb(200,87,50)"/><rect x="1140" y="0" width="392" height="100" fill="rgb(103,75,87)"/><rect x="1532" y="0" width="643" height="100" fill="rgb(82,112,90)"/><rect x="2175" y="0" width="678" height="100" fill="rgb(135,190,115)"/><rect x="2853" y="0" width="487" height="100" fill="rgb(131,132,67)"/><rect x="3340" y="0" width="490" height="100" fill="rgb(85,57,170)"/><rect x="3830" y="0" width="445" height="100" fill="rgb(103,93,110)"/><rect x="4275" y="0" width="783" height="100" fill="rgb(113,131,117)"/><rect x="5058" y="0" width="1803" height="100" fill="rgb(128,83,43)"/><rect x="6861" y="0" width="917" height="100" fill="rgb(107,35,113)"/><rect x="7778" y="0" width="547" height="100" fill="rgb(88,82,118)"/><rect x="8325" y="0" width="532" height="100" fill="rgb(47,125,140)"/><rect x="8857" y="0" width="293" height="100" fill="rgb(92,142,97)"/><rect x="9150" y="0" width="627" height="100" fill="rgb(58,111,132)"/><rect x="9777" y="0" width="577" height="100" fill="rgb(98,140,108)"/><rect x="10354" y="0" width="670" height="100" fill="rgb(123,32,125)"/><rect x="11024" y="0" width="827" height="100" fill="rgb(101,77,59)"/><rect x="11851" y="0" width="300" height="100" fill="rgb(123,32,125)"/><rect x="12151" y="0" width="1897" height="100" fill="rgb(190,117,115)"/><rect x="14048" y="0" width="917" height="100" fill="rgb(83,132,85)"/><rect x="14965" y="0" width="230" height="100" fill="rgb(110,210,160)"/><rect x="15195" y="0" width="1232" height="100" fill="rgb(83,132,85)"/><rect x="16427" y="0" width="1178" height="100" fill="rgb(150,100,80)"/><rect x="17605" y="0" width="578" height="100" fill="rgb(83,132,85)"/><rect x="18183" y="0" width="1098" height="100" fill="rgb(103,22,87)"/><rect x="19281" y="0" width="377" height="100" fill="rgb(66,84,110)"/><rect x="19658" y="0" width="635" height="100" fill="rgb(92,85,114)"/><rect x="20293" y="0" width="802" height="100" fill="rgb(132,53,102)"/><rect x="21095" y="0" width="670" height="100" fill="rgb(70,117,133)"/><rect x="21765" y="0" width="515" height="100" fill="rgb(106,119,105)"/></svg>
