<svg xmlns="http://www.w3.org/2000/svg" width="17200" height="100" viewBox="0 0 17200 100"><rect x="0" y="0" width="340" height="100" fill="rgb(155,74,78)"/><rect x="340" y="0" width="750" height="100" fill="rgb(200,87,50)"/><rect x="1090" y="0" width="327" height="100" fill="rgb(66,84,110)"/><rect x="1417" y="0" width="492" height="100" fill="rgb(40,30,120)"/><rect x="1909" y="0" width="702" height="100" fill="rgb(82,112,90)"/><rect x="2611" y="0" width="797" height="100" fill="rgb(58,111,132)"/><rect x="3408" y="0" width="705" height="100" fill="rgb(98,140,108)"/><rect x="4113" y="0" width="382" height="100" fill="rgb(108,55,118)"/><rect x="4495" y="0" width="598" height="100" fill="rgb(35,190,45)"/><rect x="5093" y="0" width="1995" height="100" fill="rgb(128,83,43)"/><rect x="7088" y="0" width="953" height="100" fill="rgb(107,35,113)"/><rect x="8041" y="0" width="510" height="100" fill="rgb(47,125,140)"/><rect x="8551" y="0" width="1328" height="100" fill="rgb(97,77,120)"/><rect x="9879" y="0" width="560" height="100" fill="rgb(119,128,120)"/><rect x="10439" y="0" width="3147" height="100" fill="rgb(77,100,130)"/><rect x="13586" y="0" width="507" height="100" fill="rgb(85,57,170)"/><rect x="14093" y="0" width="1085" height="100" fill="rgb(103,22,87)"/><rect x="15178" y="0" width="875" height="100" fill="rgb(132,53,102)"/><rect x="16053" y="0" width="642" height="100" fill="rgb(70,117,133)"/><rect x="16695" y="0" width="505" height="100" fill="rgb(106,119,105)"/></svg>
