<svg xmlns="http://www.w3.org/2000/svg" width="21031" height="100" viewBox="0 0 21031 100" preserveAspectRatio="none"><rect x="0" y="0" width="335" height="100" fill="rgb(155,74,78)"/><rect x="335" y="0" width="727" height="100" fill="rgb(200,87,50)"/><rect x="1062" y="0" width="382" height="100" fill="rgb(103,75,87)"/><rect x="1444" y="0" width="572" height="100" fill="rgb(82,112,90)"/><rect x="2016" y="0" width="755" height="100" fill="rgb(133,106,48)"/><rect x="2771" y="0" width="490" height="100" fill="rgb(131,132,67)"/><rect x="3261" y="0" width="488" height="100" fill="rgb(47,125,140)"/><rect x="3749" y="0" width="510" height="100" fill="rgb(58,111,132)"/><rect x="4259" y="0" width="623" height="100" fill="rgb(98,140,108)"/><rect x="4882" y="0" width="338" height="100" fill="rgb(66,84,110)"/><rect x="5220" y="0" width="295" height="100" fill="rgb(92,142,97)"/><rect x="5515" y="0" width="400" height="100" fill="rgb(62,98,98)"/><rect x="5915" y="0" width="797" height="100" fill="rgb(113,131,117)"/><rect x="6712" y="0" width="1263" height="100" fill="rgb(128,83,43)"/><rect x="7975" y="0" width="333" height="100" fill="rgb(126,96,117)"/><rect x="8308" y="0" width="522" height="100" fill="rgb(120,67,96)"/><rect x="8830" y="0" width="352" height="100" fill="rgb(108,55,118)"/><rect x="9182" y="0" width="1180" height="100" fill="rgb(123,78,150)"/><rect x="10362" y="0" width="685" height="100" fill="rgb(70,117,133)"/><rect x="11047" y="0" width="737" height="100" fill="rgb(92,85,114)"/><rect x="11784" y="0" width="2990" height="100" fill="rgb(77,100,130)"/><rect x="14774" y="0" width="1162" height="100" fill="rgb(150,100,80)"/><rect x="15936" y="0" width="888" height="100" fill="rgb(107,35,113)"/><rect x="16824" y="0" width="700" height="100" fill="rgb(132,53,102)"/><rect x="17524" y="0" width="675" height="100" fill="rgb(90,50,118)"/><rect x="18199" y="0" width="888" height="100" fill="rgb(101,77,59)"/><rect x="19087" y="0" width="490" height="100" fill="rgb(123,32,125)"/><rect x="19577" y="0" width="452" height="100" fill="rgb(80,70,100)"/><rect x="20029" y="0" width="310" height="100" fill="rgb(123,32,125)"/><rect x="20339" y="0" width="692" height="100" fill="rgb(110,110,42)"/></svg>
