<svg xmlns="http://www.w3.org/2000/svg" width="23141" height="100" viewBox="0 0 23141 100" preserveAspectRatio="none"><rect x="0" y="0" width="608" height="100" fill="rgb(35,190,45)"/><rect x="608" y="0" width="357" height="100" fill="rgb(66,84,110)"/><rect x="965" y="0" width="458" height="100" fill="rgb(103,75,87)"/><rect x="1423" y="0" width="833" height="100" fill="rgb(107,35,113)"/><rect x="2256" y="0" width="668" height="100" fill="rgb(82,112,90)"/><rect x="2924" y="0" width="442" height="100" fill="rgb(131,132,67)"/><rect x="3366" y="0" width="542" height="100" fill="rgb(58,111,132)"/><rect x="3908" y="0" width="522" height="100" fill="rgb(98,140,108)"/><rect x="4430" y="0" width="488" height="100" fill="rgb(47,125,140)"/><rect x="4918" y="0" width="478" height="100" fill="rgb(62,98,98)"/><rect x="5396" y="0" width="938" height="100" fill="rgb(128,83,43)"/><rect x="6334" y="0" width="297" height="100" fill="rgb(92,142,97)"/><rect x="6631" y="0" width="673" height="100" fill="rgb(135,190,115)"/><rect x="7304" y="0" width="375" height="100" fill="rgb(71,106,91)"/><rect x="7679" y="0" width="457" height="100" fill="rgb(153,94,78)"/><rect x="8136" y="0" width="462" height="100" fill="rgb(85,57,170)"/><rect x="8598" y="0" width="780" height="100" fill="rgb(133,106,48)"/><rect x="9378" y="0" width="573" height="100" fill="rgb(119,128,120)"/><rect x="9951" y="0" width="697" height="100" fill="rgb(113,131,117)"/><rect x="10648" y="0" width="588" height="100" fill="rgb(70,117,133)"/><rect x="11236" y="0" width="1415" height="100" fill="rgb(123,78,150)"/><rect x="12651" y="0" width="435" height="100" fill="rgb(103,93,110)"/><rect x="13086" y="0" width="1418" height="100" fill="rgb(190,117,115)"/><rect x="14504" y="0" width="412" height="100" fill="rgb(110,210,160)"/><rect x="14916" y="0" width="3647" height="100" fill="rgb(83,132,85)"/><rect x="18563" y="0" width="670" height="100" fill="rgb(90,50,118)"/><rect x="19233" y="0" width="723" height="100" fill="rgb(132,53,102)"/><rect x="19956" y="0" width="1710" height="100" fill="rgb(128,151,104)"/><rect x="21666" y="0" width="967" height="100" fill="rgb(101,77,59)"/><rect x="22633" y="0" width="508" height="100" fill="rgb(106,119,105)"/></svg>
