<svg xmlns="http://www.w3.org/2000/svg" width="20700" height="100" viewBox="0 0 20700 100" preserveAspectRatio="none"><rect x="0" y="0" width="653" height="100" fill="rgb(35,190,45)"/><rect x="653" y="0" width="347" height="100" fill="rgb(66,84,110)"/><rect x="1000" y="0" width="478" height="100" fill="rgb(103,75,87)"/><rect x="1478" y="0" width="403" height="100" fill="rgb(153,94,78)"/><rect x="1881" y="0" width="613" height="100" fill="rgb(82,112,90)"/><rect x="2494" y="0" width="287" height="100" fill="rgb(92,142,97)"/><rect x="2781" y="0" width="658" height="100" fill="rgb(135,190,115)"/><rect x="3439" y="0" width="608" height="100" fill="rgb(62,77,55)"/><rect x="4047" y="0" width="558" height="100" fill="rgb(88,82,118)"/><rect x="4605" y="0" width="1145" height="100" fill="rgb(128,83,43)"/><rect x="5750" y="0" width="795" height="100" fill="rgb(133,106,48)"/><rect x="6545" y="0" width="442" height="100" fill="rgb(85,57,170)"/><rect x="6987" y="0" width="640" height="100" fill="rgb(45,138,70)"/><rect x="7627" y="0" width="328" height="100" fill="rgb(71,106,91)"/><rect x="7955" y="0" width="597" height="100" fill="rgb(70,117,133)"/><rect x="8552" y="0" width="1093" height="100" fill="rgb(190,117,115)"/><rect x="9645" y="0" width="695" height="100" fill="rgb(116,140,110)"/><rect x="10340" y="0" width="495" height="100" fill="rgb(144,78,140)"/><rect x="10835" y="0" width="712" height="100" fill="rgb(144,74,84)"/><rect x="11547" y="0" width="2943" height="100" fill="rgb(77,100,130)"/><rect x="14490" y="0" width="668" height="100" fill="rgb(132,53,102)"/><rect x="15158" y="0" width="1847" height="100" fill="rgb(123,78,150)"/><rect x="17005" y="0" width="675" height="100" fill="rgb(102,132,101)"/><rect x="17680" y="0" width="302" height="100" fill="rgb(123,78,150)"/><rect x="17982" y="0" width="642" height="100" fill="rgb(92,85,114)"/><rect x="18624" y="0" width="565" height="100" fill="rgb(123,32,125)"/><rect x="19189" y="0" width="693" height="100" fill="rgb(101,77,59)"/><rect x="19882" y="0" width="343" height="100" fill="rgb(123,32,125)"/><rect x="20225" y="0" width="475" height="100" fill="rgb(106,119,105)"/></svg>
