<svg xmlns="http://www.w3.org/2000/svg" width="22153" height="100" viewBox="0 0 22153 100"><rect x="0" y="0" width="682" height="100" fill="rgb(35,190,45)"/><rect x="682" y="0" width="333" height="100" fill="rgb(66,84,110)"/><rect x="1015" y="0" width="377" height="100" fill="rgb(103,75,87)"/><rect x="1392" y="0" width="722" height="100" fill="rgb(200,87,50)"/><rect x="2114" y="0" width="605" height="100" fill="rgb(82,112,90)"/><rect x="2719" y="0" width="305" height="100" fill="rgb(92,142,97)"/><rect x="3024" y="0" width="562" height="100" fill="rgb(58,111,132)"/><rect x="3586" y="0" width="558" height="100" fill="rgb(98,140,108)"/><rect x="4144" y="0" width="352" height="100" fill="rgb(71,106,91)"/><rect x="4496" y="0" width="842" height="100" fill="rgb(107,35,113)"/><rect x="5338" y="0" width="485" height="100" fill="rgb(131,132,67)"/><rect x="5823" y="0" width="1103" height="100" fill="rgb(128,83,43)"/><rect x="6926" y="0" width="755" height="100" fill="rgb(133,106,48)"/><rect x="7681" y="0" width="1688" height="100" fill="rgb(123,78,150)"/><rect x="9369" y="0" width="932" height="100" fill="rgb(103,22,87)"/><rect x="10301" y="0" width="633" height="100" fill="rgb(70,117,133)"/><rect x="10934" y="0" width="547" height="100" fill="rgb(119,128,120)"/><rect x="11481" y="0" width="633" height="100" fill="rgb(92,85,114)"/><rect x="12114" y="0" width="658" height="100" fill="rgb(116,140,110)"/><rect x="12772" y="0" width="957" height="100" fill="rgb(190,117,115)"/><rect x="13729" y="0" width="1850" height="100" fill="rgb(83,132,85)"/><rect x="15579" y="0" width="332" height="100" fill="rgb(110,210,160)"/><rect x="15911" y="0" width="1288" height="100" fill="rgb(83,132,85)"/><rect x="17199" y="0" width="552" height="100" fill="rgb(62,77,55)"/><rect x="17751" y="0" width="278" height="100" fill="rgb(83,132,85)"/><rect x="18029" y="0" width="957" height="100" fill="rgb(107,80,130)"/><rect x="18986" y="0" width="538" height="100" fill="rgb(47,125,140)"/><rect x="19524" y="0" width="637" height="100" fill="rgb(132,53,102)"/><rect x="20161" y="0" width="477" height="100" fill="rgb(123,32,125)"/><rect x="20638" y="0" width="708" height="100" fill="rgb(101,77,59)"/><rect x="21346" y="0" width="275" height="100" fill="rgb(123,32,125)"/><rect x="21621" y="0" width="532" height="100" fill="rgb(106,119,105)"/></svg>
