<svg xmlns="http://www.w3.org/2000/svg" width="20521" height="100" viewBox="0 0 20521 100" preserveAspectRatio="none"><rect x="0" y="0" width="1130" height="100" fill="rgb(190,117,115)"/><rect x="1130" y="0" width="803" height="100" fill="rgb(133,106,48)"/><rect x="1933" y="0" width="317" height="100" fill="rgb(92,142,97)"/><rect x="2250" y="0" width="700" height="100" fill="rgb(82,112,90)"/><rect x="2950" y="0" width="612" height="100" fill="rgb(58,111,132)"/><rect x="3562" y="0" width="633" height="100" fill="rgb(98,140,108)"/><rect x="4195" y="0" width="422" height="100" fill="rgb(103,75,87)"/><rect x="4617" y="0" width="352" height="100" fill="rgb(71,106,91)"/><rect x="4969" y="0" width="667" height="100" fill="rgb(135,190,115)"/><rect x="5636" y="0" width="1168" height="100" fill="rgb(128,83,43)"/><rect x="6804" y="0" width="470" height="100" fill="rgb(131,132,67)"/><rect x="7274" y="0" width="635" height="100" fill="rgb(62,77,55)"/><rect x="7909" y="0" width="1750" height="100" fill="rgb(123,78,150)"/><rect x="9659" y="0" width="622" height="100" fill="rgb(70,117,133)"/><rect x="10281" y="0" width="2575" height="100" fill="rgb(77,100,130)"/><rect x="12856" y="0" width="338" height="100" fill="rgb(66,84,110)"/><rect x="13194" y="0" width="1465" height="100" fill="rgb(77,100,130)"/><rect x="14659" y="0" width="927" height="100" fill="rgb(107,80,130)"/><rect x="15586" y="0" width="778" height="100" fill="rgb(132,53,102)"/><rect x="16364" y="0" width="1057" height="100" fill="rgb(107,35,113)"/><rect x="17421" y="0" width="858" height="100" fill="rgb(116,140,110)"/><rect x="18279" y="0" width="480" height="100" fill="rgb(85,57,170)"/><rect x="18759" y="0" width="332" height="100" fill="rgb(123,32,125)"/><rect x="19091" y="0" width="652" height="100" fill="rgb(101,77,59)"/><rect x="19743" y="0" width="303" height="100" fill="rgb(123,32,125)"/><rect x="20046" y="0" width="475" height="100" fill="rgb(106,119,105)"/></svg>
