<svg xmlns="http://www.w3.org/2000/svg" width="17716" height="100" viewBox="0 0 17716 100" preserveAspectRatio="none"><rect x="0" y="0" width="973" height="100" fill="rgb(128,83,43)"/><rect x="973" y="0" width="727" height="100" fill="rgb(200,87,50)"/><rect x="1700" y="0" width="423" height="100" fill="rgb(103,75,87)"/><rect x="2123" y="0" width="597" height="100" fill="rgb(82,112,90)"/><rect x="2720" y="0" width="540" height="100" fill="rgb(58,111,132)"/><rect x="3260" y="0" width="558" height="100" fill="rgb(98,140,108)"/><rect x="3818" y="0" width="540" height="100" fill="rgb(45,138,70)"/><rect x="4358" y="0" width="498" height="100" fill="rgb(47,125,140)"/><rect x="4856" y="0" width="683" height="100" fill="rgb(135,190,115)"/><rect x="5539" y="0" width="278" height="100" fill="rgb(92,142,97)"/><rect x="5817" y="0" width="313" height="100" fill="rgb(66,84,110)"/><rect x="6130" y="0" width="378" height="100" fill="rgb(62,98,98)"/><rect x="6508" y="0" width="1645" height="100" fill="rgb(123,78,150)"/><rect x="8153" y="0" width="613" height="100" fill="rgb(70,117,133)"/><rect x="8766" y="0" width="627" height="100" fill="rgb(119,128,120)"/><rect x="9393" y="0" width="798" height="100" fill="rgb(107,35,113)"/><rect x="10191" y="0" width="553" height="100" fill="rgb(131,132,67)"/><rect x="10744" y="0" width="3020" height="100" fill="rgb(77,100,130)"/><rect x="13764" y="0" width="648" height="100" fill="rgb(132,53,102)"/><rect x="14412" y="0" width="2125" height="100" fill="rgb(102,132,101)"/><rect x="16537" y="0" width="512" height="100" fill="rgb(106,119,105)"/><rect x="17049" y="0" width="667" height="100" fill="rgb(110,110,42)"/></svg>
