<svg xmlns="http://www.w3.org/2000/svg" width="16930" height="100" viewBox="0 0 16930 100" preserveAspectRatio="none"><rect x="0" y="0" width="320" height="100" fill="rgb(155,74,78)"/><rect x="320" y="0" width="702" height="100" fill="rgb(200,87,50)"/><rect x="1022" y="0" width="318" height="100" fill="rgb(66,84,110)"/><rect x="1340" y="0" width="778" height="100" fill="rgb(133,106,48)"/><rect x="2118" y="0" width="707" height="100" fill="rgb(82,112,90)"/><rect x="2825" y="0" width="1102" height="100" fill="rgb(97,77,120)"/><rect x="3927" y="0" width="500" height="100" fill="rgb(47,125,140)"/><rect x="4427" y="0" width="490" height="100" fill="rgb(103,70,105)"/><rect x="4917" y="0" width="327" height="100" fill="rgb(106,60,82)"/><rect x="5244" y="0" width="343" height="100" fill="rgb(71,106,91)"/><rect x="5587" y="0" width="518" height="100" fill="rgb(144,78,140)"/><rect x="6105" y="0" width="465" height="100" fill="rgb(60,90,150)"/><rect x="6570" y="0" width="717" height="100" fill="rgb(58,111,132)"/><rect x="7287" y="0" width="477" height="100" fill="rgb(98,140,108)"/><rect x="7764" y="0" width="392" height="100" fill="rgb(122,38,122)"/><rect x="8156" y="0" width="655" height="100" fill="rgb(70,117,133)"/><rect x="8811" y="0" width="652" height="100" fill="rgb(88,82,118)"/><rect x="9463" y="0" width="428" height="100" fill="rgb(85,57,170)"/><rect x="9891" y="0" width="1420" height="100" fill="rgb(107,35,113)"/><rect x="11311" y="0" width="995" height="100" fill="rgb(190,117,115)"/><rect x="12306" y="0" width="1982" height="100" fill="rgb(83,132,85)"/><rect x="14288" y="0" width="595" height="100" fill="rgb(102,120,44)"/><rect x="14883" y="0" width="840" height="100" fill="rgb(132,53,102)"/><rect x="15723" y="0" width="812" height="100" fill="rgb(110,110,42)"/><rect x="16535" y="0" width="395" height="100" fill="rgb(122,68,92)"/></svg>
