<svg xmlns="http://www.w3.org/2000/svg" width="22433" height="100" viewBox="0 0 22433 100" preserveAspectRatio="none"><rect x="0" y="0" width="1088" height="100" fill="rgb(128,83,43)"/><rect x="1088" y="0" width="738" height="100" fill="rgb(200,87,50)"/><rect x="1826" y="0" width="385" height="100" fill="rgb(103,75,87)"/><rect x="2211" y="0" width="635" height="100" fill="rgb(82,112,90)"/><rect x="2846" y="0" width="507" height="100" fill="rgb(40,30,120)"/><rect x="3353" y="0" width="318" height="100" fill="rgb(92,142,97)"/><rect x="3671" y="0" width="367" height="100" fill="rgb(108,55,118)"/><rect x="4038" y="0" width="507" height="100" fill="rgb(58,111,132)"/><rect x="4545" y="0" width="608" height="100" fill="rgb(98,140,108)"/><rect x="5153" y="0" width="638" height="100" fill="rgb(116,140,110)"/><rect x="5791" y="0" width="343" height="100" fill="rgb(71,106,91)"/><rect x="6134" y="0" width="510" height="100" fill="rgb(144,78,140)"/><rect x="6644" y="0" width="493" height="100" fill="rgb(47,125,140)"/><rect x="7137" y="0" width="432" height="100" fill="rgb(62,98,98)"/><rect x="7569" y="0" width="1260" height="100" fill="rgb(123,78,150)"/><rect x="8829" y="0" width="635" height="100" fill="rgb(70,117,133)"/><rect x="9464" y="0" width="1248" height="100" fill="rgb(150,100,80)"/><rect x="10712" y="0" width="320" height="100" fill="rgb(66,84,110)"/><rect x="11032" y="0" width="757" height="100" fill="rgb(113,131,117)"/><rect x="11789" y="0" width="487" height="100" fill="rgb(85,57,170)"/><rect x="12276" y="0" width="828" height="100" fill="rgb(133,106,48)"/><rect x="13104" y="0" width="472" height="100" fill="rgb(131,132,67)"/><rect x="13576" y="0" width="1377" height="100" fill="rgb(77,100,130)"/><rect x="14953" y="0" width="382" height="100" fill="rgb(110,210,160)"/><rect x="15335" y="0" width="3057" height="100" fill="rgb(77,100,130)"/><rect x="18392" y="0" width="772" height="100" fill="rgb(132,53,102)"/><rect x="19164" y="0" width="1657" height="100" fill="rgb(102,132,101)"/><rect x="20821" y="0" width="932" height="100" fill="rgb(190,117,115)"/><rect x="21753" y="0" width="680" height="100" fill="rgb(110,110,42)"/></svg>
