<svg xmlns="http://www.w3.org/2000/svg" width="19209" height="100" viewBox="0 0 19209 100"><rect x="0" y="0" width="487" height="100" fill="rgb(122,38,122)"/><rect x="487" y="0" width="715" height="100" fill="rgb(200,87,50)"/><rect x="1202" y="0" width="320" height="100" fill="rgb(108,55,118)"/><rect x="1522" y="0" width="698" height="100" fill="rgb(105,70,200)"/><rect x="2220" y="0" width="310" height="100" fill="rgb(71,106,91)"/><rect x="2530" y="0" width="467" height="100" fill="rgb(144,78,140)"/><rect x="2997" y="0" width="600" height="100" fill="rgb(88,82,118)"/><rect x="3597" y="0" width="402" height="100" fill="rgb(85,57,170)"/><rect x="3999" y="0" width="708" height="100" fill="rgb(133,106,48)"/><rect x="4707" y="0" width="538" height="100" fill="rgb(47,125,140)"/><rect x="5245" y="0" width="850" height="100" fill="rgb(187,63,170)"/><rect x="6095" y="0" width="130" height="100" fill="rgb(109,143,96)"/><rect x="6225" y="0" width="452" height="100" fill="rgb(109,143,99)"/><rect x="6677" y="0" width="953" height="100" fill="rgb(93,97,158)"/><rect x="7630" y="0" width="2463" height="100" fill="rgb(83,180,127)"/><rect x="10093" y="0" width="890" height="100" fill="rgb(100,10,130)"/><rect x="10983" y="0" width="2417" height="100" fill="rgb(77,100,130)"/><rect x="13400" y="0" width="1390" height="100" fill="rgb(150,100,80)"/><rect x="14790" y="0" width="308" height="100" fill="rgb(155,74,78)"/><rect x="15098" y="0" width="518" height="100" fill="rgb(35,190,45)"/><rect x="15616" y="0" width="482" height="100" fill="rgb(119,128,120)"/><rect x="16098" y="0" width="670" height="100" fill="rgb(130,54,153)"/><rect x="16768" y="0" width="735" height="100" fill="rgb(123,32,125)"/><rect x="17503" y="0" width="743" height="100" fill="rgb(101,77,59)"/><rect x="18246" y="0" width="445" height="100" fill="rgb(106,119,105)"/><rect x="18691" y="0" width="518" height="100" fill="rgb(133,70,150)"/></svg>
