<svg xmlns="http://www.w3.org/2000/svg" width="21284" height="100" viewBox="0 0 21284 100" preserveAspectRatio="none"><rect x="0" y="0" width="525" height="100" fill="rgb(60,90,150)"/><rect x="525" y="0" width="573" height="100" fill="rgb(144,78,140)"/><rect x="1098" y="0" width="400" height="100" fill="rgb(71,106,91)"/><rect x="1498" y="0" width="830" height="100" fill="rgb(106,65,116)"/><rect x="2328" y="0" width="892" height="100" fill="rgb(82,112,90)"/><rect x="3220" y="0" width="878" height="100" fill="rgb(187,63,170)"/><rect x="4098" y="0" width="482" height="100" fill="rgb(108,55,118)"/><rect x="4580" y="0" width="522" height="100" fill="rgb(40,30,120)"/><rect x="5102" y="0" width="378" height="100" fill="rgb(102,23,114)"/><rect x="5480" y="0" width="868" height="100" fill="rgb(131,120,128)"/><rect x="6348" y="0" width="580" height="100" fill="rgb(85,57,170)"/><rect x="6928" y="0" width="677" height="100" fill="rgb(130,54,153)"/><rect x="7605" y="0" width="130" height="100" fill="rgb(109,143,96)"/><rect x="7735" y="0" width="440" height="100" fill="rgb(109,143,99)"/><rect x="8175" y="0" width="1098" height="100" fill="rgb(93,97,158)"/><rect x="9273" y="0" width="620" height="100" fill="rgb(122,60,121)"/><rect x="9893" y="0" width="2228" height="100" fill="rgb(83,180,127)"/><rect x="12121" y="0" width="597" height="100" fill="rgb(133,70,150)"/><rect x="12718" y="0" width="313" height="100" fill="rgb(66,84,110)"/><rect x="13031" y="0" width="248" height="100" fill="rgb(100,10,130)"/><rect x="13279" y="0" width="1140" height="100" fill="rgb(58,111,132)"/><rect x="14419" y="0" width="165" height="100" fill="rgb(87,80,88)"/><rect x="14584" y="0" width="620" height="100" fill="rgb(98,140,108)"/><rect x="15204" y="0" width="1110" height="100" fill="rgb(190,117,115)"/><rect x="16314" y="0" width="310" height="100" fill="rgb(120,104,60)"/><rect x="16624" y="0" width="1522" height="100" fill="rgb(125,120,60)"/><rect x="18146" y="0" width="983" height="100" fill="rgb(107,80,130)"/><rect x="19129" y="0" width="987" height="100" fill="rgb(132,53,102)"/><rect x="20116" y="0" width="1168" height="100" fill="rgb(115,78,120)"/></svg>
