<svg xmlns="http://www.w3.org/2000/svg" width="23701" height="100" viewBox="0 0 23701 100" preserveAspectRatio="none"><rect x="0" y="0" width="552" height="100" fill="rgb(35,190,45)"/><rect x="552" y="0" width="613" height="100" fill="rgb(47,125,140)"/><rect x="1165" y="0" width="542" height="100" fill="rgb(40,30,120)"/><rect x="1707" y="0" width="353" height="100" fill="rgb(108,55,118)"/><rect x="2060" y="0" width="600" height="100" fill="rgb(122,60,121)"/><rect x="2660" y="0" width="375" height="100" fill="rgb(71,106,91)"/><rect x="3035" y="0" width="910" height="100" fill="rgb(106,65,116)"/><rect x="3945" y="0" width="583" height="100" fill="rgb(62,77,55)"/><rect x="4528" y="0" width="812" height="100" fill="rgb(133,106,48)"/><rect x="5340" y="0" width="550" height="100" fill="rgb(88,82,118)"/><rect x="5890" y="0" width="915" height="100" fill="rgb(187,63,170)"/><rect x="6805" y="0" width="3173" height="100" fill="rgb(128,83,43)"/><rect x="9978" y="0" width="2390" height="100" fill="rgb(83,180,127)"/><rect x="12368" y="0" width="2332" height="100" fill="rgb(100,10,130)"/><rect x="14700" y="0" width="193" height="100" fill="rgb(175,10,40)"/><rect x="14893" y="0" width="1675" height="100" fill="rgb(107,80,130)"/><rect x="16568" y="0" width="1982" height="100" fill="rgb(115,78,120)"/><rect x="18550" y="0" width="580" height="100" fill="rgb(60,90,150)"/><rect x="19130" y="0" width="718" height="100" fill="rgb(130,54,153)"/><rect x="19848" y="0" width="1008" height="100" fill="rgb(190,117,115)"/><rect x="20856" y="0" width="822" height="100" fill="rgb(101,77,59)"/><rect x="21678" y="0" width="878" height="100" fill="rgb(110,110,42)"/><rect x="22556" y="0" width="540" height="100" fill="rgb(122,68,92)"/><rect x="23096" y="0" width="605" height="100" fill="rgb(133,70,150)"/></svg>
