<svg xmlns="http://www.w3.org/2000/svg" width="20484" height="100" viewBox="0 0 20484 100" preserveAspectRatio="none"><rect x="0" y="0" width="780" height="100" fill="rgb(131,120,128)"/><rect x="780" y="0" width="278" height="100" fill="rgb(66,84,110)"/><rect x="1058" y="0" width="455" height="100" fill="rgb(93,77,87)"/><rect x="1513" y="0" width="317" height="100" fill="rgb(71,106,91)"/><rect x="1830" y="0" width="618" height="100" fill="rgb(122,60,121)"/><rect x="2448" y="0" width="418" height="100" fill="rgb(85,57,170)"/><rect x="2866" y="0" width="483" height="100" fill="rgb(140,90,163)"/><rect x="3349" y="0" width="732" height="100" fill="rgb(82,112,90)"/><rect x="4081" y="0" width="1182" height="100" fill="rgb(106,65,116)"/><rect x="5263" y="0" width="798" height="100" fill="rgb(96,108,112)"/><rect x="6061" y="0" width="247" height="100" fill="rgb(90,98,60)"/><rect x="6308" y="0" width="1823" height="100" fill="rgb(115,78,120)"/><rect x="8131" y="0" width="582" height="100" fill="rgb(67,48,130)"/><rect x="8713" y="0" width="478" height="100" fill="rgb(60,90,150)"/><rect x="9191" y="0" width="1392" height="100" fill="rgb(83,180,127)"/><rect x="10583" y="0" width="913" height="100" fill="rgb(110,110,42)"/><rect x="11496" y="0" width="503" height="100" fill="rgb(62,98,98)"/><rect x="11999" y="0" width="303" height="100" fill="rgb(102,23,114)"/><rect x="12302" y="0" width="643" height="100" fill="rgb(165,103,138)"/><rect x="12945" y="0" width="328" height="100" fill="rgb(108,55,118)"/><rect x="13273" y="0" width="427" height="100" fill="rgb(103,93,110)"/><rect x="13700" y="0" width="543" height="100" fill="rgb(132,53,102)"/><rect x="14243" y="0" width="1220" height="100" fill="rgb(107,35,113)"/><rect x="15463" y="0" width="162" height="100" fill="rgb(190,117,115)"/><rect x="15625" y="0" width="450" height="100" fill="rgb(113,127,60)"/><rect x="16075" y="0" width="138" height="100" fill="rgb(110,210,160)"/><rect x="16213" y="0" width="923" height="100" fill="rgb(175,10,40)"/><rect x="17136" y="0" width="980" height="100" fill="rgb(190,117,115)"/><rect x="18116" y="0" width="1017" height="100" fill="rgb(45,90,120)"/><rect x="19133" y="0" width="323" height="100" fill="rgb(150,48,110)"/><rect x="19456" y="0" width="488" height="100" fill="rgb(106,119,105)"/><rect x="19944" y="0" width="540" height="100" fill="rgb(133,70,150)"/></svg>
