<svg xmlns="http://www.w3.org/2000/svg" width="22991" height="100" viewBox="0 0 22991 100"><rect x="0" y="0" width="548" height="100" fill="rgb(87,65,125)"/><rect x="548" y="0" width="243" height="100" fill="rgb(90,98,60)"/><rect x="791" y="0" width="472" height="100" fill="rgb(40,30,120)"/><rect x="1263" y="0" width="327" height="100" fill="rgb(71,106,91)"/><rect x="1590" y="0" width="722" height="100" fill="rgb(135,190,115)"/><rect x="2312" y="0" width="540" height="100" fill="rgb(47,125,140)"/><rect x="2852" y="0" width="805" height="100" fill="rgb(133,106,48)"/><rect x="3657" y="0" width="422" height="100" fill="rgb(85,57,170)"/><rect x="4079" y="0" width="632" height="100" fill="rgb(102,120,44)"/><rect x="4711" y="0" width="890" height="100" fill="rgb(58,111,132)"/><rect x="5601" y="0" width="587" height="100" fill="rgb(98,140,108)"/><rect x="6188" y="0" width="508" height="100" fill="rgb(122,38,122)"/><rect x="6696" y="0" width="3505" height="100" fill="rgb(83,180,127)"/><rect x="10201" y="0" width="1340" height="100" fill="rgb(128,83,43)"/><rect x="11541" y="0" width="415" height="100" fill="rgb(110,210,160)"/><rect x="11956" y="0" width="1473" height="100" fill="rgb(123,32,125)"/><rect x="13429" y="0" width="1093" height="100" fill="rgb(83,132,85)"/><rect x="14522" y="0" width="958" height="100" fill="rgb(107,80,130)"/><rect x="15480" y="0" width="863" height="100" fill="rgb(128,83,43)"/><rect x="16343" y="0" width="1217" height="100" fill="rgb(123,78,150)"/><rect x="17560" y="0" width="563" height="100" fill="rgb(122,60,121)"/><rect x="18123" y="0" width="325" height="100" fill="rgb(155,74,78)"/><rect x="18448" y="0" width="1480" height="100" fill="rgb(115,78,120)"/><rect x="19928" y="0" width="863" height="100" fill="rgb(140,43,100)"/><rect x="20791" y="0" width="853" height="100" fill="rgb(132,53,102)"/><rect x="21644" y="0" width="392" height="100" fill="rgb(122,68,92)"/><rect x="22036" y="0" width="757" height="100" fill="rgb(131,120,128)"/><rect x="22793" y="0" width="198" height="100" fill="rgb(61,101,115)"/></svg>
