<svg xmlns="http://www.w3.org/2000/svg" width="19023" height="100" viewBox="0 0 19023 100"><rect x="0" y="0" width="338" height="100" fill="rgb(155,74,78)"/><rect x="338" y="0" width="802" height="100" fill="rgb(131,120,128)"/><rect x="1140" y="0" width="687" height="100" fill="rgb(82,112,90)"/><rect x="1827" y="0" width="418" height="100" fill="rgb(93,77,87)"/><rect x="2245" y="0" width="522" height="100" fill="rgb(47,125,140)"/><rect x="2767" y="0" width="580" height="100" fill="rgb(135,190,115)"/><rect x="3347" y="0" width="462" height="100" fill="rgb(85,57,170)"/><rect x="3809" y="0" width="920" height="100" fill="rgb(58,111,132)"/><rect x="4729" y="0" width="510" height="100" fill="rgb(98,140,108)"/><rect x="5239" y="0" width="295" height="100" fill="rgb(66,84,110)"/><rect x="5534" y="0" width="597" height="100" fill="rgb(122,60,121)"/><rect x="6131" y="0" width="127" height="100" fill="rgb(109,143,96)"/><rect x="6258" y="0" width="450" height="100" fill="rgb(109,143,99)"/><rect x="6708" y="0" width="1092" height="100" fill="rgb(93,97,158)"/><rect x="7800" y="0" width="932" height="100" fill="rgb(83,180,127)"/><rect x="8732" y="0" width="1053" height="100" fill="rgb(106,65,116)"/><rect x="9785" y="0" width="423" height="100" fill="rgb(60,90,150)"/><rect x="10208" y="0" width="523" height="100" fill="rgb(92,85,114)"/><rect x="10731" y="0" width="332" height="100" fill="rgb(108,55,118)"/><rect x="11063" y="0" width="1332" height="100" fill="rgb(107,35,113)"/><rect x="12395" y="0" width="3053" height="100" fill="rgb(83,132,85)"/><rect x="15448" y="0" width="170" height="100" fill="rgb(125,120,60)"/><rect x="15618" y="0" width="317" height="100" fill="rgb(87,80,88)"/><rect x="15935" y="0" width="248" height="100" fill="rgb(83,132,85)"/><rect x="16183" y="0" width="908" height="100" fill="rgb(140,43,100)"/><rect x="17091" y="0" width="862" height="100" fill="rgb(132,53,102)"/><rect x="17953" y="0" width="692" height="100" fill="rgb(70,117,133)"/><rect x="18645" y="0" width="378" height="100" fill="rgb(133,70,150)"/></svg>
