<svg xmlns="http://www.w3.org/2000/svg" width="15531" height="100" viewBox="0 0 15531 100" preserveAspectRatio="none"><rect x="0" y="0" width="602" height="100" fill="rgb(119,96,119)"/><rect x="602" y="0" width="1225" height="100" fill="rgb(200,87,50)"/><rect x="1827" y="0" width="235" height="100" fill="rgb(90,98,60)"/><rect x="2062" y="0" width="470" height="100" fill="rgb(144,78,140)"/><rect x="2532" y="0" width="422" height="100" fill="rgb(20,157,145)"/><rect x="2954" y="0" width="1115" height="100" fill="rgb(187,63,170)"/><rect x="4069" y="0" width="760" height="100" fill="rgb(144,74,84)"/><rect x="4829" y="0" width="1098" height="100" fill="rgb(106,65,116)"/><rect x="5927" y="0" width="280" height="100" fill="rgb(159,72,143)"/><rect x="6207" y="0" width="530" height="100" fill="rgb(180,63,145)"/><rect x="6737" y="0" width="705" height="100" fill="rgb(60,145,93)"/><rect x="7442" y="0" width="395" height="100" fill="rgb(155,74,78)"/><rect x="7837" y="0" width="457" height="100" fill="rgb(110,103,73)"/><rect x="8294" y="0" width="620" height="100" fill="rgb(135,38,78)"/><rect x="8914" y="0" width="410" height="100" fill="rgb(82,114,108)"/><rect x="9324" y="0" width="922" height="100" fill="rgb(133,135,163)"/><rect x="10246" y="0" width="1115" height="100" fill="rgb(100,108,162)"/><rect x="11361" y="0" width="1152" height="100" fill="rgb(74,80,124)"/><rect x="12513" y="0" width="1028" height="100" fill="rgb(107,80,130)"/><rect x="13541" y="0" width="847" height="100" fill="rgb(122,38,122)"/><rect x="14388" y="0" width="730" height="100" fill="rgb(122,60,121)"/><rect x="15118" y="0" width="413" height="100" fill="rgb(122,68,92)"/></svg>
