<svg xmlns="http://www.w3.org/2000/svg" width="17837" height="100" viewBox="0 0 17837 100" preserveAspectRatio="none"><rect x="0" y="0" width="710" height="100" fill="rgb(133,70,150)"/><rect x="710" y="0" width="692" height="100" fill="rgb(119,96,119)"/><rect x="1402" y="0" width="1270" height="100" fill="rgb(119,108,123)"/><rect x="2672" y="0" width="937" height="100" fill="rgb(90,50,118)"/><rect x="3609" y="0" width="672" height="100" fill="rgb(60,90,150)"/><rect x="4281" y="0" width="1092" height="100" fill="rgb(133,106,48)"/><rect x="5373" y="0" width="875" height="100" fill="rgb(144,74,84)"/><rect x="6248" y="0" width="892" height="100" fill="rgb(121,60,106)"/><rect x="7140" y="0" width="632" height="100" fill="rgb(20,157,145)"/><rect x="7772" y="0" width="882" height="100" fill="rgb(130,54,153)"/><rect x="8654" y="0" width="453" height="100" fill="rgb(155,74,78)"/><rect x="9107" y="0" width="2342" height="100" fill="rgb(128,83,43)"/><rect x="11449" y="0" width="250" height="100" fill="rgb(110,210,160)"/><rect x="11699" y="0" width="498" height="100" fill="rgb(110,103,73)"/><rect x="12197" y="0" width="335" height="100" fill="rgb(128,83,43)"/><rect x="12532" y="0" width="662" height="100" fill="rgb(135,38,78)"/><rect x="13194" y="0" width="1218" height="100" fill="rgb(115,78,120)"/><rect x="14412" y="0" width="1460" height="100" fill="rgb(74,80,124)"/><rect x="15872" y="0" width="672" height="100" fill="rgb(122,38,122)"/><rect x="16544" y="0" width="803" height="100" fill="rgb(101,77,59)"/><rect x="17347" y="0" width="490" height="100" fill="rgb(106,119,105)"/></svg>
