<svg xmlns="http://www.w3.org/2000/svg" width="16116" height="100" viewBox="0 0 16116 100" preserveAspectRatio="none"><rect x="0" y="0" width="233" height="100" fill="rgb(155,74,78)"/><rect x="233" y="0" width="785" height="100" fill="rgb(93,77,87)"/><rect x="1018" y="0" width="273" height="100" fill="rgb(90,98,60)"/><rect x="1291" y="0" width="848" height="100" fill="rgb(200,87,50)"/><rect x="2139" y="0" width="435" height="100" fill="rgb(20,157,145)"/><rect x="2574" y="0" width="662" height="100" fill="rgb(60,145,93)"/><rect x="3236" y="0" width="513" height="100" fill="rgb(60,90,150)"/><rect x="3749" y="0" width="467" height="100" fill="rgb(144,78,140)"/><rect x="4216" y="0" width="270" height="100" fill="rgb(159,72,143)"/><rect x="4486" y="0" width="365" height="100" fill="rgb(180,63,145)"/><rect x="4851" y="0" width="672" height="100" fill="rgb(140,93,78)"/><rect x="5523" y="0" width="652" height="100" fill="rgb(144,74,84)"/><rect x="6175" y="0" width="443" height="100" fill="rgb(82,114,108)"/><rect x="6618" y="0" width="1098" height="100" fill="rgb(133,135,163)"/><rect x="7716" y="0" width="1163" height="100" fill="rgb(100,108,162)"/><rect x="8879" y="0" width="958" height="100" fill="rgb(128,83,43)"/><rect x="9837" y="0" width="100" height="100" fill="rgb(110,210,160)"/><rect x="9937" y="0" width="203" height="100" fill="rgb(128,83,43)"/><rect x="10140" y="0" width="535" height="100" fill="rgb(93,80,130)"/><rect x="10675" y="0" width="585" height="100" fill="rgb(135,38,78)"/><rect x="11260" y="0" width="755" height="100" fill="rgb(118,35,90)"/><rect x="12015" y="0" width="670" height="100" fill="rgb(93,97,158)"/><rect x="12685" y="0" width="95" height="100" fill="rgb(110,210,160)"/><rect x="12780" y="0" width="298" height="100" fill="rgb(93,97,158)"/><rect x="13078" y="0" width="973" height="100" fill="rgb(140,43,100)"/><rect x="14051" y="0" width="1107" height="100" fill="rgb(74,80,124)"/><rect x="15158" y="0" width="610" height="100" fill="rgb(133,70,150)"/><rect x="15768" y="0" width="348" height="100" fill="rgb(122,68,92)"/></svg>
