<svg xmlns="http://www.w3.org/2000/svg" width="13688" height="100" viewBox="0 0 13688 100" preserveAspectRatio="none"><rect x="0" y="0" width="563" height="100" fill="rgb(87,65,125)"/><rect x="563" y="0" width="442" height="100" fill="rgb(20,157,145)"/><rect x="1005" y="0" width="468" height="100" fill="rgb(144,78,140)"/><rect x="1473" y="0" width="615" height="100" fill="rgb(60,90,150)"/><rect x="2088" y="0" width="765" height="100" fill="rgb(130,54,153)"/><rect x="2853" y="0" width="283" height="100" fill="rgb(159,72,143)"/><rect x="3136" y="0" width="530" height="100" fill="rgb(180,63,145)"/><rect x="3666" y="0" width="830" height="100" fill="rgb(93,77,87)"/><rect x="4496" y="0" width="767" height="100" fill="rgb(144,74,84)"/><rect x="5263" y="0" width="547" height="100" fill="rgb(93,80,130)"/><rect x="5810" y="0" width="790" height="100" fill="rgb(93,97,158)"/><rect x="6600" y="0" width="387" height="100" fill="rgb(110,210,160)"/><rect x="6987" y="0" width="572" height="100" fill="rgb(93,97,158)"/><rect x="7559" y="0" width="1045" height="100" fill="rgb(107,80,130)"/><rect x="8604" y="0" width="707" height="100" fill="rgb(135,38,78)"/><rect x="9311" y="0" width="465" height="100" fill="rgb(82,114,108)"/><rect x="9776" y="0" width="967" height="100" fill="rgb(133,135,163)"/><rect x="10743" y="0" width="1427" height="100" fill="rgb(100,108,162)"/><rect x="12170" y="0" width="928" height="100" fill="rgb(132,53,102)"/><rect x="13098" y="0" width="590" height="100" fill="rgb(133,70,150)"/></svg>
