<svg xmlns="http://www.w3.org/2000/svg" width="15547" height="100" viewBox="0 0 15547 100" preserveAspectRatio="none"><rect x="0" y="0" width="398" height="100" fill="rgb(155,74,78)"/><rect x="398" y="0" width="945" height="100" fill="rgb(200,87,50)"/><rect x="1343" y="0" width="420" height="100" fill="rgb(20,157,145)"/><rect x="1763" y="0" width="980" height="100" fill="rgb(187,63,170)"/><rect x="2743" y="0" width="272" height="100" fill="rgb(90,98,60)"/><rect x="3015" y="0" width="888" height="100" fill="rgb(133,106,48)"/><rect x="3903" y="0" width="768" height="100" fill="rgb(144,74,84)"/><rect x="4671" y="0" width="1247" height="100" fill="rgb(106,65,116)"/><rect x="5918" y="0" width="290" height="100" fill="rgb(159,72,143)"/><rect x="6208" y="0" width="465" height="100" fill="rgb(180,63,145)"/><rect x="6673" y="0" width="788" height="100" fill="rgb(105,70,200)"/><rect x="7461" y="0" width="592" height="100" fill="rgb(119,96,119)"/><rect x="8053" y="0" width="1510" height="100" fill="rgb(128,83,43)"/><rect x="9563" y="0" width="977" height="100" fill="rgb(130,150,90)"/><rect x="10540" y="0" width="562" height="100" fill="rgb(110,103,73)"/><rect x="11102" y="0" width="270" height="100" fill="rgb(128,83,43)"/><rect x="11372" y="0" width="577" height="100" fill="rgb(135,38,78)"/><rect x="11949" y="0" width="847" height="100" fill="rgb(119,108,123)"/><rect x="12796" y="0" width="1095" height="100" fill="rgb(140,43,100)"/><rect x="13891" y="0" width="692" height="100" fill="rgb(122,38,122)"/><rect x="14583" y="0" width="452" height="100" fill="rgb(106,119,105)"/><rect x="15035" y="0" width="512" height="100" fill="rgb(133,70,150)"/></svg>
