<svg xmlns="http://www.w3.org/2000/svg" width="17458" height="100" viewBox="0 0 17458 100"><rect x="0" y="0" width="728" height="100" fill="rgb(87,65,125)"/><rect x="728" y="0" width="670" height="100" fill="rgb(60,90,150)"/><rect x="1398" y="0" width="762" height="100" fill="rgb(121,60,106)"/><rect x="2160" y="0" width="492" height="100" fill="rgb(20,157,145)"/><rect x="2652" y="0" width="1013" height="100" fill="rgb(133,106,48)"/><rect x="3665" y="0" width="857" height="100" fill="rgb(144,74,84)"/><rect x="4522" y="0" width="1020" height="100" fill="rgb(187,63,170)"/><rect x="5542" y="0" width="647" height="100" fill="rgb(119,96,119)"/><rect x="6189" y="0" width="1108" height="100" fill="rgb(106,65,116)"/><rect x="7297" y="0" width="398" height="100" fill="rgb(155,74,78)"/><rect x="7695" y="0" width="558" height="100" fill="rgb(82,114,108)"/><rect x="8253" y="0" width="802" height="100" fill="rgb(133,135,163)"/><rect x="9055" y="0" width="1115" height="100" fill="rgb(100,108,162)"/><rect x="10170" y="0" width="1177" height="100" fill="rgb(74,80,124)"/><rect x="11347" y="0" width="628" height="100" fill="rgb(135,38,78)"/><rect x="11975" y="0" width="768" height="100" fill="rgb(130,54,153)"/><rect x="12743" y="0" width="302" height="100" fill="rgb(159,72,143)"/><rect x="13045" y="0" width="523" height="100" fill="rgb(180,63,145)"/><rect x="13568" y="0" width="888" height="100" fill="rgb(93,77,87)"/><rect x="14456" y="0" width="618" height="100" fill="rgb(93,97,158)"/><rect x="15074" y="0" width="263" height="100" fill="rgb(110,210,160)"/><rect x="15337" y="0" width="252" height="100" fill="rgb(93,97,158)"/><rect x="15589" y="0" width="1132" height="100" fill="rgb(107,80,130)"/><rect x="16721" y="0" width="737" height="100" fill="rgb(122,38,122)"/></svg>
