<svg xmlns="http://www.w3.org/2000/svg" width="16412" height="100" viewBox="0 0 16412 100"><rect x="0" y="0" width="442" height="100" fill="rgb(155,74,78)"/><rect x="442" y="0" width="972" height="100" fill="rgb(200,87,50)"/><rect x="1414" y="0" width="478" height="100" fill="rgb(20,157,145)"/><rect x="1892" y="0" width="780" height="100" fill="rgb(60,145,93)"/><rect x="2672" y="0" width="587" height="100" fill="rgb(119,96,119)"/><rect x="3259" y="0" width="728" height="100" fill="rgb(122,60,121)"/><rect x="3987" y="0" width="708" height="100" fill="rgb(144,74,84)"/><rect x="4695" y="0" width="972" height="100" fill="rgb(133,106,48)"/><rect x="5667" y="0" width="1322" height="100" fill="rgb(93,97,158)"/><rect x="6989" y="0" width="542" height="100" fill="rgb(93,80,130)"/><rect x="7531" y="0" width="1117" height="100" fill="rgb(130,150,90)"/><rect x="8648" y="0" width="1223" height="100" fill="rgb(123,32,125)"/><rect x="9871" y="0" width="1388" height="100" fill="rgb(140,43,100)"/><rect x="11259" y="0" width="640" height="100" fill="rgb(135,38,78)"/><rect x="11899" y="0" width="915" height="100" fill="rgb(93,77,87)"/><rect x="12814" y="0" width="1255" height="100" fill="rgb(74,80,124)"/><rect x="14069" y="0" width="473" height="100" fill="rgb(110,103,73)"/><rect x="14542" y="0" width="607" height="100" fill="rgb(132,53,102)"/><rect x="15149" y="0" width="480" height="100" fill="rgb(106,65,116)"/><rect x="15629" y="0" width="365" height="100" fill="rgb(150,48,110)"/><rect x="15994" y="0" width="418" height="100" fill="rgb(122,68,92)"/></svg>
