<svg xmlns="http://www.w3.org/2000/svg" width="15303" height="100" viewBox="0 0 15303 100"><rect x="0" y="0" width="907" height="100" fill="rgb(133,106,48)"/><rect x="907" y="0" width="440" height="100" fill="rgb(20,157,145)"/><rect x="1347" y="0" width="807" height="100" fill="rgb(105,70,200)"/><rect x="2154" y="0" width="273" height="100" fill="rgb(90,98,60)"/><rect x="2427" y="0" width="682" height="100" fill="rgb(140,93,78)"/><rect x="3109" y="0" width="757" height="100" fill="rgb(144,74,84)"/><rect x="3866" y="0" width="452" height="100" fill="rgb(144,78,140)"/><rect x="4318" y="0" width="305" height="100" fill="rgb(159,72,143)"/><rect x="4623" y="0" width="472" height="100" fill="rgb(180,63,145)"/><rect x="5095" y="0" width="933" height="100" fill="rgb(187,63,170)"/><rect x="6028" y="0" width="592" height="100" fill="rgb(119,96,119)"/><rect x="6620" y="0" width="597" height="100" fill="rgb(93,80,130)"/><rect x="7217" y="0" width="622" height="100" fill="rgb(135,38,78)"/><rect x="7839" y="0" width="730" height="100" fill="rgb(60,145,93)"/><rect x="8569" y="0" width="1572" height="100" fill="rgb(128,83,43)"/><rect x="10141" y="0" width="1203" height="100" fill="rgb(110,103,73)"/><rect x="11344" y="0" width="845" height="100" fill="rgb(126,93,134)"/><rect x="12189" y="0" width="905" height="100" fill="rgb(130,150,90)"/><rect x="13094" y="0" width="1072" height="100" fill="rgb(123,32,125)"/><rect x="14166" y="0" width="93" height="100" fill="rgb(130,150,90)"/><rect x="14259" y="0" width="472" height="100" fill="rgb(106,119,105)"/><rect x="14731" y="0" width="572" height="100" fill="rgb(133,70,150)"/></svg>
