<svg xmlns="http://www.w3.org/2000/svg" width="13145" height="100" viewBox="0 0 13145 100" preserveAspectRatio="none"><rect x="0" y="0" width="415" height="100" fill="rgb(155,74,78)"/><rect x="415" y="0" width="728" height="100" fill="rgb(121,60,106)"/><rect x="1143" y="0" width="445" height="100" fill="rgb(20,157,145)"/><rect x="1588" y="0" width="948" height="100" fill="rgb(133,106,48)"/><rect x="2536" y="0" width="792" height="100" fill="rgb(144,74,84)"/><rect x="3328" y="0" width="1170" height="100" fill="rgb(106,65,116)"/><rect x="4498" y="0" width="252" height="100" fill="rgb(159,72,143)"/><rect x="4750" y="0" width="458" height="100" fill="rgb(180,63,145)"/><rect x="5208" y="0" width="945" height="100" fill="rgb(80,93,90)"/><rect x="6153" y="0" width="593" height="100" fill="rgb(119,96,119)"/><rect x="6746" y="0" width="1237" height="100" fill="rgb(115,78,120)"/><rect x="7983" y="0" width="693" height="100" fill="rgb(99,100,136)"/><rect x="8676" y="0" width="935" height="100" fill="rgb(107,80,130)"/><rect x="9611" y="0" width="83" height="100" fill="rgb(110,210,160)"/><rect x="9694" y="0" width="1252" height="100" fill="rgb(74,80,124)"/><rect x="10946" y="0" width="502" height="100" fill="rgb(110,103,73)"/><rect x="11448" y="0" width="737" height="100" fill="rgb(122,38,122)"/><rect x="12185" y="0" width="960" height="100" fill="rgb(123,32,125)"/></svg>
