<svg xmlns="http://www.w3.org/2000/svg" width="16631" height="100" viewBox="0 0 16631 100" preserveAspectRatio="none"><rect x="0" y="0" width="383" height="100" fill="rgb(155,74,78)"/><rect x="383" y="0" width="985" height="100" fill="rgb(200,87,50)"/><rect x="1368" y="0" width="500" height="100" fill="rgb(20,157,145)"/><rect x="1868" y="0" width="847" height="100" fill="rgb(121,60,106)"/><rect x="2715" y="0" width="578" height="100" fill="rgb(119,96,119)"/><rect x="3293" y="0" width="562" height="100" fill="rgb(144,78,140)"/><rect x="3855" y="0" width="292" height="100" fill="rgb(159,72,143)"/><rect x="4147" y="0" width="442" height="100" fill="rgb(180,63,145)"/><rect x="4589" y="0" width="937" height="100" fill="rgb(187,63,170)"/><rect x="5526" y="0" width="647" height="100" fill="rgb(60,90,150)"/><rect x="6173" y="0" width="743" height="100" fill="rgb(140,93,78)"/><rect x="6916" y="0" width="963" height="100" fill="rgb(144,74,84)"/><rect x="7879" y="0" width="595" height="100" fill="rgb(93,80,130)"/><rect x="8474" y="0" width="728" height="100" fill="rgb(135,38,78)"/><rect x="9202" y="0" width="478" height="100" fill="rgb(82,114,108)"/><rect x="9680" y="0" width="697" height="100" fill="rgb(133,135,163)"/><rect x="10377" y="0" width="1128" height="100" fill="rgb(100,108,162)"/><rect x="11505" y="0" width="1160" height="100" fill="rgb(93,97,158)"/><rect x="12665" y="0" width="853" height="100" fill="rgb(93,77,87)"/><rect x="13518" y="0" width="1430" height="100" fill="rgb(128,83,43)"/><rect x="14948" y="0" width="1103" height="100" fill="rgb(74,80,124)"/><rect x="16051" y="0" width="580" height="100" fill="rgb(133,70,150)"/></svg>
