<svg xmlns="http://www.w3.org/2000/svg" width="13086" height="100" viewBox="0 0 13086 100" preserveAspectRatio="none"><rect x="0" y="0" width="603" height="100" fill="rgb(87,65,125)"/><rect x="603" y="0" width="537" height="100" fill="rgb(60,90,150)"/><rect x="1140" y="0" width="813" height="100" fill="rgb(93,77,87)"/><rect x="1953" y="0" width="425" height="100" fill="rgb(20,157,145)"/><rect x="2378" y="0" width="743" height="100" fill="rgb(122,60,121)"/><rect x="3121" y="0" width="277" height="100" fill="rgb(159,72,143)"/><rect x="3398" y="0" width="492" height="100" fill="rgb(180,63,145)"/><rect x="3890" y="0" width="792" height="100" fill="rgb(133,106,48)"/><rect x="4682" y="0" width="732" height="100" fill="rgb(144,74,84)"/><rect x="5414" y="0" width="1037" height="100" fill="rgb(106,65,116)"/><rect x="6451" y="0" width="393" height="100" fill="rgb(155,74,78)"/><rect x="6844" y="0" width="417" height="100" fill="rgb(82,114,108)"/><rect x="7261" y="0" width="983" height="100" fill="rgb(133,135,163)"/><rect x="8244" y="0" width="970" height="100" fill="rgb(100,108,162)"/><rect x="9214" y="0" width="592" height="100" fill="rgb(135,38,78)"/><rect x="9806" y="0" width="1110" height="100" fill="rgb(107,80,130)"/><rect x="10916" y="0" width="1295" height="100" fill="rgb(74,80,124)"/><rect x="12211" y="0" width="875" height="100" fill="rgb(132,53,102)"/></svg>
