<svg xmlns="http://www.w3.org/2000/svg" width="16375" height="100" viewBox="0 0 16375 100" preserveAspectRatio="none"><rect x="0" y="0" width="583" height="100" fill="rgb(82,114,108)"/><rect x="583" y="0" width="650" height="100" fill="rgb(133,135,163)"/><rect x="1233" y="0" width="960" height="100" fill="rgb(100,108,162)"/><rect x="2193" y="0" width="545" height="100" fill="rgb(119,96,119)"/><rect x="2738" y="0" width="545" height="100" fill="rgb(144,78,140)"/><rect x="3283" y="0" width="490" height="100" fill="rgb(20,157,145)"/><rect x="3773" y="0" width="757" height="100" fill="rgb(121,60,106)"/><rect x="4530" y="0" width="802" height="100" fill="rgb(144,74,84)"/><rect x="5332" y="0" width="908" height="100" fill="rgb(133,106,48)"/><rect x="6240" y="0" width="1873" height="100" fill="rgb(128,83,43)"/><rect x="8113" y="0" width="640" height="100" fill="rgb(93,80,130)"/><rect x="8753" y="0" width="712" height="100" fill="rgb(135,38,78)"/><rect x="9465" y="0" width="1012" height="100" fill="rgb(80,93,90)"/><rect x="10477" y="0" width="1275" height="100" fill="rgb(93,97,158)"/><rect x="11752" y="0" width="1033" height="100" fill="rgb(74,80,124)"/><rect x="12785" y="0" width="918" height="100" fill="rgb(118,35,90)"/><rect x="13703" y="0" width="647" height="100" fill="rgb(122,38,122)"/><rect x="14350" y="0" width="725" height="100" fill="rgb(101,77,59)"/><rect x="15075" y="0" width="495" height="100" fill="rgb(106,119,105)"/><rect x="15570" y="0" width="805" height="100" fill="rgb(123,32,125)"/></svg>
