<svg xmlns="http://www.w3.org/2000/svg" width="18699" height="100" viewBox="0 0 18699 100"><rect x="0" y="0" width="638" height="100" fill="rgb(87,65,125)"/><rect x="638" y="0" width="503" height="100" fill="rgb(20,157,145)"/><rect x="1141" y="0" width="915" height="100" fill="rgb(106,65,116)"/><rect x="2056" y="0" width="600" height="100" fill="rgb(119,96,119)"/><rect x="2656" y="0" width="1212" height="100" fill="rgb(119,108,123)"/><rect x="3868" y="0" width="615" height="100" fill="rgb(60,90,150)"/><rect x="4483" y="0" width="687" height="100" fill="rgb(121,60,106)"/><rect x="5170" y="0" width="847" height="100" fill="rgb(144,74,84)"/><rect x="6017" y="0" width="797" height="100" fill="rgb(130,54,153)"/><rect x="6814" y="0" width="352" height="100" fill="rgb(155,74,78)"/><rect x="7166" y="0" width="1128" height="100" fill="rgb(130,150,90)"/><rect x="8294" y="0" width="1755" height="100" fill="rgb(115,78,120)"/><rect x="10049" y="0" width="1113" height="100" fill="rgb(93,97,158)"/><rect x="11162" y="0" width="520" height="100" fill="rgb(144,78,140)"/><rect x="11682" y="0" width="287" height="100" fill="rgb(159,72,143)"/><rect x="11969" y="0" width="472" height="100" fill="rgb(180,63,145)"/><rect x="12441" y="0" width="933" height="100" fill="rgb(80,93,90)"/><rect x="13374" y="0" width="630" height="100" fill="rgb(135,38,78)"/><rect x="14004" y="0" width="700" height="100" fill="rgb(122,60,121)"/><rect x="14704" y="0" width="1248" height="100" fill="rgb(74,80,124)"/><rect x="15952" y="0" width="1087" height="100" fill="rgb(107,80,130)"/><rect x="17039" y="0" width="688" height="100" fill="rgb(122,38,122)"/><rect x="17727" y="0" width="972" height="100" fill="rgb(100,108,162)"/></svg>
