<svg xmlns="http://www.w3.org/2000/svg" width="14590" height="100" viewBox="0 0 14590 100" preserveAspectRatio="none"><rect x="0" y="0" width="573" height="100" fill="rgb(119,96,119)"/><rect x="573" y="0" width="840" height="100" fill="rgb(200,87,50)"/><rect x="1413" y="0" width="267" height="100" fill="rgb(90,98,60)"/><rect x="1680" y="0" width="853" height="100" fill="rgb(187,63,170)"/><rect x="2533" y="0" width="588" height="100" fill="rgb(60,90,150)"/><rect x="3121" y="0" width="950" height="100" fill="rgb(80,93,90)"/><rect x="4071" y="0" width="760" height="100" fill="rgb(144,74,84)"/><rect x="4831" y="0" width="435" height="100" fill="rgb(144,78,140)"/><rect x="5266" y="0" width="273" height="100" fill="rgb(159,72,143)"/><rect x="5539" y="0" width="452" height="100" fill="rgb(180,63,145)"/><rect x="5991" y="0" width="760" height="100" fill="rgb(93,77,87)"/><rect x="6751" y="0" width="395" height="100" fill="rgb(155,74,78)"/><rect x="7146" y="0" width="665" height="100" fill="rgb(135,38,78)"/><rect x="7811" y="0" width="588" height="100" fill="rgb(93,80,130)"/><rect x="8399" y="0" width="675" height="100" fill="rgb(93,97,158)"/><rect x="9074" y="0" width="270" height="100" fill="rgb(110,210,160)"/><rect x="9344" y="0" width="440" height="100" fill="rgb(93,97,158)"/><rect x="9784" y="0" width="758" height="100" fill="rgb(118,35,90)"/><rect x="10542" y="0" width="1095" height="100" fill="rgb(130,150,90)"/><rect x="11637" y="0" width="892" height="100" fill="rgb(123,32,125)"/><rect x="12529" y="0" width="78" height="100" fill="rgb(130,150,90)"/><rect x="12607" y="0" width="42" height="100" fill="rgb(110,210,160)"/><rect x="12649" y="0" width="990" height="100" fill="rgb(74,80,124)"/><rect x="13639" y="0" width="533" height="100" fill="rgb(110,103,73)"/><rect x="14172" y="0" width="418" height="100" fill="rgb(122,68,92)"/></svg>
