<svg xmlns="http://www.w3.org/2000/svg" width="18300" height="100" viewBox="0 0 18300 100"><rect x="0" y="0" width="680" height="100" fill="rgb(87,65,125)"/><rect x="680" y="0" width="375" height="100" fill="rgb(90,98,60)"/><rect x="1055" y="0" width="1022" height="100" fill="rgb(187,63,170)"/><rect x="2077" y="0" width="513" height="100" fill="rgb(20,157,145)"/><rect x="2590" y="0" width="542" height="100" fill="rgb(144,78,140)"/><rect x="3132" y="0" width="633" height="100" fill="rgb(60,90,150)"/><rect x="3765" y="0" width="600" height="100" fill="rgb(93,80,130)"/><rect x="4365" y="0" width="292" height="100" fill="rgb(159,72,143)"/><rect x="4657" y="0" width="487" height="100" fill="rgb(180,63,145)"/><rect x="5144" y="0" width="958" height="100" fill="rgb(133,106,48)"/><rect x="6102" y="0" width="1937" height="100" fill="rgb(128,83,43)"/><rect x="8039" y="0" width="615" height="100" fill="rgb(110,103,73)"/><rect x="8654" y="0" width="658" height="100" fill="rgb(135,38,78)"/><rect x="9312" y="0" width="985" height="100" fill="rgb(80,93,90)"/><rect x="10297" y="0" width="543" height="100" fill="rgb(119,96,119)"/><rect x="10840" y="0" width="1135" height="100" fill="rgb(119,108,123)"/><rect x="11975" y="0" width="1240" height="100" fill="rgb(74,80,124)"/><rect x="13215" y="0" width="877" height="100" fill="rgb(118,35,90)"/><rect x="14092" y="0" width="492" height="100" fill="rgb(82,114,108)"/><rect x="14584" y="0" width="1300" height="100" fill="rgb(133,135,163)"/><rect x="15884" y="0" width="1103" height="100" fill="rgb(100,108,162)"/><rect x="16987" y="0" width="728" height="100" fill="rgb(122,38,122)"/><rect x="17715" y="0" width="585" height="100" fill="rgb(133,70,150)"/></svg>
