<svg xmlns="http://www.w3.org/2000/svg" width="17303" height="100" viewBox="0 0 17303 100" preserveAspectRatio="none"><rect x="0" y="0" width="613" height="100" fill="rgb(93,80,130)"/><rect x="613" y="0" width="340" height="100" fill="rgb(90,98,60)"/><rect x="953" y="0" width="898" height="100" fill="rgb(133,106,48)"/><rect x="1851" y="0" width="508" height="100" fill="rgb(20,157,145)"/><rect x="2359" y="0" width="847" height="100" fill="rgb(60,145,93)"/><rect x="3206" y="0" width="630" height="100" fill="rgb(60,90,150)"/><rect x="3836" y="0" width="1027" height="100" fill="rgb(106,65,116)"/><rect x="4863" y="0" width="887" height="100" fill="rgb(144,74,84)"/><rect x="5750" y="0" width="717" height="100" fill="rgb(122,60,121)"/><rect x="6467" y="0" width="288" height="100" fill="rgb(159,72,143)"/><rect x="6755" y="0" width="535" height="100" fill="rgb(180,63,145)"/><rect x="7290" y="0" width="590" height="100" fill="rgb(144,78,140)"/><rect x="7880" y="0" width="360" height="100" fill="rgb(155,74,78)"/><rect x="8240" y="0" width="982" height="100" fill="rgb(130,150,90)"/><rect x="9222" y="0" width="1195" height="100" fill="rgb(74,80,124)"/><rect x="10417" y="0" width="568" height="100" fill="rgb(119,96,119)"/><rect x="10985" y="0" width="740" height="100" fill="rgb(130,54,153)"/><rect x="11725" y="0" width="695" height="100" fill="rgb(135,38,78)"/><rect x="12420" y="0" width="1108" height="100" fill="rgb(200,87,50)"/><rect x="13528" y="0" width="605" height="100" fill="rgb(132,53,102)"/><rect x="14133" y="0" width="1320" height="100" fill="rgb(115,78,120)"/><rect x="15453" y="0" width="1080" height="100" fill="rgb(140,43,100)"/><rect x="16533" y="0" width="347" height="100" fill="rgb(150,48,110)"/><rect x="16880" y="0" width="423" height="100" fill="rgb(122,68,92)"/></svg>
