<svg xmlns="http://www.w3.org/2000/svg" width="15144" height="100" viewBox="0 0 15144 100"><rect x="0" y="0" width="550" height="100" fill="rgb(135,38,78)"/><rect x="550" y="0" width="972" height="100" fill="rgb(187,63,170)"/><rect x="1522" y="0" width="480" height="100" fill="rgb(119,96,119)"/><rect x="2002" y="0" width="460" height="100" fill="rgb(144,78,140)"/><rect x="2462" y="0" width="520" height="100" fill="rgb(60,90,150)"/><rect x="2982" y="0" width="680" height="100" fill="rgb(140,93,78)"/><rect x="3662" y="0" width="763" height="100" fill="rgb(144,74,84)"/><rect x="4425" y="0" width="785" height="100" fill="rgb(93,77,87)"/><rect x="5210" y="0" width="322" height="100" fill="rgb(159,72,143)"/><rect x="5532" y="0" width="445" height="100" fill="rgb(180,63,145)"/><rect x="5977" y="0" width="890" height="100" fill="rgb(80,93,90)"/><rect x="6867" y="0" width="353" height="100" fill="rgb(155,74,78)"/><rect x="7220" y="0" width="498" height="100" fill="rgb(110,103,73)"/><rect x="7718" y="0" width="413" height="100" fill="rgb(20,157,145)"/><rect x="8131" y="0" width="845" height="100" fill="rgb(133,106,48)"/><rect x="8976" y="0" width="707" height="100" fill="rgb(93,97,158)"/><rect x="9683" y="0" width="80" height="100" fill="rgb(110,210,160)"/><rect x="9763" y="0" width="313" height="100" fill="rgb(93,97,158)"/><rect x="10076" y="0" width="1220" height="100" fill="rgb(107,80,130)"/><rect x="11296" y="0" width="840" height="100" fill="rgb(90,50,118)"/><rect x="12136" y="0" width="1053" height="100" fill="rgb(74,80,124)"/><rect x="13189" y="0" width="563" height="100" fill="rgb(122,38,122)"/><rect x="13752" y="0" width="560" height="100" fill="rgb(132,53,102)"/><rect x="14312" y="0" width="527" height="100" fill="rgb(133,70,150)"/><rect x="14839" y="0" width="305" height="100" fill="rgb(150,48,110)"/></svg>
