<svg xmlns="http://www.w3.org/2000/svg" width="13992" height="100" viewBox="0 0 13992 100"><rect x="0" y="0" width="590" height="100" fill="rgb(119,96,119)"/><rect x="590" y="0" width="1103" height="100" fill="rgb(200,87,50)"/><rect x="1693" y="0" width="310" height="100" fill="rgb(90,98,60)"/><rect x="2003" y="0" width="1310" height="100" fill="rgb(119,108,123)"/><rect x="3313" y="0" width="637" height="100" fill="rgb(60,90,150)"/><rect x="3950" y="0" width="482" height="100" fill="rgb(144,78,140)"/><rect x="4432" y="0" width="795" height="100" fill="rgb(144,74,84)"/><rect x="5227" y="0" width="1047" height="100" fill="rgb(187,63,170)"/><rect x="6274" y="0" width="473" height="100" fill="rgb(20,157,145)"/><rect x="6747" y="0" width="773" height="100" fill="rgb(140,93,78)"/><rect x="7520" y="0" width="430" height="100" fill="rgb(155,74,78)"/><rect x="7950" y="0" width="673" height="100" fill="rgb(135,38,78)"/><rect x="8623" y="0" width="465" height="100" fill="rgb(130,150,90)"/><rect x="9088" y="0" width="1127" height="100" fill="rgb(123,32,125)"/><rect x="10215" y="0" width="103" height="100" fill="rgb(130,150,90)"/><rect x="10318" y="0" width="1252" height="100" fill="rgb(115,78,120)"/><rect x="11570" y="0" width="227" height="100" fill="rgb(110,210,160)"/><rect x="11797" y="0" width="470" height="100" fill="rgb(110,103,73)"/><rect x="12267" y="0" width="1142" height="100" fill="rgb(132,53,102)"/><rect x="13409" y="0" width="583" height="100" fill="rgb(133,70,150)"/></svg>
