<svg xmlns="http://www.w3.org/2000/svg" width="17200" height="100" viewBox="0 0 17200 100"><rect x="0" y="0" width="512" height="100" fill="rgb(93,80,130)"/><rect x="512" y="0" width="438" height="100" fill="rgb(20,157,145)"/><rect x="950" y="0" width="1032" height="100" fill="rgb(187,63,170)"/><rect x="1982" y="0" width="755" height="100" fill="rgb(144,74,84)"/><rect x="2737" y="0" width="708" height="100" fill="rgb(121,60,106)"/><rect x="3445" y="0" width="288" height="100" fill="rgb(159,72,143)"/><rect x="3733" y="0" width="390" height="100" fill="rgb(180,63,145)"/><rect x="4123" y="0" width="697" height="100" fill="rgb(60,145,93)"/><rect x="4820" y="0" width="527" height="100" fill="rgb(119,96,119)"/><rect x="5347" y="0" width="1023" height="100" fill="rgb(106,65,116)"/><rect x="6370" y="0" width="1247" height="100" fill="rgb(74,80,124)"/><rect x="7617" y="0" width="567" height="100" fill="rgb(135,38,78)"/><rect x="8184" y="0" width="1152" height="100" fill="rgb(119,108,123)"/><rect x="9336" y="0" width="1295" height="100" fill="rgb(107,80,130)"/><rect x="10631" y="0" width="678" height="100" fill="rgb(93,97,158)"/><rect x="11309" y="0" width="58" height="100" fill="rgb(110,210,160)"/><rect x="11367" y="0" width="648" height="100" fill="rgb(93,97,158)"/><rect x="12015" y="0" width="683" height="100" fill="rgb(122,60,121)"/><rect x="12698" y="0" width="653" height="100" fill="rgb(122,38,122)"/><rect x="13351" y="0" width="502" height="100" fill="rgb(82,114,108)"/><rect x="13853" y="0" width="1307" height="100" fill="rgb(133,135,163)"/><rect x="15160" y="0" width="1107" height="100" fill="rgb(100,108,162)"/><rect x="16267" y="0" width="498" height="100" fill="rgb(106,119,105)"/><rect x="16765" y="0" width="435" height="100" fill="rgb(110,103,73)"/></svg>
