<svg xmlns="http://www.w3.org/2000/svg" width="18193" height="100" viewBox="0 0 18193 100" preserveAspectRatio="none"><rect x="0" y="0" width="405" height="100" fill="rgb(155,74,78)"/><rect x="405" y="0" width="965" height="100" fill="rgb(93,77,87)"/><rect x="1370" y="0" width="352" height="100" fill="rgb(90,98,60)"/><rect x="1722" y="0" width="1022" height="100" fill="rgb(200,87,50)"/><rect x="2744" y="0" width="528" height="100" fill="rgb(20,157,145)"/><rect x="3272" y="0" width="725" height="100" fill="rgb(60,145,93)"/><rect x="3997" y="0" width="587" height="100" fill="rgb(60,90,150)"/><rect x="4584" y="0" width="543" height="100" fill="rgb(144,78,140)"/><rect x="5127" y="0" width="270" height="100" fill="rgb(159,72,143)"/><rect x="5397" y="0" width="410" height="100" fill="rgb(180,63,145)"/><rect x="5807" y="0" width="733" height="100" fill="rgb(140,93,78)"/><rect x="6540" y="0" width="782" height="100" fill="rgb(144,74,84)"/><rect x="7322" y="0" width="503" height="100" fill="rgb(82,114,108)"/><rect x="7825" y="0" width="1132" height="100" fill="rgb(133,135,163)"/><rect x="8957" y="0" width="1270" height="100" fill="rgb(100,108,162)"/><rect x="10227" y="0" width="988" height="100" fill="rgb(128,83,43)"/><rect x="11215" y="0" width="105" height="100" fill="rgb(110,210,160)"/><rect x="11320" y="0" width="268" height="100" fill="rgb(128,83,43)"/><rect x="11588" y="0" width="597" height="100" fill="rgb(93,80,130)"/><rect x="12185" y="0" width="667" height="100" fill="rgb(135,38,78)"/><rect x="12852" y="0" width="852" height="100" fill="rgb(118,35,90)"/><rect x="13704" y="0" width="670" height="100" fill="rgb(93,97,158)"/><rect x="14374" y="0" width="102" height="100" fill="rgb(110,210,160)"/><rect x="14476" y="0" width="290" height="100" fill="rgb(93,97,158)"/><rect x="14766" y="0" width="1018" height="100" fill="rgb(140,43,100)"/><rect x="15784" y="0" width="1162" height="100" fill="rgb(74,80,124)"/><rect x="16946" y="0" width="767" height="100" fill="rgb(133,70,150)"/><rect x="17713" y="0" width="480" height="100" fill="rgb(122,68,92)"/></svg>
