<svg xmlns="http://www.w3.org/2000/svg" width="14362" height="100" viewBox="0 0 14362 100" preserveAspectRatio="none"><rect x="0" y="0" width="202" height="100" fill="rgb(155,74,78)"/><rect x="202" y="0" width="1025" height="100" fill="rgb(131,120,128)"/><rect x="1227" y="0" width="775" height="100" fill="rgb(144,74,84)"/><rect x="2002" y="0" width="610" height="100" fill="rgb(40,30,120)"/><rect x="2612" y="0" width="437" height="100" fill="rgb(85,57,170)"/><rect x="3049" y="0" width="778" height="100" fill="rgb(133,106,48)"/><rect x="3827" y="0" width="763" height="100" fill="rgb(112,90,137)"/><rect x="4590" y="0" width="775" height="100" fill="rgb(105,70,200)"/><rect x="5365" y="0" width="2103" height="100" fill="rgb(128,83,43)"/><rect x="7468" y="0" width="778" height="100" fill="rgb(106,65,116)"/><rect x="8246" y="0" width="1222" height="100" fill="rgb(96,77,134)"/><rect x="9468" y="0" width="605" height="100" fill="rgb(135,38,78)"/><rect x="10073" y="0" width="702" height="100" fill="rgb(122,60,121)"/><rect x="10775" y="0" width="840" height="100" fill="rgb(74,80,124)"/><rect x="11615" y="0" width="340" height="100" fill="rgb(91,130,129)"/><rect x="11955" y="0" width="610" height="100" fill="rgb(74,80,124)"/><rect x="12565" y="0" width="625" height="100" fill="rgb(110,103,73)"/><rect x="13190" y="0" width="1172" height="100" fill="rgb(124,130,118)"/></svg>
