<svg xmlns="http://www.w3.org/2000/svg" width="15217" height="100" viewBox="0 0 15217 100"><rect x="0" y="0" width="478" height="100" fill="rgb(111,128,90)"/><rect x="478" y="0" width="750" height="100" fill="rgb(135,190,115)"/><rect x="1228" y="0" width="437" height="100" fill="rgb(85,57,170)"/><rect x="1665" y="0" width="698" height="100" fill="rgb(121,60,106)"/><rect x="2363" y="0" width="600" height="100" fill="rgb(47,125,140)"/><rect x="2963" y="0" width="572" height="100" fill="rgb(40,30,120)"/><rect x="3535" y="0" width="348" height="100" fill="rgb(159,72,143)"/><rect x="3883" y="0" width="435" height="100" fill="rgb(180,63,145)"/><rect x="4318" y="0" width="520" height="100" fill="rgb(144,78,140)"/><rect x="4838" y="0" width="262" height="100" fill="rgb(90,98,60)"/><rect x="5100" y="0" width="1087" height="100" fill="rgb(187,63,170)"/><rect x="6187" y="0" width="1572" height="100" fill="rgb(74,80,124)"/><rect x="7759" y="0" width="923" height="100" fill="rgb(106,65,116)"/><rect x="8682" y="0" width="1535" height="100" fill="rgb(96,77,134)"/><rect x="10217" y="0" width="853" height="100" fill="rgb(112,90,137)"/><rect x="11070" y="0" width="472" height="100" fill="rgb(130,150,90)"/><rect x="11542" y="0" width="1637" height="100" fill="rgb(123,32,125)"/><rect x="13179" y="0" width="188" height="100" fill="rgb(130,150,90)"/><rect x="13367" y="0" width="1360" height="100" fill="rgb(150,100,80)"/><rect x="14727" y="0" width="490" height="100" fill="rgb(106,119,105)"/></svg>
