<svg xmlns="http://www.w3.org/2000/svg" width="14734" height="100" viewBox="0 0 14734 100"><rect x="0" y="0" width="502" height="100" fill="rgb(40,30,120)"/><rect x="502" y="0" width="473" height="100" fill="rgb(20,157,145)"/><rect x="975" y="0" width="622" height="100" fill="rgb(47,60,127)"/><rect x="1597" y="0" width="347" height="100" fill="rgb(108,55,118)"/><rect x="1944" y="0" width="800" height="100" fill="rgb(93,77,87)"/><rect x="2744" y="0" width="573" height="100" fill="rgb(111,128,90)"/><rect x="3317" y="0" width="778" height="100" fill="rgb(122,60,121)"/><rect x="4095" y="0" width="355" height="100" fill="rgb(159,72,143)"/><rect x="4450" y="0" width="632" height="100" fill="rgb(180,63,145)"/><rect x="5082" y="0" width="918" height="100" fill="rgb(80,93,90)"/><rect x="6000" y="0" width="702" height="100" fill="rgb(119,96,119)"/><rect x="6702" y="0" width="803" height="100" fill="rgb(130,54,153)"/><rect x="7505" y="0" width="1020" height="100" fill="rgb(112,90,137)"/><rect x="8525" y="0" width="1270" height="100" fill="rgb(115,78,120)"/><rect x="9795" y="0" width="697" height="100" fill="rgb(110,210,160)"/><rect x="10492" y="0" width="1243" height="100" fill="rgb(83,132,85)"/><rect x="11735" y="0" width="1570" height="100" fill="rgb(140,43,100)"/><rect x="13305" y="0" width="802" height="100" fill="rgb(122,38,122)"/><rect x="14107" y="0" width="627" height="100" fill="rgb(102,120,44)"/></svg>
