<svg xmlns="http://www.w3.org/2000/svg" width="16680" height="100" viewBox="0 0 16680 100"><rect x="0" y="0" width="673" height="100" fill="rgb(35,190,45)"/><rect x="673" y="0" width="560" height="100" fill="rgb(123,78,150)"/><rect x="1233" y="0" width="1872" height="100" fill="rgb(200,87,50)"/><rect x="3105" y="0" width="555" height="100" fill="rgb(47,125,140)"/><rect x="3660" y="0" width="1062" height="100" fill="rgb(187,63,170)"/><rect x="4722" y="0" width="577" height="100" fill="rgb(111,128,90)"/><rect x="5299" y="0" width="647" height="100" fill="rgb(60,145,93)"/><rect x="5946" y="0" width="313" height="100" fill="rgb(120,127,100)"/><rect x="6259" y="0" width="558" height="100" fill="rgb(144,78,140)"/><rect x="6817" y="0" width="412" height="100" fill="rgb(155,74,78)"/><rect x="7229" y="0" width="707" height="100" fill="rgb(135,38,78)"/><rect x="7936" y="0" width="892" height="100" fill="rgb(133,106,48)"/><rect x="8828" y="0" width="1162" height="100" fill="rgb(112,90,137)"/><rect x="9990" y="0" width="1150" height="100" fill="rgb(128,83,43)"/><rect x="11140" y="0" width="1128" height="100" fill="rgb(124,130,118)"/><rect x="12268" y="0" width="143" height="100" fill="rgb(110,210,160)"/><rect x="12411" y="0" width="1553" height="100" fill="rgb(123,32,125)"/><rect x="13964" y="0" width="1033" height="100" fill="rgb(107,80,130)"/><rect x="14997" y="0" width="640" height="100" fill="rgb(128,83,43)"/><rect x="15637" y="0" width="483" height="100" fill="rgb(106,119,105)"/><rect x="16120" y="0" width="560" height="100" fill="rgb(133,70,150)"/></svg>
