<svg xmlns="http://www.w3.org/2000/svg" width="15096" height="100" viewBox="0 0 15096 100"><rect x="0" y="0" width="640" height="100" fill="rgb(35,190,45)"/><rect x="640" y="0" width="548" height="100" fill="rgb(123,78,150)"/><rect x="1188" y="0" width="1025" height="100" fill="rgb(187,63,170)"/><rect x="2213" y="0" width="498" height="100" fill="rgb(111,128,90)"/><rect x="2711" y="0" width="890" height="100" fill="rgb(133,106,48)"/><rect x="3601" y="0" width="345" height="100" fill="rgb(159,72,143)"/><rect x="3946" y="0" width="432" height="100" fill="rgb(180,63,145)"/><rect x="4378" y="0" width="578" height="100" fill="rgb(47,60,127)"/><rect x="4956" y="0" width="300" height="100" fill="rgb(120,127,100)"/><rect x="5256" y="0" width="485" height="100" fill="rgb(144,78,140)"/><rect x="5741" y="0" width="1730" height="100" fill="rgb(74,80,124)"/><rect x="7471" y="0" width="1100" height="100" fill="rgb(112,90,137)"/><rect x="8571" y="0" width="1240" height="100" fill="rgb(115,78,120)"/><rect x="9811" y="0" width="343" height="100" fill="rgb(110,210,160)"/><rect x="10154" y="0" width="623" height="100" fill="rgb(135,38,78)"/><rect x="10777" y="0" width="733" height="100" fill="rgb(130,54,153)"/><rect x="11510" y="0" width="510" height="100" fill="rgb(130,150,90)"/><rect x="12020" y="0" width="370" height="100" fill="rgb(100,80,130)"/><rect x="12390" y="0" width="950" height="100" fill="rgb(123,32,125)"/><rect x="13340" y="0" width="898" height="100" fill="rgb(132,53,102)"/><rect x="14238" y="0" width="858" height="100" fill="rgb(110,110,42)"/></svg>
