<svg xmlns="http://www.w3.org/2000/svg" width="14688" height="100" viewBox="0 0 14688 100"><rect x="0" y="0" width="1128" height="100" fill="rgb(200,87,50)"/><rect x="1128" y="0" width="448" height="100" fill="rgb(20,157,145)"/><rect x="1576" y="0" width="742" height="100" fill="rgb(135,190,115)"/><rect x="2318" y="0" width="457" height="100" fill="rgb(111,128,90)"/><rect x="2775" y="0" width="692" height="100" fill="rgb(92,85,114)"/><rect x="3467" y="0" width="287" height="100" fill="rgb(66,84,110)"/><rect x="3754" y="0" width="957" height="100" fill="rgb(187,63,170)"/><rect x="4711" y="0" width="628" height="100" fill="rgb(98,110,140)"/><rect x="5339" y="0" width="712" height="100" fill="rgb(106,65,116)"/><rect x="6051" y="0" width="1053" height="100" fill="rgb(96,77,134)"/><rect x="7104" y="0" width="757" height="100" fill="rgb(112,90,137)"/><rect x="7861" y="0" width="705" height="100" fill="rgb(35,190,45)"/><rect x="8566" y="0" width="598" height="100" fill="rgb(119,96,119)"/><rect x="9164" y="0" width="442" height="100" fill="rgb(82,114,108)"/><rect x="9606" y="0" width="888" height="100" fill="rgb(133,135,163)"/><rect x="10494" y="0" width="1040" height="100" fill="rgb(100,108,162)"/><rect x="11534" y="0" width="682" height="100" fill="rgb(122,38,122)"/><rect x="12216" y="0" width="882" height="100" fill="rgb(101,77,59)"/><rect x="13098" y="0" width="1123" height="100" fill="rgb(123,32,125)"/><rect x="14221" y="0" width="467" height="100" fill="rgb(106,119,105)"/></svg>
