<svg xmlns="http://www.w3.org/2000/svg" width="16484" height="100" viewBox="0 0 16484 100"><rect x="0" y="0" width="472" height="100" fill="rgb(82,114,108)"/><rect x="472" y="0" width="865" height="100" fill="rgb(133,135,163)"/><rect x="1337" y="0" width="1583" height="100" fill="rgb(100,108,162)"/><rect x="2920" y="0" width="423" height="100" fill="rgb(111,128,90)"/><rect x="3343" y="0" width="765" height="100" fill="rgb(133,106,48)"/><rect x="4108" y="0" width="512" height="100" fill="rgb(20,157,145)"/><rect x="4620" y="0" width="730" height="100" fill="rgb(121,60,106)"/><rect x="5350" y="0" width="642" height="100" fill="rgb(60,90,150)"/><rect x="5992" y="0" width="727" height="100" fill="rgb(135,190,115)"/><rect x="6719" y="0" width="708" height="100" fill="rgb(119,96,119)"/><rect x="7427" y="0" width="688" height="100" fill="rgb(135,38,78)"/><rect x="8115" y="0" width="1400" height="100" fill="rgb(200,87,50)"/><rect x="9515" y="0" width="442" height="100" fill="rgb(85,57,170)"/><rect x="9957" y="0" width="475" height="100" fill="rgb(144,78,140)"/><rect x="10432" y="0" width="863" height="100" fill="rgb(112,90,137)"/><rect x="11295" y="0" width="947" height="100" fill="rgb(106,65,116)"/><rect x="12242" y="0" width="720" height="100" fill="rgb(101,77,59)"/><rect x="12962" y="0" width="320" height="100" fill="rgb(123,32,125)"/><rect x="13282" y="0" width="102" height="100" fill="rgb(110,210,160)"/><rect x="13384" y="0" width="498" height="100" fill="rgb(110,103,73)"/><rect x="13882" y="0" width="1022" height="100" fill="rgb(107,80,130)"/><rect x="14904" y="0" width="738" height="100" fill="rgb(122,38,122)"/><rect x="15642" y="0" width="842" height="100" fill="rgb(110,110,42)"/></svg>
