<svg xmlns="http://www.w3.org/2000/svg" width="15502" height="100" viewBox="0 0 15502 100"><rect x="0" y="0" width="718" height="100" fill="rgb(35,190,45)"/><rect x="718" y="0" width="448" height="100" fill="rgb(20,157,145)"/><rect x="1166" y="0" width="553" height="100" fill="rgb(40,30,120)"/><rect x="1719" y="0" width="488" height="100" fill="rgb(47,125,140)"/><rect x="2207" y="0" width="778" height="100" fill="rgb(105,70,200)"/><rect x="2985" y="0" width="498" height="100" fill="rgb(111,128,90)"/><rect x="3483" y="0" width="1247" height="100" fill="rgb(131,120,128)"/><rect x="4730" y="0" width="678" height="100" fill="rgb(60,90,150)"/><rect x="5408" y="0" width="793" height="100" fill="rgb(133,106,48)"/><rect x="6201" y="0" width="750" height="100" fill="rgb(119,96,119)"/><rect x="6951" y="0" width="1043" height="100" fill="rgb(124,130,118)"/><rect x="7994" y="0" width="698" height="100" fill="rgb(135,38,78)"/><rect x="8692" y="0" width="740" height="100" fill="rgb(93,77,87)"/><rect x="9432" y="0" width="815" height="100" fill="rgb(112,90,137)"/><rect x="10247" y="0" width="1120" height="100" fill="rgb(115,78,120)"/><rect x="11367" y="0" width="332" height="100" fill="rgb(110,210,160)"/><rect x="11699" y="0" width="1055" height="100" fill="rgb(110,103,73)"/><rect x="12754" y="0" width="1435" height="100" fill="rgb(107,80,130)"/><rect x="14189" y="0" width="760" height="100" fill="rgb(122,38,122)"/><rect x="14949" y="0" width="553" height="100" fill="rgb(133,70,150)"/></svg>
