<svg xmlns="http://www.w3.org/2000/svg" width="14140" height="100" viewBox="0 0 14140 100"><rect x="0" y="0" width="432" height="100" fill="rgb(155,74,78)"/><rect x="432" y="0" width="1507" height="100" fill="rgb(200,87,50)"/><rect x="1939" y="0" width="262" height="100" fill="rgb(90,98,60)"/><rect x="2201" y="0" width="468" height="100" fill="rgb(85,57,170)"/><rect x="2669" y="0" width="897" height="100" fill="rgb(133,106,48)"/><rect x="3566" y="0" width="873" height="100" fill="rgb(144,74,84)"/><rect x="4439" y="0" width="575" height="100" fill="rgb(40,30,120)"/><rect x="5014" y="0" width="352" height="100" fill="rgb(159,72,143)"/><rect x="5366" y="0" width="508" height="100" fill="rgb(180,63,145)"/><rect x="5874" y="0" width="762" height="100" fill="rgb(105,70,200)"/><rect x="6636" y="0" width="655" height="100" fill="rgb(119,96,119)"/><rect x="7291" y="0" width="672" height="100" fill="rgb(35,190,45)"/><rect x="7963" y="0" width="868" height="100" fill="rgb(112,90,137)"/><rect x="8831" y="0" width="1078" height="100" fill="rgb(106,65,116)"/><rect x="9909" y="0" width="1202" height="100" fill="rgb(96,77,134)"/><rect x="11111" y="0" width="587" height="100" fill="rgb(123,78,150)"/><rect x="11698" y="0" width="1167" height="100" fill="rgb(130,150,90)"/><rect x="12865" y="0" width="862" height="100" fill="rgb(132,53,102)"/><rect x="13727" y="0" width="413" height="100" fill="rgb(122,68,92)"/></svg>
