<svg xmlns="http://www.w3.org/2000/svg" width="17961" height="100" viewBox="0 0 17961 100"><rect x="0" y="0" width="670" height="100" fill="rgb(35,190,45)"/><rect x="670" y="0" width="322" height="100" fill="rgb(66,84,110)"/><rect x="992" y="0" width="708" height="100" fill="rgb(121,60,106)"/><rect x="1700" y="0" width="492" height="100" fill="rgb(20,157,145)"/><rect x="2192" y="0" width="615" height="100" fill="rgb(47,60,127)"/><rect x="2807" y="0" width="565" height="100" fill="rgb(47,125,140)"/><rect x="3372" y="0" width="900" height="100" fill="rgb(133,106,48)"/><rect x="4272" y="0" width="517" height="100" fill="rgb(111,128,90)"/><rect x="4789" y="0" width="1117" height="100" fill="rgb(187,63,170)"/><rect x="5906" y="0" width="323" height="100" fill="rgb(120,127,100)"/><rect x="6229" y="0" width="1175" height="100" fill="rgb(106,65,116)"/><rect x="7404" y="0" width="1255" height="100" fill="rgb(96,77,134)"/><rect x="8659" y="0" width="682" height="100" fill="rgb(135,38,78)"/><rect x="9341" y="0" width="523" height="100" fill="rgb(144,78,140)"/><rect x="9864" y="0" width="958" height="100" fill="rgb(112,90,137)"/><rect x="10822" y="0" width="1535" height="100" fill="rgb(107,35,113)"/><rect x="12357" y="0" width="427" height="100" fill="rgb(110,210,160)"/><rect x="12784" y="0" width="1227" height="100" fill="rgb(83,132,85)"/><rect x="14011" y="0" width="1180" height="100" fill="rgb(90,50,118)"/><rect x="15191" y="0" width="460" height="100" fill="rgb(130,150,90)"/><rect x="15651" y="0" width="1225" height="100" fill="rgb(123,32,125)"/><rect x="16876" y="0" width="78" height="100" fill="rgb(130,150,90)"/><rect x="16954" y="0" width="475" height="100" fill="rgb(106,119,105)"/><rect x="17429" y="0" width="532" height="100" fill="rgb(133,70,150)"/></svg>
