<svg xmlns="http://www.w3.org/2000/svg" width="14150" height="100" viewBox="0 0 14150 100"><rect x="0" y="0" width="603" height="100" fill="rgb(119,96,119)"/><rect x="603" y="0" width="695" height="100" fill="rgb(92,85,114)"/><rect x="1298" y="0" width="438" height="100" fill="rgb(20,157,145)"/><rect x="1736" y="0" width="512" height="100" fill="rgb(144,78,140)"/><rect x="2248" y="0" width="475" height="100" fill="rgb(111,128,90)"/><rect x="2723" y="0" width="858" height="100" fill="rgb(93,77,87)"/><rect x="3581" y="0" width="445" height="100" fill="rgb(85,57,170)"/><rect x="4026" y="0" width="515" height="100" fill="rgb(47,60,127)"/><rect x="4541" y="0" width="762" height="100" fill="rgb(144,74,84)"/><rect x="5303" y="0" width="673" height="100" fill="rgb(106,65,116)"/><rect x="5976" y="0" width="1273" height="100" fill="rgb(96,77,134)"/><rect x="7249" y="0" width="682" height="100" fill="rgb(135,38,78)"/><rect x="7931" y="0" width="617" height="100" fill="rgb(35,190,45)"/><rect x="8548" y="0" width="928" height="100" fill="rgb(112,90,137)"/><rect x="9476" y="0" width="462" height="100" fill="rgb(110,210,160)"/><rect x="9938" y="0" width="1575" height="100" fill="rgb(83,132,85)"/><rect x="11513" y="0" width="1065" height="100" fill="rgb(140,43,100)"/><rect x="12578" y="0" width="610" height="100" fill="rgb(101,77,59)"/><rect x="13188" y="0" width="420" height="100" fill="rgb(106,119,105)"/><rect x="13608" y="0" width="542" height="100" fill="rgb(133,70,150)"/></svg>
