<svg xmlns="http://www.w3.org/2000/svg" width="18649" height="100" viewBox="0 0 18649 100"><rect x="0" y="0" width="653" height="100" fill="rgb(119,96,119)"/><rect x="653" y="0" width="1563" height="100" fill="rgb(200,87,50)"/><rect x="2216" y="0" width="415" height="100" fill="rgb(85,57,170)"/><rect x="2631" y="0" width="665" height="100" fill="rgb(105,70,200)"/><rect x="3296" y="0" width="510" height="100" fill="rgb(111,128,90)"/><rect x="3806" y="0" width="795" height="100" fill="rgb(93,77,87)"/><rect x="4601" y="0" width="337" height="100" fill="rgb(159,72,143)"/><rect x="4938" y="0" width="540" height="100" fill="rgb(180,63,145)"/><rect x="5478" y="0" width="740" height="100" fill="rgb(92,85,114)"/><rect x="6218" y="0" width="1550" height="100" fill="rgb(74,80,124)"/><rect x="7768" y="0" width="497" height="100" fill="rgb(82,114,108)"/><rect x="8265" y="0" width="673" height="100" fill="rgb(133,135,163)"/><rect x="8938" y="0" width="1520" height="100" fill="rgb(100,108,162)"/><rect x="10458" y="0" width="712" height="100" fill="rgb(135,38,78)"/><rect x="11170" y="0" width="513" height="100" fill="rgb(144,78,140)"/><rect x="11683" y="0" width="555" height="100" fill="rgb(123,78,150)"/><rect x="12238" y="0" width="378" height="100" fill="rgb(200,137,120)"/><rect x="12616" y="0" width="897" height="100" fill="rgb(112,90,137)"/><rect x="13513" y="0" width="1052" height="100" fill="rgb(115,78,120)"/><rect x="14565" y="0" width="325" height="100" fill="rgb(175,10,40)"/><rect x="14890" y="0" width="923" height="100" fill="rgb(107,80,130)"/><rect x="15813" y="0" width="592" height="100" fill="rgb(124,130,118)"/><rect x="16405" y="0" width="1407" height="100" fill="rgb(150,100,80)"/><rect x="17812" y="0" width="837" height="100" fill="rgb(132,53,102)"/></svg>
