<svg xmlns="http://www.w3.org/2000/svg" width="13173" height="100" viewBox="0 0 13173 100" preserveAspectRatio="none"><rect x="0" y="0" width="522" height="100" fill="rgb(35,190,45)"/><rect x="522" y="0" width="300" height="100" fill="rgb(66,84,110)"/><rect x="822" y="0" width="660" height="100" fill="rgb(122,60,121)"/><rect x="1482" y="0" width="470" height="100" fill="rgb(20,157,145)"/><rect x="1952" y="0" width="825" height="100" fill="rgb(133,106,48)"/><rect x="2777" y="0" width="548" height="100" fill="rgb(60,90,150)"/><rect x="3325" y="0" width="845" height="100" fill="rgb(93,77,87)"/><rect x="4170" y="0" width="822" height="100" fill="rgb(112,90,137)"/><rect x="4992" y="0" width="582" height="100" fill="rgb(40,30,120)"/><rect x="5574" y="0" width="508" height="100" fill="rgb(123,78,150)"/><rect x="6082" y="0" width="1073" height="100" fill="rgb(131,120,128)"/><rect x="7155" y="0" width="1453" height="100" fill="rgb(74,80,124)"/><rect x="8608" y="0" width="482" height="100" fill="rgb(110,210,160)"/><rect x="9090" y="0" width="1243" height="100" fill="rgb(115,78,120)"/><rect x="10333" y="0" width="685" height="100" fill="rgb(135,38,78)"/><rect x="11018" y="0" width="1242" height="100" fill="rgb(140,43,100)"/><rect x="12260" y="0" width="913" height="100" fill="rgb(132,53,102)"/></svg>
