<svg xmlns="http://www.w3.org/2000/svg" width="13740" height="100" viewBox="0 0 13740 100"><rect x="0" y="0" width="410" height="100" fill="rgb(155,74,78)"/><rect x="410" y="0" width="868" height="100" fill="rgb(131,120,128)"/><rect x="1278" y="0" width="817" height="100" fill="rgb(144,74,84)"/><rect x="2095" y="0" width="1210" height="100" fill="rgb(200,87,50)"/><rect x="3305" y="0" width="465" height="100" fill="rgb(85,57,170)"/><rect x="3770" y="0" width="928" height="100" fill="rgb(187,63,170)"/><rect x="4698" y="0" width="488" height="100" fill="rgb(111,128,90)"/><rect x="5186" y="0" width="813" height="100" fill="rgb(135,190,115)"/><rect x="5999" y="0" width="692" height="100" fill="rgb(119,96,119)"/><rect x="6691" y="0" width="825" height="100" fill="rgb(112,90,137)"/><rect x="7516" y="0" width="860" height="100" fill="rgb(106,65,116)"/><rect x="8376" y="0" width="745" height="100" fill="rgb(96,77,134)"/><rect x="9121" y="0" width="518" height="100" fill="rgb(123,78,150)"/><rect x="9639" y="0" width="695" height="100" fill="rgb(92,85,114)"/><rect x="10334" y="0" width="692" height="100" fill="rgb(135,38,78)"/><rect x="11026" y="0" width="1043" height="100" fill="rgb(124,130,118)"/><rect x="12069" y="0" width="1263" height="100" fill="rgb(150,100,80)"/><rect x="13332" y="0" width="408" height="100" fill="rgb(122,68,92)"/></svg>
