<svg xmlns="http://www.w3.org/2000/svg" width="16058" height="100" viewBox="0 0 16058 100"><rect x="0" y="0" width="990" height="100" fill="rgb(131,120,128)"/><rect x="990" y="0" width="573" height="100" fill="rgb(47,125,140)"/><rect x="1563" y="0" width="687" height="100" fill="rgb(121,60,106)"/><rect x="2250" y="0" width="322" height="100" fill="rgb(108,55,118)"/><rect x="2572" y="0" width="727" height="100" fill="rgb(105,70,200)"/><rect x="3299" y="0" width="478" height="100" fill="rgb(20,157,145)"/><rect x="3777" y="0" width="803" height="100" fill="rgb(135,190,115)"/><rect x="4580" y="0" width="322" height="100" fill="rgb(159,72,143)"/><rect x="4902" y="0" width="445" height="100" fill="rgb(180,63,145)"/><rect x="5347" y="0" width="555" height="100" fill="rgb(144,78,140)"/><rect x="5902" y="0" width="438" height="100" fill="rgb(155,74,78)"/><rect x="6340" y="0" width="1037" height="100" fill="rgb(106,65,116)"/><rect x="7377" y="0" width="1115" height="100" fill="rgb(96,77,134)"/><rect x="8492" y="0" width="880" height="100" fill="rgb(112,90,137)"/><rect x="9372" y="0" width="1388" height="100" fill="rgb(107,35,113)"/><rect x="10760" y="0" width="523" height="100" fill="rgb(110,210,160)"/><rect x="11283" y="0" width="1492" height="100" fill="rgb(83,132,85)"/><rect x="12775" y="0" width="1062" height="100" fill="rgb(107,80,130)"/><rect x="13837" y="0" width="425" height="100" fill="rgb(83,132,85)"/><rect x="14262" y="0" width="548" height="100" fill="rgb(110,103,73)"/><rect x="14810" y="0" width="838" height="100" fill="rgb(122,38,122)"/><rect x="15648" y="0" width="410" height="100" fill="rgb(122,68,92)"/></svg>
