<svg xmlns="http://www.w3.org/2000/svg" width="14516" height="100" viewBox="0 0 14516 100"><rect x="0" y="0" width="508" height="100" fill="rgb(111,128,90)"/><rect x="508" y="0" width="512" height="100" fill="rgb(40,30,120)"/><rect x="1020" y="0" width="275" height="100" fill="rgb(90,98,60)"/><rect x="1295" y="0" width="692" height="100" fill="rgb(121,60,106)"/><rect x="1987" y="0" width="785" height="100" fill="rgb(144,74,84)"/><rect x="2772" y="0" width="878" height="100" fill="rgb(105,70,200)"/><rect x="3650" y="0" width="352" height="100" fill="rgb(159,72,143)"/><rect x="4002" y="0" width="350" height="100" fill="rgb(180,63,145)"/><rect x="4352" y="0" width="622" height="100" fill="rgb(130,54,153)"/><rect x="4974" y="0" width="785" height="100" fill="rgb(112,90,137)"/><rect x="5759" y="0" width="523" height="100" fill="rgb(144,78,140)"/><rect x="6282" y="0" width="632" height="100" fill="rgb(119,96,119)"/><rect x="6914" y="0" width="858" height="100" fill="rgb(106,65,116)"/><rect x="7772" y="0" width="1097" height="100" fill="rgb(96,77,134)"/><rect x="8869" y="0" width="707" height="100" fill="rgb(135,38,78)"/><rect x="9576" y="0" width="965" height="100" fill="rgb(124,130,118)"/><rect x="10541" y="0" width="948" height="100" fill="rgb(128,83,43)"/><rect x="11489" y="0" width="410" height="100" fill="rgb(110,210,160)"/><rect x="11899" y="0" width="1057" height="100" fill="rgb(107,80,130)"/><rect x="12956" y="0" width="1008" height="100" fill="rgb(128,83,43)"/><rect x="13964" y="0" width="552" height="100" fill="rgb(133,70,150)"/></svg>
