<svg xmlns="http://www.w3.org/2000/svg" width="16152" height="100" viewBox="0 0 16152 100" preserveAspectRatio="none"><rect x="0" y="0" width="705" height="100" fill="rgb(119,96,119)"/><rect x="705" y="0" width="1525" height="100" fill="rgb(200,87,50)"/><rect x="2230" y="0" width="258" height="100" fill="rgb(90,98,60)"/><rect x="2488" y="0" width="360" height="100" fill="rgb(200,137,120)"/><rect x="2848" y="0" width="512" height="100" fill="rgb(40,30,120)"/><rect x="3360" y="0" width="317" height="100" fill="rgb(120,127,100)"/><rect x="3677" y="0" width="553" height="100" fill="rgb(144,78,140)"/><rect x="4230" y="0" width="853" height="100" fill="rgb(144,74,84)"/><rect x="5083" y="0" width="547" height="100" fill="rgb(47,60,127)"/><rect x="5630" y="0" width="543" height="100" fill="rgb(111,128,90)"/><rect x="6173" y="0" width="730" height="100" fill="rgb(35,190,45)"/><rect x="6903" y="0" width="695" height="100" fill="rgb(135,38,78)"/><rect x="7598" y="0" width="743" height="100" fill="rgb(80,93,90)"/><rect x="8341" y="0" width="643" height="100" fill="rgb(60,90,150)"/><rect x="8984" y="0" width="1045" height="100" fill="rgb(124,130,118)"/><rect x="10029" y="0" width="862" height="100" fill="rgb(112,90,137)"/><rect x="10891" y="0" width="1180" height="100" fill="rgb(115,78,120)"/><rect x="12071" y="0" width="63" height="100" fill="rgb(110,210,160)"/><rect x="12134" y="0" width="1673" height="100" fill="rgb(123,32,125)"/><rect x="13807" y="0" width="845" height="100" fill="rgb(101,77,59)"/><rect x="14652" y="0" width="732" height="100" fill="rgb(122,38,122)"/><rect x="15384" y="0" width="768" height="100" fill="rgb(110,110,42)"/></svg>
