<svg xmlns="http://www.w3.org/2000/svg" width="17067" height="100" viewBox="0 0 17067 100"><rect x="0" y="0" width="417" height="100" fill="rgb(155,74,78)"/><rect x="417" y="0" width="678" height="100" fill="rgb(121,60,106)"/><rect x="1095" y="0" width="585" height="100" fill="rgb(60,90,150)"/><rect x="1680" y="0" width="693" height="100" fill="rgb(135,190,115)"/><rect x="2373" y="0" width="862" height="100" fill="rgb(144,74,84)"/><rect x="3235" y="0" width="715" height="100" fill="rgb(92,85,114)"/><rect x="3950" y="0" width="523" height="100" fill="rgb(47,125,140)"/><rect x="4473" y="0" width="812" height="100" fill="rgb(105,70,200)"/><rect x="5285" y="0" width="430" height="100" fill="rgb(85,57,170)"/><rect x="5715" y="0" width="563" height="100" fill="rgb(40,30,120)"/><rect x="6278" y="0" width="340" height="100" fill="rgb(159,72,143)"/><rect x="6618" y="0" width="483" height="100" fill="rgb(180,63,145)"/><rect x="7101" y="0" width="1337" height="100" fill="rgb(200,87,50)"/><rect x="8438" y="0" width="667" height="100" fill="rgb(135,38,78)"/><rect x="9105" y="0" width="507" height="100" fill="rgb(144,78,140)"/><rect x="9612" y="0" width="853" height="100" fill="rgb(112,90,137)"/><rect x="10465" y="0" width="973" height="100" fill="rgb(106,65,116)"/><rect x="11438" y="0" width="1118" height="100" fill="rgb(96,77,134)"/><rect x="12556" y="0" width="595" height="100" fill="rgb(123,78,150)"/><rect x="13151" y="0" width="885" height="100" fill="rgb(110,110,42)"/><rect x="14036" y="0" width="657" height="100" fill="rgb(175,10,40)"/><rect x="14693" y="0" width="1017" height="100" fill="rgb(107,80,130)"/><rect x="15710" y="0" width="810" height="100" fill="rgb(122,38,122)"/><rect x="16520" y="0" width="547" height="100" fill="rgb(102,120,44)"/></svg>
