<svg xmlns="http://www.w3.org/2000/svg" width="15290" height="100" viewBox="0 0 15290 100" preserveAspectRatio="none"><rect x="0" y="0" width="668" height="100" fill="rgb(35,190,45)"/><rect x="668" y="0" width="262" height="100" fill="rgb(66,84,110)"/><rect x="930" y="0" width="887" height="100" fill="rgb(133,106,48)"/><rect x="1817" y="0" width="453" height="100" fill="rgb(20,157,145)"/><rect x="2270" y="0" width="695" height="100" fill="rgb(105,70,200)"/><rect x="2965" y="0" width="533" height="100" fill="rgb(47,125,140)"/><rect x="3498" y="0" width="705" height="100" fill="rgb(121,60,106)"/><rect x="4203" y="0" width="505" height="100" fill="rgb(111,128,90)"/><rect x="4708" y="0" width="988" height="100" fill="rgb(131,120,128)"/><rect x="5696" y="0" width="1372" height="100" fill="rgb(74,80,124)"/><rect x="7068" y="0" width="653" height="100" fill="rgb(135,38,78)"/><rect x="7721" y="0" width="490" height="100" fill="rgb(144,78,140)"/><rect x="8211" y="0" width="850" height="100" fill="rgb(112,90,137)"/><rect x="9061" y="0" width="357" height="100" fill="rgb(200,137,120)"/><rect x="9418" y="0" width="1025" height="100" fill="rgb(124,130,118)"/><rect x="10443" y="0" width="903" height="100" fill="rgb(128,83,43)"/><rect x="11346" y="0" width="428" height="100" fill="rgb(110,210,160)"/><rect x="11774" y="0" width="1397" height="100" fill="rgb(123,32,125)"/><rect x="13171" y="0" width="1047" height="100" fill="rgb(90,50,118)"/><rect x="14218" y="0" width="662" height="100" fill="rgb(128,83,43)"/><rect x="14880" y="0" width="410" height="100" fill="rgb(122,68,92)"/></svg>
