<svg xmlns="http://www.w3.org/2000/svg" width="17034" height="100" viewBox="0 0 17034 100" preserveAspectRatio="none"><rect x="0" y="0" width="452" height="100" fill="rgb(155,74,78)"/><rect x="452" y="0" width="1703" height="100" fill="rgb(200,87,50)"/><rect x="2155" y="0" width="465" height="100" fill="rgb(85,57,170)"/><rect x="2620" y="0" width="827" height="100" fill="rgb(105,70,200)"/><rect x="3447" y="0" width="860" height="100" fill="rgb(144,74,84)"/><rect x="4307" y="0" width="1087" height="100" fill="rgb(187,63,170)"/><rect x="5394" y="0" width="340" height="100" fill="rgb(120,127,100)"/><rect x="5734" y="0" width="855" height="100" fill="rgb(135,190,115)"/><rect x="6589" y="0" width="1395" height="100" fill="rgb(74,80,124)"/><rect x="7984" y="0" width="682" height="100" fill="rgb(135,38,78)"/><rect x="8666" y="0" width="803" height="100" fill="rgb(92,85,114)"/><rect x="9469" y="0" width="1020" height="100" fill="rgb(112,90,137)"/><rect x="10489" y="0" width="1193" height="100" fill="rgb(124,130,118)"/><rect x="11682" y="0" width="935" height="100" fill="rgb(128,83,43)"/><rect x="12617" y="0" width="1205" height="100" fill="rgb(110,110,42)"/><rect x="13822" y="0" width="605" height="100" fill="rgb(110,210,160)"/><rect x="14427" y="0" width="722" height="100" fill="rgb(110,103,73)"/><rect x="15149" y="0" width="890" height="100" fill="rgb(67,48,130)"/><rect x="16039" y="0" width="995" height="100" fill="rgb(128,83,43)"/></svg>
