<svg xmlns="http://www.w3.org/2000/svg" width="13952" height="100" viewBox="0 0 13952 100"><rect x="0" y="0" width="572" height="100" fill="rgb(93,80,130)"/><rect x="572" y="0" width="447" height="100" fill="rgb(85,57,170)"/><rect x="1019" y="0" width="705" height="100" fill="rgb(92,85,114)"/><rect x="1724" y="0" width="462" height="100" fill="rgb(20,157,145)"/><rect x="2186" y="0" width="728" height="100" fill="rgb(121,60,106)"/><rect x="2914" y="0" width="357" height="100" fill="rgb(159,72,143)"/><rect x="3271" y="0" width="413" height="100" fill="rgb(180,63,145)"/><rect x="3684" y="0" width="762" height="100" fill="rgb(122,60,121)"/><rect x="4446" y="0" width="803" height="100" fill="rgb(112,90,137)"/><rect x="5249" y="0" width="827" height="100" fill="rgb(133,106,48)"/><rect x="6076" y="0" width="387" height="100" fill="rgb(200,137,120)"/><rect x="6463" y="0" width="590" height="100" fill="rgb(135,38,78)"/><rect x="7053" y="0" width="1170" height="100" fill="rgb(74,80,124)"/><rect x="8223" y="0" width="493" height="100" fill="rgb(144,78,140)"/><rect x="8716" y="0" width="165" height="100" fill="rgb(53,108,92)"/><rect x="8881" y="0" width="1088" height="100" fill="rgb(128,83,43)"/><rect x="9969" y="0" width="725" height="100" fill="rgb(110,210,160)"/><rect x="10694" y="0" width="758" height="100" fill="rgb(83,132,85)"/><rect x="11452" y="0" width="1180" height="100" fill="rgb(90,50,118)"/><rect x="12632" y="0" width="742" height="100" fill="rgb(128,83,43)"/><rect x="13374" y="0" width="578" height="100" fill="rgb(102,120,44)"/></svg>
