<svg xmlns="http://www.w3.org/2000/svg" width="14398" height="100" viewBox="0 0 14398 100"><rect x="0" y="0" width="607" height="100" fill="rgb(119,96,119)"/><rect x="607" y="0" width="552" height="100" fill="rgb(35,190,45)"/><rect x="1159" y="0" width="717" height="100" fill="rgb(98,110,140)"/><rect x="1876" y="0" width="515" height="100" fill="rgb(40,30,120)"/><rect x="2391" y="0" width="257" height="100" fill="rgb(90,98,60)"/><rect x="2648" y="0" width="290" height="100" fill="rgb(66,84,110)"/><rect x="2938" y="0" width="688" height="100" fill="rgb(105,70,200)"/><rect x="3626" y="0" width="895" height="100" fill="rgb(144,74,84)"/><rect x="4521" y="0" width="935" height="100" fill="rgb(131,120,128)"/><rect x="5456" y="0" width="437" height="100" fill="rgb(155,74,78)"/><rect x="5893" y="0" width="887" height="100" fill="rgb(106,65,116)"/><rect x="6780" y="0" width="1137" height="100" fill="rgb(96,77,134)"/><rect x="7917" y="0" width="510" height="100" fill="rgb(123,78,150)"/><rect x="8427" y="0" width="787" height="100" fill="rgb(93,77,87)"/><rect x="9214" y="0" width="868" height="100" fill="rgb(112,90,137)"/><rect x="10082" y="0" width="445" height="100" fill="rgb(130,150,90)"/><rect x="10527" y="0" width="1463" height="100" fill="rgb(123,32,125)"/><rect x="11990" y="0" width="828" height="100" fill="rgb(140,43,100)"/><rect x="12818" y="0" width="155" height="100" fill="rgb(130,150,90)"/><rect x="12973" y="0" width="473" height="100" fill="rgb(106,119,105)"/><rect x="13446" y="0" width="952" height="100" fill="rgb(124,130,118)"/></svg>
