<svg xmlns="http://www.w3.org/2000/svg" width="17155" height="100" viewBox="0 0 17155 100"><rect x="0" y="0" width="423" height="100" fill="rgb(155,74,78)"/><rect x="423" y="0" width="715" height="100" fill="rgb(35,190,45)"/><rect x="1138" y="0" width="295" height="100" fill="rgb(66,84,110)"/><rect x="1433" y="0" width="783" height="100" fill="rgb(105,70,200)"/><rect x="2216" y="0" width="528" height="100" fill="rgb(47,125,140)"/><rect x="2744" y="0" width="1043" height="100" fill="rgb(187,63,170)"/><rect x="3787" y="0" width="338" height="100" fill="rgb(159,72,143)"/><rect x="4125" y="0" width="437" height="100" fill="rgb(180,63,145)"/><rect x="4562" y="0" width="652" height="100" fill="rgb(40,30,120)"/><rect x="5214" y="0" width="578" height="100" fill="rgb(123,78,150)"/><rect x="5792" y="0" width="787" height="100" fill="rgb(130,54,153)"/><rect x="6579" y="0" width="683" height="100" fill="rgb(119,96,119)"/><rect x="7262" y="0" width="568" height="100" fill="rgb(93,80,130)"/><rect x="7830" y="0" width="818" height="100" fill="rgb(112,90,137)"/><rect x="8648" y="0" width="1320" height="100" fill="rgb(200,87,50)"/><rect x="9968" y="0" width="658" height="100" fill="rgb(135,38,78)"/><rect x="10626" y="0" width="767" height="100" fill="rgb(93,77,87)"/><rect x="11393" y="0" width="1088" height="100" fill="rgb(115,78,120)"/><rect x="12481" y="0" width="387" height="100" fill="rgb(175,10,40)"/><rect x="12868" y="0" width="1087" height="100" fill="rgb(107,80,130)"/><rect x="13955" y="0" width="418" height="100" fill="rgb(110,210,160)"/><rect x="14373" y="0" width="1228" height="100" fill="rgb(123,32,125)"/><rect x="15601" y="0" width="757" height="100" fill="rgb(122,38,122)"/><rect x="16358" y="0" width="797" height="100" fill="rgb(110,110,42)"/></svg>
