<svg xmlns="http://www.w3.org/2000/svg" width="14803" height="100" viewBox="0 0 14803 100"><rect x="0" y="0" width="468" height="100" fill="rgb(82,114,108)"/><rect x="468" y="0" width="762" height="100" fill="rgb(133,135,163)"/><rect x="1230" y="0" width="1295" height="100" fill="rgb(100,108,162)"/><rect x="2525" y="0" width="435" height="100" fill="rgb(20,157,145)"/><rect x="2960" y="0" width="508" height="100" fill="rgb(144,78,140)"/><rect x="3468" y="0" width="335" height="100" fill="rgb(108,55,118)"/><rect x="3803" y="0" width="785" height="100" fill="rgb(133,106,48)"/><rect x="4588" y="0" width="662" height="100" fill="rgb(60,90,150)"/><rect x="5250" y="0" width="703" height="100" fill="rgb(105,70,200)"/><rect x="5953" y="0" width="362" height="100" fill="rgb(200,137,120)"/><rect x="6315" y="0" width="738" height="100" fill="rgb(119,96,119)"/><rect x="7053" y="0" width="702" height="100" fill="rgb(35,190,45)"/><rect x="7755" y="0" width="548" height="100" fill="rgb(123,78,150)"/><rect x="8303" y="0" width="728" height="100" fill="rgb(130,54,153)"/><rect x="9031" y="0" width="942" height="100" fill="rgb(112,90,137)"/><rect x="9973" y="0" width="605" height="100" fill="rgb(83,132,85)"/><rect x="10578" y="0" width="360" height="100" fill="rgb(110,210,160)"/><rect x="10938" y="0" width="957" height="100" fill="rgb(123,32,125)"/><rect x="11895" y="0" width="1113" height="100" fill="rgb(90,50,118)"/><rect x="13008" y="0" width="922" height="100" fill="rgb(132,53,102)"/><rect x="13930" y="0" width="873" height="100" fill="rgb(110,110,42)"/></svg>
