<svg xmlns="http://www.w3.org/2000/svg" width="19072" height="100" viewBox="0 0 19072 100"><rect x="0" y="0" width="527" height="100" fill="rgb(111,128,90)"/><rect x="527" y="0" width="1063" height="100" fill="rgb(131,120,128)"/><rect x="1590" y="0" width="435" height="100" fill="rgb(85,57,170)"/><rect x="2025" y="0" width="740" height="100" fill="rgb(121,60,106)"/><rect x="2765" y="0" width="538" height="100" fill="rgb(47,125,140)"/><rect x="3303" y="0" width="577" height="100" fill="rgb(47,60,127)"/><rect x="3880" y="0" width="792" height="100" fill="rgb(144,74,84)"/><rect x="4672" y="0" width="837" height="100" fill="rgb(133,106,48)"/><rect x="5509" y="0" width="323" height="100" fill="rgb(120,127,100)"/><rect x="5832" y="0" width="818" height="100" fill="rgb(80,93,90)"/><rect x="6650" y="0" width="650" height="100" fill="rgb(60,90,150)"/><rect x="7300" y="0" width="372" height="100" fill="rgb(200,137,120)"/><rect x="7672" y="0" width="1147" height="100" fill="rgb(106,65,116)"/><rect x="8819" y="0" width="1495" height="100" fill="rgb(96,77,134)"/><rect x="10314" y="0" width="650" height="100" fill="rgb(135,38,78)"/><rect x="10964" y="0" width="638" height="100" fill="rgb(35,190,45)"/><rect x="11602" y="0" width="532" height="100" fill="rgb(123,78,150)"/><rect x="12134" y="0" width="540" height="100" fill="rgb(144,78,140)"/><rect x="12674" y="0" width="860" height="100" fill="rgb(112,90,137)"/><rect x="13534" y="0" width="1138" height="100" fill="rgb(124,130,118)"/><rect x="14672" y="0" width="1235" height="100" fill="rgb(128,83,43)"/><rect x="15907" y="0" width="525" height="100" fill="rgb(110,210,160)"/><rect x="16432" y="0" width="1047" height="100" fill="rgb(107,80,130)"/><rect x="17479" y="0" width="695" height="100" fill="rgb(128,83,43)"/><rect x="18174" y="0" width="898" height="100" fill="rgb(132,53,102)"/></svg>
