<svg xmlns="http://www.w3.org/2000/svg" width="15297" height="100" viewBox="0 0 15297 100"><rect x="0" y="0" width="1048" height="100" fill="rgb(131,120,128)"/><rect x="1048" y="0" width="662" height="100" fill="rgb(60,90,150)"/><rect x="1710" y="0" width="677" height="100" fill="rgb(121,60,106)"/><rect x="2387" y="0" width="473" height="100" fill="rgb(111,128,90)"/><rect x="2860" y="0" width="672" height="100" fill="rgb(122,60,121)"/><rect x="3532" y="0" width="465" height="100" fill="rgb(20,157,145)"/><rect x="3997" y="0" width="630" height="100" fill="rgb(40,30,120)"/><rect x="4627" y="0" width="827" height="100" fill="rgb(144,74,84)"/><rect x="5454" y="0" width="508" height="100" fill="rgb(144,78,140)"/><rect x="5962" y="0" width="1793" height="100" fill="rgb(74,80,124)"/><rect x="7755" y="0" width="823" height="100" fill="rgb(112,90,137)"/><rect x="8578" y="0" width="925" height="100" fill="rgb(106,65,116)"/><rect x="9503" y="0" width="1110" height="100" fill="rgb(96,77,134)"/><rect x="10613" y="0" width="967" height="100" fill="rgb(124,130,118)"/><rect x="11580" y="0" width="1820" height="100" fill="rgb(128,83,43)"/><rect x="13400" y="0" width="1087" height="100" fill="rgb(90,50,118)"/><rect x="14487" y="0" width="810" height="100" fill="rgb(128,83,43)"/></svg>
