<svg xmlns="http://www.w3.org/2000/svg" width="15655" height="100" viewBox="0 0 15655 100" preserveAspectRatio="none"><rect x="0" y="0" width="783" height="100" fill="rgb(35,190,45)"/><rect x="783" y="0" width="643" height="100" fill="rgb(123,78,150)"/><rect x="1426" y="0" width="593" height="100" fill="rgb(144,78,140)"/><rect x="2019" y="0" width="503" height="100" fill="rgb(20,157,145)"/><rect x="2522" y="0" width="770" height="100" fill="rgb(122,60,121)"/><rect x="3292" y="0" width="432" height="100" fill="rgb(200,137,120)"/><rect x="3724" y="0" width="563" height="100" fill="rgb(111,128,90)"/><rect x="4287" y="0" width="675" height="100" fill="rgb(126,80,90)"/><rect x="4962" y="0" width="1372" height="100" fill="rgb(93,97,158)"/><rect x="6334" y="0" width="735" height="100" fill="rgb(135,38,78)"/><rect x="7069" y="0" width="605" height="100" fill="rgb(87,65,125)"/><rect x="7674" y="0" width="1305" height="100" fill="rgb(128,83,43)"/><rect x="8979" y="0" width="1318" height="100" fill="rgb(115,78,120)"/><rect x="10297" y="0" width="1130" height="100" fill="rgb(112,90,137)"/><rect x="11427" y="0" width="442" height="100" fill="rgb(83,132,85)"/><rect x="11869" y="0" width="358" height="100" fill="rgb(110,210,160)"/><rect x="12227" y="0" width="1078" height="100" fill="rgb(100,80,130)"/><rect x="13305" y="0" width="1175" height="100" fill="rgb(140,43,100)"/><rect x="14480" y="0" width="702" height="100" fill="rgb(128,83,43)"/><rect x="15182" y="0" width="473" height="100" fill="rgb(122,68,92)"/></svg>
