<svg xmlns="http://www.w3.org/2000/svg" width="11657" height="100" viewBox="0 0 11657 100" preserveAspectRatio="none"><rect x="0" y="0" width="703" height="100" fill="rgb(35,190,45)"/><rect x="703" y="0" width="650" height="100" fill="rgb(123,78,150)"/><rect x="1353" y="0" width="882" height="100" fill="rgb(133,106,48)"/><rect x="2235" y="0" width="605" height="100" fill="rgb(47,125,140)"/><rect x="2840" y="0" width="833" height="100" fill="rgb(93,77,87)"/><rect x="3673" y="0" width="293" height="100" fill="rgb(66,84,110)"/><rect x="3966" y="0" width="527" height="100" fill="rgb(60,90,150)"/><rect x="4493" y="0" width="1102" height="100" fill="rgb(124,130,118)"/><rect x="5595" y="0" width="893" height="100" fill="rgb(128,83,43)"/><rect x="6488" y="0" width="885" height="100" fill="rgb(110,210,160)"/><rect x="7373" y="0" width="385" height="100" fill="rgb(175,10,40)"/><rect x="7758" y="0" width="1108" height="100" fill="rgb(112,90,137)"/><rect x="8866" y="0" width="522" height="100" fill="rgb(83,132,85)"/><rect x="9388" y="0" width="1002" height="100" fill="rgb(107,80,130)"/><rect x="10390" y="0" width="842" height="100" fill="rgb(122,38,122)"/><rect x="11232" y="0" width="425" height="100" fill="rgb(122,68,92)"/></svg>
