<svg xmlns="http://www.w3.org/2000/svg" width="16371" height="100" viewBox="0 0 16371 100" preserveAspectRatio="none"><rect x="0" y="0" width="637" height="100" fill="rgb(35,190,45)"/><rect x="637" y="0" width="577" height="100" fill="rgb(123,78,150)"/><rect x="1214" y="0" width="885" height="100" fill="rgb(93,77,87)"/><rect x="2099" y="0" width="320" height="100" fill="rgb(66,84,110)"/><rect x="2419" y="0" width="653" height="100" fill="rgb(60,90,150)"/><rect x="3072" y="0" width="907" height="100" fill="rgb(133,106,48)"/><rect x="3979" y="0" width="813" height="100" fill="rgb(144,74,84)"/><rect x="4792" y="0" width="583" height="100" fill="rgb(144,78,140)"/><rect x="5375" y="0" width="617" height="100" fill="rgb(111,128,90)"/><rect x="5992" y="0" width="755" height="100" fill="rgb(40,30,120)"/><rect x="6747" y="0" width="833" height="100" fill="rgb(135,38,78)"/><rect x="7580" y="0" width="1270" height="100" fill="rgb(106,65,116)"/><rect x="8850" y="0" width="1070" height="100" fill="rgb(96,77,134)"/><rect x="9920" y="0" width="422" height="100" fill="rgb(200,137,120)"/><rect x="10342" y="0" width="1178" height="100" fill="rgb(124,130,118)"/><rect x="11520" y="0" width="2090" height="100" fill="rgb(110,210,160)"/><rect x="13610" y="0" width="230" height="100" fill="rgb(175,10,40)"/><rect x="13840" y="0" width="1038" height="100" fill="rgb(100,80,130)"/><rect x="14878" y="0" width="1065" height="100" fill="rgb(132,53,102)"/><rect x="15943" y="0" width="428" height="100" fill="rgb(122,68,92)"/></svg>
