<svg xmlns="http://www.w3.org/2000/svg" width="15773" height="100" viewBox="0 0 15773 100" preserveAspectRatio="none"><rect x="0" y="0" width="840" height="100" fill="rgb(131,120,128)"/><rect x="840" y="0" width="1043" height="100" fill="rgb(100,108,162)"/><rect x="1883" y="0" width="262" height="100" fill="rgb(90,98,60)"/><rect x="2145" y="0" width="442" height="100" fill="rgb(108,55,118)"/><rect x="2587" y="0" width="635" height="100" fill="rgb(105,70,200)"/><rect x="3222" y="0" width="500" height="100" fill="rgb(20,157,145)"/><rect x="3722" y="0" width="783" height="100" fill="rgb(135,190,115)"/><rect x="4505" y="0" width="442" height="100" fill="rgb(155,74,78)"/><rect x="4947" y="0" width="1293" height="100" fill="rgb(106,65,116)"/><rect x="6240" y="0" width="1093" height="100" fill="rgb(96,77,134)"/><rect x="7333" y="0" width="1312" height="100" fill="rgb(112,90,137)"/><rect x="8645" y="0" width="1143" height="100" fill="rgb(115,78,120)"/><rect x="9788" y="0" width="1168" height="100" fill="rgb(110,210,160)"/><rect x="10956" y="0" width="1283" height="100" fill="rgb(175,10,40)"/><rect x="12239" y="0" width="1117" height="100" fill="rgb(45,90,120)"/><rect x="13356" y="0" width="555" height="100" fill="rgb(66,45,78)"/><rect x="13911" y="0" width="647" height="100" fill="rgb(35,190,45)"/><rect x="14558" y="0" width="670" height="100" fill="rgb(123,78,150)"/><rect x="15228" y="0" width="545" height="100" fill="rgb(133,70,150)"/></svg>
