<svg xmlns="http://www.w3.org/2000/svg" width="15768" height="100" viewBox="0 0 15768 100" preserveAspectRatio="none"><rect x="0" y="0" width="583" height="100" fill="rgb(47,125,140)"/><rect x="583" y="0" width="1300" height="100" fill="rgb(200,87,50)"/><rect x="1883" y="0" width="297" height="100" fill="rgb(66,84,110)"/><rect x="2180" y="0" width="552" height="100" fill="rgb(60,90,150)"/><rect x="2732" y="0" width="650" height="100" fill="rgb(60,145,93)"/><rect x="3382" y="0" width="342" height="100" fill="rgb(111,128,90)"/><rect x="3724" y="0" width="858" height="100" fill="rgb(133,106,48)"/><rect x="4582" y="0" width="657" height="100" fill="rgb(165,67,135)"/><rect x="5239" y="0" width="628" height="100" fill="rgb(111,86,107)"/><rect x="5867" y="0" width="548" height="100" fill="rgb(40,30,120)"/><rect x="6415" y="0" width="812" height="100" fill="rgb(58,111,132)"/><rect x="7227" y="0" width="595" height="100" fill="rgb(98,140,108)"/><rect x="7822" y="0" width="782" height="100" fill="rgb(144,74,84)"/><rect x="8604" y="0" width="2058" height="100" fill="rgb(107,35,113)"/><rect x="10662" y="0" width="1433" height="100" fill="rgb(110,210,160)"/><rect x="12095" y="0" width="765" height="100" fill="rgb(175,10,40)"/><rect x="12860" y="0" width="1008" height="100" fill="rgb(107,80,130)"/><rect x="13868" y="0" width="758" height="100" fill="rgb(122,38,122)"/><rect x="14626" y="0" width="1142" height="100" fill="rgb(88,125,136)"/></svg>
