<svg xmlns="http://www.w3.org/2000/svg" width="16620" height="100" viewBox="0 0 16620 100"><rect x="0" y="0" width="625" height="100" fill="rgb(111,128,90)"/><rect x="625" y="0" width="345" height="100" fill="rgb(103,93,110)"/><rect x="970" y="0" width="425" height="100" fill="rgb(85,57,170)"/><rect x="1395" y="0" width="558" height="100" fill="rgb(144,78,140)"/><rect x="1953" y="0" width="790" height="100" fill="rgb(98,110,140)"/><rect x="2743" y="0" width="385" height="100" fill="rgb(106,60,82)"/><rect x="3128" y="0" width="828" height="100" fill="rgb(144,74,84)"/><rect x="3956" y="0" width="718" height="100" fill="rgb(65,140,30)"/><rect x="4674" y="0" width="577" height="100" fill="rgb(165,67,135)"/><rect x="5251" y="0" width="655" height="100" fill="rgb(111,86,107)"/><rect x="5906" y="0" width="738" height="100" fill="rgb(58,111,132)"/><rect x="6644" y="0" width="697" height="100" fill="rgb(98,140,108)"/><rect x="7341" y="0" width="377" height="100" fill="rgb(100,140,132)"/><rect x="7718" y="0" width="710" height="100" fill="rgb(92,85,114)"/><rect x="8428" y="0" width="1342" height="100" fill="rgb(124,130,118)"/><rect x="9770" y="0" width="1923" height="100" fill="rgb(128,83,43)"/><rect x="11693" y="0" width="1143" height="100" fill="rgb(110,210,160)"/><rect x="12836" y="0" width="377" height="100" fill="rgb(175,10,40)"/><rect x="13213" y="0" width="883" height="100" fill="rgb(123,32,125)"/><rect x="14096" y="0" width="1160" height="100" fill="rgb(140,43,100)"/><rect x="15256" y="0" width="937" height="100" fill="rgb(132,53,102)"/><rect x="16193" y="0" width="427" height="100" fill="rgb(122,68,92)"/></svg>
