<svg xmlns="http://www.w3.org/2000/svg" width="14531" height="100" viewBox="0 0 14531 100"><rect x="0" y="0" width="613" height="100" fill="rgb(47,125,140)"/><rect x="613" y="0" width="780" height="100" fill="rgb(121,60,106)"/><rect x="1393" y="0" width="500" height="100" fill="rgb(20,157,145)"/><rect x="1893" y="0" width="527" height="100" fill="rgb(47,60,127)"/><rect x="2420" y="0" width="795" height="100" fill="rgb(144,74,84)"/><rect x="3215" y="0" width="845" height="100" fill="rgb(133,106,48)"/><rect x="4060" y="0" width="432" height="100" fill="rgb(85,57,170)"/><rect x="4492" y="0" width="670" height="100" fill="rgb(118,100,55)"/><rect x="5162" y="0" width="512" height="100" fill="rgb(120,127,100)"/><rect x="5674" y="0" width="705" height="100" fill="rgb(66,45,78)"/><rect x="6379" y="0" width="1000" height="100" fill="rgb(88,125,136)"/><rect x="7379" y="0" width="370" height="100" fill="rgb(114,62,84)"/><rect x="7749" y="0" width="1063" height="100" fill="rgb(112,90,137)"/><rect x="8812" y="0" width="970" height="100" fill="rgb(115,78,120)"/><rect x="9782" y="0" width="492" height="100" fill="rgb(110,210,160)"/><rect x="10274" y="0" width="418" height="100" fill="rgb(175,10,40)"/><rect x="10692" y="0" width="1315" height="100" fill="rgb(123,32,125)"/><rect x="12007" y="0" width="1157" height="100" fill="rgb(45,90,120)"/><rect x="13164" y="0" width="605" height="100" fill="rgb(122,38,122)"/><rect x="13769" y="0" width="762" height="100" fill="rgb(123,78,150)"/></svg>
