<svg xmlns="http://www.w3.org/2000/svg" width="16899" height="100" viewBox="0 0 16899 100"><rect x="0" y="0" width="962" height="100" fill="rgb(131,120,128)"/><rect x="962" y="0" width="993" height="100" fill="rgb(100,108,162)"/><rect x="1955" y="0" width="507" height="100" fill="rgb(111,128,90)"/><rect x="2462" y="0" width="712" height="100" fill="rgb(60,145,93)"/><rect x="3174" y="0" width="293" height="100" fill="rgb(66,84,110)"/><rect x="3467" y="0" width="547" height="100" fill="rgb(60,90,150)"/><rect x="4014" y="0" width="1003" height="100" fill="rgb(93,77,87)"/><rect x="5017" y="0" width="832" height="100" fill="rgb(98,110,140)"/><rect x="5849" y="0" width="515" height="100" fill="rgb(144,78,140)"/><rect x="6364" y="0" width="357" height="100" fill="rgb(159,72,143)"/><rect x="6721" y="0" width="772" height="100" fill="rgb(180,63,145)"/><rect x="7493" y="0" width="1172" height="100" fill="rgb(106,65,116)"/><rect x="8665" y="0" width="1027" height="100" fill="rgb(96,77,134)"/><rect x="9692" y="0" width="715" height="100" fill="rgb(135,38,78)"/><rect x="10407" y="0" width="1230" height="100" fill="rgb(124,130,118)"/><rect x="11637" y="0" width="1342" height="100" fill="rgb(128,83,43)"/><rect x="12979" y="0" width="798" height="100" fill="rgb(110,210,160)"/><rect x="13777" y="0" width="838" height="100" fill="rgb(83,132,85)"/><rect x="14615" y="0" width="1087" height="100" fill="rgb(107,80,130)"/><rect x="15702" y="0" width="645" height="100" fill="rgb(123,78,150)"/><rect x="16347" y="0" width="552" height="100" fill="rgb(133,70,150)"/></svg>
