<svg xmlns="http://www.w3.org/2000/svg" width="17216" height="100" viewBox="0 0 17216 100" preserveAspectRatio="none"><rect x="0" y="0" width="910" height="100" fill="rgb(70,60,119)"/><rect x="910" y="0" width="787" height="100" fill="rgb(65,140,30)"/><rect x="1697" y="0" width="798" height="100" fill="rgb(20,135,90)"/><rect x="2495" y="0" width="768" height="100" fill="rgb(92,85,114)"/><rect x="3263" y="0" width="550" height="100" fill="rgb(85,57,170)"/><rect x="3813" y="0" width="705" height="100" fill="rgb(60,70,118)"/><rect x="4518" y="0" width="395" height="100" fill="rgb(71,106,91)"/><rect x="4913" y="0" width="1125" height="100" fill="rgb(97,77,120)"/><rect x="6038" y="0" width="702" height="100" fill="rgb(111,128,90)"/><rect x="6740" y="0" width="955" height="100" fill="rgb(58,111,132)"/><rect x="7695" y="0" width="617" height="100" fill="rgb(98,140,108)"/><rect x="8312" y="0" width="653" height="100" fill="rgb(135,38,78)"/><rect x="8965" y="0" width="893" height="100" fill="rgb(130,54,153)"/><rect x="9858" y="0" width="1383" height="100" fill="rgb(112,90,137)"/><rect x="11241" y="0" width="1175" height="100" fill="rgb(110,110,42)"/><rect x="12416" y="0" width="1053" height="100" fill="rgb(110,210,160)"/><rect x="13469" y="0" width="750" height="100" fill="rgb(175,10,40)"/><rect x="14219" y="0" width="778" height="100" fill="rgb(83,132,85)"/><rect x="14997" y="0" width="983" height="100" fill="rgb(140,43,100)"/><rect x="15980" y="0" width="683" height="100" fill="rgb(123,78,150)"/><rect x="16663" y="0" width="553" height="100" fill="rgb(133,70,150)"/></svg>
