<svg xmlns="http://www.w3.org/2000/svg" width="17161" height="100" viewBox="0 0 17161 100"><rect x="0" y="0" width="1148" height="100" fill="rgb(131,120,128)"/><rect x="1148" y="0" width="1083" height="100" fill="rgb(100,108,162)"/><rect x="2231" y="0" width="393" height="100" fill="rgb(66,84,110)"/><rect x="2624" y="0" width="622" height="100" fill="rgb(122,60,121)"/><rect x="3246" y="0" width="672" height="100" fill="rgb(130,75,153)"/><rect x="3918" y="0" width="405" height="100" fill="rgb(106,60,82)"/><rect x="4323" y="0" width="335" height="100" fill="rgb(159,72,143)"/><rect x="4658" y="0" width="655" height="100" fill="rgb(180,63,145)"/><rect x="5313" y="0" width="523" height="100" fill="rgb(144,78,140)"/><rect x="5836" y="0" width="915" height="100" fill="rgb(144,74,84)"/><rect x="6751" y="0" width="720" height="100" fill="rgb(40,30,120)"/><rect x="7471" y="0" width="1133" height="100" fill="rgb(106,65,116)"/><rect x="8604" y="0" width="1517" height="100" fill="rgb(96,77,134)"/><rect x="10121" y="0" width="603" height="100" fill="rgb(165,67,135)"/><rect x="10724" y="0" width="662" height="100" fill="rgb(111,86,107)"/><rect x="11386" y="0" width="295" height="100" fill="rgb(100,10,130)"/><rect x="11681" y="0" width="1033" height="100" fill="rgb(110,210,160)"/><rect x="12714" y="0" width="255" height="100" fill="rgb(175,10,40)"/><rect x="12969" y="0" width="575" height="100" fill="rgb(110,103,73)"/><rect x="13544" y="0" width="690" height="100" fill="rgb(67,48,130)"/><rect x="14234" y="0" width="862" height="100" fill="rgb(190,117,115)"/><rect x="15096" y="0" width="848" height="100" fill="rgb(132,53,102)"/><rect x="15944" y="0" width="615" height="100" fill="rgb(66,111,107)"/><rect x="16559" y="0" width="602" height="100" fill="rgb(102,120,44)"/></svg>
