<svg xmlns="http://www.w3.org/2000/svg" width="17107" height="100" viewBox="0 0 17107 100"><rect x="0" y="0" width="1063" height="100" fill="rgb(128,83,43)"/><rect x="1063" y="0" width="1007" height="100" fill="rgb(119,108,123)"/><rect x="2070" y="0" width="300" height="100" fill="rgb(66,84,110)"/><rect x="2370" y="0" width="645" height="100" fill="rgb(60,90,150)"/><rect x="3015" y="0" width="835" height="100" fill="rgb(134,40,110)"/><rect x="3850" y="0" width="347" height="100" fill="rgb(71,106,91)"/><rect x="4197" y="0" width="730" height="100" fill="rgb(135,190,115)"/><rect x="4927" y="0" width="880" height="100" fill="rgb(144,74,84)"/><rect x="5807" y="0" width="717" height="100" fill="rgb(58,111,132)"/><rect x="6524" y="0" width="552" height="100" fill="rgb(98,140,108)"/><rect x="7076" y="0" width="677" height="100" fill="rgb(148,58,138)"/><rect x="7753" y="0" width="818" height="100" fill="rgb(135,38,78)"/><rect x="8571" y="0" width="820" height="100" fill="rgb(80,93,90)"/><rect x="9391" y="0" width="1348" height="100" fill="rgb(112,90,137)"/><rect x="10739" y="0" width="1090" height="100" fill="rgb(107,35,113)"/><rect x="11829" y="0" width="632" height="100" fill="rgb(110,210,160)"/><rect x="12461" y="0" width="863" height="100" fill="rgb(175,10,40)"/><rect x="13324" y="0" width="615" height="100" fill="rgb(168,98,146)"/><rect x="13939" y="0" width="718" height="100" fill="rgb(123,32,125)"/><rect x="14657" y="0" width="953" height="100" fill="rgb(45,90,120)"/><rect x="15610" y="0" width="985" height="100" fill="rgb(123,78,150)"/><rect x="16595" y="0" width="512" height="100" fill="rgb(133,70,150)"/></svg>
