<svg xmlns="http://www.w3.org/2000/svg" width="16676" height="100" viewBox="0 0 16676 100"><rect x="0" y="0" width="1213" height="100" fill="rgb(88,125,136)"/><rect x="1213" y="0" width="742" height="100" fill="rgb(111,128,90)"/><rect x="1955" y="0" width="608" height="100" fill="rgb(60,145,93)"/><rect x="2563" y="0" width="517" height="100" fill="rgb(85,57,170)"/><rect x="3080" y="0" width="605" height="100" fill="rgb(126,80,90)"/><rect x="3685" y="0" width="800" height="100" fill="rgb(98,110,140)"/><rect x="4485" y="0" width="707" height="100" fill="rgb(107,141,110)"/><rect x="5192" y="0" width="1058" height="100" fill="rgb(187,63,170)"/><rect x="6250" y="0" width="590" height="100" fill="rgb(168,98,146)"/><rect x="6840" y="0" width="542" height="100" fill="rgb(103,116,88)"/><rect x="7382" y="0" width="1197" height="100" fill="rgb(106,65,116)"/><rect x="8579" y="0" width="945" height="100" fill="rgb(96,77,134)"/><rect x="9524" y="0" width="678" height="100" fill="rgb(99,123,118)"/><rect x="10202" y="0" width="1170" height="100" fill="rgb(124,130,118)"/><rect x="11372" y="0" width="808" height="100" fill="rgb(110,210,160)"/><rect x="12180" y="0" width="663" height="100" fill="rgb(175,10,40)"/><rect x="12843" y="0" width="268" height="100" fill="rgb(125,120,60)"/><rect x="13111" y="0" width="620" height="100" fill="rgb(190,117,115)"/><rect x="13731" y="0" width="600" height="100" fill="rgb(83,132,85)"/><rect x="14331" y="0" width="785" height="100" fill="rgb(140,43,100)"/><rect x="15116" y="0" width="875" height="100" fill="rgb(132,53,102)"/><rect x="15991" y="0" width="685" height="100" fill="rgb(148,58,138)"/></svg>
