<svg xmlns="http://www.w3.org/2000/svg" width="14097" height="100" viewBox="0 0 14097 100"><rect x="0" y="0" width="780" height="100" fill="rgb(90,50,102)"/><rect x="780" y="0" width="558" height="100" fill="rgb(47,125,140)"/><rect x="1338" y="0" width="773" height="100" fill="rgb(135,190,115)"/><rect x="2111" y="0" width="327" height="100" fill="rgb(66,84,110)"/><rect x="2438" y="0" width="480" height="100" fill="rgb(108,55,118)"/><rect x="2918" y="0" width="1195" height="100" fill="rgb(97,77,120)"/><rect x="4113" y="0" width="573" height="100" fill="rgb(74,43,120)"/><rect x="4686" y="0" width="482" height="100" fill="rgb(103,116,88)"/><rect x="5168" y="0" width="680" height="100" fill="rgb(58,111,132)"/><rect x="5848" y="0" width="783" height="100" fill="rgb(98,140,108)"/><rect x="6631" y="0" width="492" height="100" fill="rgb(66,45,78)"/><rect x="7123" y="0" width="612" height="100" fill="rgb(35,190,45)"/><rect x="7735" y="0" width="360" height="100" fill="rgb(100,10,130)"/><rect x="8095" y="0" width="830" height="100" fill="rgb(67,48,130)"/><rect x="8925" y="0" width="1258" height="100" fill="rgb(110,210,160)"/><rect x="10183" y="0" width="1118" height="100" fill="rgb(175,10,40)"/><rect x="11301" y="0" width="678" height="100" fill="rgb(130,150,90)"/><rect x="11979" y="0" width="947" height="100" fill="rgb(168,98,146)"/><rect x="12926" y="0" width="728" height="100" fill="rgb(148,58,138)"/><rect x="13654" y="0" width="443" height="100" fill="rgb(122,68,92)"/></svg>
