<svg xmlns="http://www.w3.org/2000/svg" width="17063" height="100" viewBox="0 0 17063 100" preserveAspectRatio="none"><rect x="0" y="0" width="705" height="100" fill="rgb(87,65,125)"/><rect x="705" y="0" width="922" height="100" fill="rgb(111,128,90)"/><rect x="1627" y="0" width="737" height="100" fill="rgb(92,85,114)"/><rect x="2364" y="0" width="545" height="100" fill="rgb(116,132,92)"/><rect x="2909" y="0" width="622" height="100" fill="rgb(122,60,121)"/><rect x="3531" y="0" width="628" height="100" fill="rgb(20,157,145)"/><rect x="4159" y="0" width="1022" height="100" fill="rgb(88,82,118)"/><rect x="5181" y="0" width="863" height="100" fill="rgb(144,74,84)"/><rect x="6044" y="0" width="465" height="100" fill="rgb(93,80,130)"/><rect x="6509" y="0" width="387" height="100" fill="rgb(82,114,108)"/><rect x="6896" y="0" width="1008" height="100" fill="rgb(133,135,163)"/><rect x="7904" y="0" width="1472" height="100" fill="rgb(100,108,162)"/><rect x="9376" y="0" width="757" height="100" fill="rgb(99,123,118)"/><rect x="10133" y="0" width="1300" height="100" fill="rgb(107,35,113)"/><rect x="11433" y="0" width="1030" height="100" fill="rgb(110,210,160)"/><rect x="12463" y="0" width="1448" height="100" fill="rgb(175,10,40)"/><rect x="13911" y="0" width="777" height="100" fill="rgb(190,117,115)"/><rect x="14688" y="0" width="918" height="100" fill="rgb(45,90,120)"/><rect x="15606" y="0" width="932" height="100" fill="rgb(123,32,125)"/><rect x="16538" y="0" width="525" height="100" fill="rgb(150,170,127)"/></svg>
