<svg xmlns="http://www.w3.org/2000/svg" width="12874" height="100" viewBox="0 0 12874 100"><rect x="0" y="0" width="777" height="100" fill="rgb(131,120,128)"/><rect x="777" y="0" width="910" height="100" fill="rgb(98,110,140)"/><rect x="1687" y="0" width="740" height="100" fill="rgb(80,93,90)"/><rect x="2427" y="0" width="463" height="100" fill="rgb(108,55,118)"/><rect x="2890" y="0" width="553" height="100" fill="rgb(60,90,150)"/><rect x="3443" y="0" width="467" height="100" fill="rgb(133,79,130)"/><rect x="3910" y="0" width="503" height="100" fill="rgb(103,70,105)"/><rect x="4413" y="0" width="340" height="100" fill="rgb(106,60,82)"/><rect x="4753" y="0" width="820" height="100" fill="rgb(119,108,123)"/><rect x="5573" y="0" width="893" height="100" fill="rgb(110,110,42)"/><rect x="6466" y="0" width="1555" height="100" fill="rgb(128,83,43)"/><rect x="8021" y="0" width="925" height="100" fill="rgb(110,210,160)"/><rect x="8946" y="0" width="398" height="100" fill="rgb(175,10,40)"/><rect x="9344" y="0" width="353" height="100" fill="rgb(66,45,78)"/><rect x="9697" y="0" width="690" height="100" fill="rgb(70,83,95)"/><rect x="10387" y="0" width="873" height="100" fill="rgb(45,90,120)"/><rect x="11260" y="0" width="382" height="100" fill="rgb(122,38,122)"/><rect x="11642" y="0" width="592" height="100" fill="rgb(146,133,119)"/><rect x="12234" y="0" width="640" height="100" fill="rgb(48,134,120)"/></svg>
