<svg xmlns="http://www.w3.org/2000/svg" width="13469" height="100" viewBox="0 0 13469 100"><rect x="0" y="0" width="640" height="100" fill="rgb(47,125,140)"/><rect x="640" y="0" width="700" height="100" fill="rgb(134,40,110)"/><rect x="1340" y="0" width="412" height="100" fill="rgb(116,132,92)"/><rect x="1752" y="0" width="435" height="100" fill="rgb(63,130,78)"/><rect x="2187" y="0" width="560" height="100" fill="rgb(122,60,121)"/><rect x="2747" y="0" width="970" height="100" fill="rgb(110,113,140)"/><rect x="3717" y="0" width="458" height="100" fill="rgb(93,80,130)"/><rect x="4175" y="0" width="417" height="100" fill="rgb(155,74,78)"/><rect x="4592" y="0" width="597" height="100" fill="rgb(74,43,120)"/><rect x="5189" y="0" width="628" height="100" fill="rgb(100,80,130)"/><rect x="5817" y="0" width="938" height="100" fill="rgb(144,74,84)"/><rect x="6755" y="0" width="1018" height="100" fill="rgb(107,35,113)"/><rect x="7773" y="0" width="975" height="100" fill="rgb(110,210,160)"/><rect x="8748" y="0" width="867" height="100" fill="rgb(175,10,40)"/><rect x="9615" y="0" width="483" height="100" fill="rgb(83,132,85)"/><rect x="10098" y="0" width="807" height="100" fill="rgb(107,80,130)"/><rect x="10905" y="0" width="898" height="100" fill="rgb(168,98,146)"/><rect x="11803" y="0" width="653" height="100" fill="rgb(123,32,125)"/><rect x="12456" y="0" width="598" height="100" fill="rgb(148,58,138)"/><rect x="13054" y="0" width="415" height="100" fill="rgb(102,120,44)"/></svg>
