<svg xmlns="http://www.w3.org/2000/svg" width="15192" height="100" viewBox="0 0 15192 100" preserveAspectRatio="none"><rect x="0" y="0" width="645" height="100" fill="rgb(148,58,138)"/><rect x="645" y="0" width="902" height="100" fill="rgb(106,65,116)"/><rect x="1547" y="0" width="940" height="100" fill="rgb(130,75,153)"/><rect x="2487" y="0" width="365" height="100" fill="rgb(103,93,110)"/><rect x="2852" y="0" width="430" height="100" fill="rgb(116,132,92)"/><rect x="3282" y="0" width="713" height="100" fill="rgb(80,93,90)"/><rect x="3995" y="0" width="1255" height="100" fill="rgb(93,97,158)"/><rect x="5250" y="0" width="332" height="100" fill="rgb(106,60,82)"/><rect x="5582" y="0" width="710" height="100" fill="rgb(35,190,45)"/><rect x="6292" y="0" width="400" height="100" fill="rgb(119,128,120)"/><rect x="6692" y="0" width="222" height="100" fill="rgb(116,81,104)"/><rect x="6914" y="0" width="67" height="100" fill="rgb(90,129,137)"/><rect x="6981" y="0" width="122" height="100" fill="rgb(116,81,104)"/><rect x="7103" y="0" width="1430" height="100" fill="rgb(107,35,113)"/><rect x="8533" y="0" width="1097" height="100" fill="rgb(110,210,160)"/><rect x="9630" y="0" width="1057" height="100" fill="rgb(175,10,40)"/><rect x="10687" y="0" width="668" height="100" fill="rgb(190,117,115)"/><rect x="11355" y="0" width="1108" height="100" fill="rgb(107,80,130)"/><rect x="12463" y="0" width="1000" height="100" fill="rgb(168,98,146)"/><rect x="13463" y="0" width="1072" height="100" fill="rgb(123,32,125)"/><rect x="14535" y="0" width="657" height="100" fill="rgb(48,134,120)"/></svg>
