<svg xmlns="http://www.w3.org/2000/svg" width="13065" height="100" viewBox="0 0 13065 100" preserveAspectRatio="none"><rect x="0" y="0" width="457" height="100" fill="rgb(95,140,123)"/><rect x="457" y="0" width="660" height="100" fill="rgb(111,128,90)"/><rect x="1117" y="0" width="442" height="100" fill="rgb(133,79,130)"/><rect x="1559" y="0" width="280" height="100" fill="rgb(66,84,110)"/><rect x="1839" y="0" width="440" height="100" fill="rgb(108,55,118)"/><rect x="2279" y="0" width="828" height="100" fill="rgb(187,63,170)"/><rect x="3107" y="0" width="490" height="100" fill="rgb(91,106,136)"/><rect x="3597" y="0" width="797" height="100" fill="rgb(133,106,48)"/><rect x="4394" y="0" width="752" height="100" fill="rgb(119,96,119)"/><rect x="5146" y="0" width="530" height="100" fill="rgb(58,111,132)"/><rect x="5676" y="0" width="562" height="100" fill="rgb(98,140,108)"/><rect x="6238" y="0" width="1123" height="100" fill="rgb(112,90,137)"/><rect x="7361" y="0" width="920" height="100" fill="rgb(115,78,120)"/><rect x="8281" y="0" width="680" height="100" fill="rgb(110,210,160)"/><rect x="8961" y="0" width="755" height="100" fill="rgb(175,10,40)"/><rect x="9716" y="0" width="462" height="100" fill="rgb(110,103,73)"/><rect x="10178" y="0" width="483" height="100" fill="rgb(94,87,144)"/><rect x="10661" y="0" width="827" height="100" fill="rgb(45,90,120)"/><rect x="11488" y="0" width="887" height="100" fill="rgb(132,53,102)"/><rect x="12375" y="0" width="690" height="100" fill="rgb(98,121,78)"/></svg>
