<svg xmlns="http://www.w3.org/2000/svg" width="12956" height="100" viewBox="0 0 12956 100" preserveAspectRatio="none"><rect x="0" y="0" width="623" height="100" fill="rgb(74,43,120)"/><rect x="623" y="0" width="1053" height="100" fill="rgb(200,87,50)"/><rect x="1676" y="0" width="617" height="100" fill="rgb(118,63,143)"/><rect x="2293" y="0" width="673" height="100" fill="rgb(60,145,93)"/><rect x="2966" y="0" width="413" height="100" fill="rgb(84,106,111)"/><rect x="3379" y="0" width="995" height="100" fill="rgb(97,77,120)"/><rect x="4374" y="0" width="1193" height="100" fill="rgb(88,125,136)"/><rect x="5567" y="0" width="697" height="100" fill="rgb(99,123,118)"/><rect x="6264" y="0" width="1310" height="100" fill="rgb(124,130,118)"/><rect x="7574" y="0" width="842" height="100" fill="rgb(110,210,160)"/><rect x="8416" y="0" width="732" height="100" fill="rgb(175,10,40)"/><rect x="9148" y="0" width="597" height="100" fill="rgb(101,77,59)"/><rect x="9745" y="0" width="475" height="100" fill="rgb(84,80,140)"/><rect x="10220" y="0" width="1088" height="100" fill="rgb(150,100,80)"/><rect x="11308" y="0" width="418" height="100" fill="rgb(123,78,150)"/><rect x="11726" y="0" width="152" height="100" fill="rgb(43,15,53)"/><rect x="11878" y="0" width="255" height="100" fill="rgb(123,78,150)"/><rect x="12133" y="0" width="823" height="100" fill="rgb(96,93,113)"/></svg>
