<svg xmlns="http://www.w3.org/2000/svg" width="13927" height="100" viewBox="0 0 13927 100"><rect x="0" y="0" width="563" height="100" fill="rgb(88,100,118)"/><rect x="563" y="0" width="530" height="100" fill="rgb(34,52,140)"/><rect x="1093" y="0" width="548" height="100" fill="rgb(119,128,120)"/><rect x="1641" y="0" width="540" height="100" fill="rgb(118,100,55)"/><rect x="2181" y="0" width="797" height="100" fill="rgb(118,63,143)"/><rect x="2978" y="0" width="730" height="100" fill="rgb(122,60,121)"/><rect x="3708" y="0" width="623" height="100" fill="rgb(91,106,136)"/><rect x="4331" y="0" width="637" height="100" fill="rgb(92,85,114)"/><rect x="4968" y="0" width="1227" height="100" fill="rgb(93,97,158)"/><rect x="6195" y="0" width="552" height="100" fill="rgb(103,70,105)"/><rect x="6747" y="0" width="520" height="100" fill="rgb(127,94,80)"/><rect x="7267" y="0" width="1020" height="100" fill="rgb(120,88,110)"/><rect x="8287" y="0" width="1033" height="100" fill="rgb(144,74,84)"/><rect x="9320" y="0" width="987" height="100" fill="rgb(107,35,113)"/><rect x="10307" y="0" width="350" height="100" fill="rgb(110,210,160)"/><rect x="10657" y="0" width="567" height="100" fill="rgb(175,10,40)"/><rect x="11224" y="0" width="395" height="100" fill="rgb(66,45,78)"/><rect x="11619" y="0" width="468" height="100" fill="rgb(94,87,144)"/><rect x="12087" y="0" width="1210" height="100" fill="rgb(150,100,80)"/><rect x="13297" y="0" width="630" height="100" fill="rgb(48,134,120)"/></svg>
