<svg xmlns="http://www.w3.org/2000/svg" width="14880" height="100" viewBox="0 0 14880 100"><rect x="0" y="0" width="575" height="100" fill="rgb(95,140,123)"/><rect x="575" y="0" width="863" height="100" fill="rgb(111,128,90)"/><rect x="1438" y="0" width="1005" height="100" fill="rgb(131,120,128)"/><rect x="2443" y="0" width="315" height="100" fill="rgb(66,84,110)"/><rect x="2758" y="0" width="523" height="100" fill="rgb(60,90,150)"/><rect x="3281" y="0" width="937" height="100" fill="rgb(96,108,112)"/><rect x="4218" y="0" width="612" height="100" fill="rgb(84,106,111)"/><rect x="4830" y="0" width="1180" height="100" fill="rgb(97,77,120)"/><rect x="6010" y="0" width="642" height="100" fill="rgb(58,111,132)"/><rect x="6652" y="0" width="562" height="100" fill="rgb(98,140,108)"/><rect x="7214" y="0" width="772" height="100" fill="rgb(130,54,153)"/><rect x="7986" y="0" width="1162" height="100" fill="rgb(112,90,137)"/><rect x="9148" y="0" width="1183" height="100" fill="rgb(124,130,118)"/><rect x="10331" y="0" width="843" height="100" fill="rgb(110,210,160)"/><rect x="11174" y="0" width="985" height="100" fill="rgb(175,10,40)"/><rect x="12159" y="0" width="378" height="100" fill="rgb(66,45,78)"/><rect x="12537" y="0" width="500" height="100" fill="rgb(56,76,158)"/><rect x="13037" y="0" width="237" height="100" fill="rgb(127,50,100)"/><rect x="13274" y="0" width="893" height="100" fill="rgb(132,53,102)"/><rect x="14167" y="0" width="713" height="100" fill="rgb(98,121,78)"/></svg>
