<svg xmlns="http://www.w3.org/2000/svg" width="12993" height="100" viewBox="0 0 12993 100" preserveAspectRatio="none"><rect x="0" y="0" width="603" height="100" fill="rgb(74,43,120)"/><rect x="603" y="0" width="1138" height="100" fill="rgb(200,87,50)"/><rect x="1741" y="0" width="1075" height="100" fill="rgb(110,113,140)"/><rect x="2816" y="0" width="910" height="100" fill="rgb(187,63,170)"/><rect x="3726" y="0" width="635" height="100" fill="rgb(20,157,145)"/><rect x="4361" y="0" width="828" height="100" fill="rgb(40,30,120)"/><rect x="5189" y="0" width="798" height="100" fill="rgb(135,38,78)"/><rect x="5987" y="0" width="853" height="100" fill="rgb(119,108,123)"/><rect x="6840" y="0" width="665" height="100" fill="rgb(128,83,43)"/><rect x="7505" y="0" width="908" height="100" fill="rgb(110,110,42)"/><rect x="8413" y="0" width="262" height="100" fill="rgb(128,83,43)"/><rect x="8675" y="0" width="807" height="100" fill="rgb(110,210,160)"/><rect x="9482" y="0" width="558" height="100" fill="rgb(175,10,40)"/><rect x="10040" y="0" width="377" height="100" fill="rgb(93,103,110)"/><rect x="10417" y="0" width="522" height="100" fill="rgb(84,80,140)"/><rect x="10939" y="0" width="593" height="100" fill="rgb(101,77,59)"/><rect x="11532" y="0" width="893" height="100" fill="rgb(128,151,104)"/><rect x="12425" y="0" width="568" height="100" fill="rgb(133,70,150)"/></svg>
