<svg xmlns="http://www.w3.org/2000/svg" width="14107" height="100" viewBox="0 0 14107 100" preserveAspectRatio="none"><rect x="0" y="0" width="1017" height="100" fill="rgb(131,120,128)"/><rect x="1017" y="0" width="532" height="100" fill="rgb(47,125,140)"/><rect x="1549" y="0" width="848" height="100" fill="rgb(96,108,112)"/><rect x="2397" y="0" width="687" height="100" fill="rgb(46,70,84)"/><rect x="3084" y="0" width="483" height="100" fill="rgb(133,79,130)"/><rect x="3567" y="0" width="780" height="100" fill="rgb(111,128,90)"/><rect x="4347" y="0" width="585" height="100" fill="rgb(88,82,118)"/><rect x="4932" y="0" width="712" height="100" fill="rgb(40,30,120)"/><rect x="5644" y="0" width="632" height="100" fill="rgb(58,111,132)"/><rect x="6276" y="0" width="562" height="100" fill="rgb(98,140,108)"/><rect x="6838" y="0" width="1260" height="100" fill="rgb(112,90,137)"/><rect x="8098" y="0" width="892" height="100" fill="rgb(115,78,120)"/><rect x="8990" y="0" width="700" height="100" fill="rgb(110,210,160)"/><rect x="9690" y="0" width="855" height="100" fill="rgb(175,10,40)"/><rect x="10545" y="0" width="732" height="100" fill="rgb(83,132,85)"/><rect x="11277" y="0" width="792" height="100" fill="rgb(107,80,130)"/><rect x="12069" y="0" width="908" height="100" fill="rgb(168,98,146)"/><rect x="12977" y="0" width="595" height="100" fill="rgb(123,32,125)"/><rect x="13572" y="0" width="535" height="100" fill="rgb(102,120,44)"/></svg>
