<svg xmlns="http://www.w3.org/2000/svg" width="12981" height="100" viewBox="0 0 12981 100" preserveAspectRatio="none"><rect x="0" y="0" width="1225" height="100" fill="rgb(88,125,136)"/><rect x="1225" y="0" width="712" height="100" fill="rgb(111,128,90)"/><rect x="1937" y="0" width="640" height="100" fill="rgb(60,145,93)"/><rect x="2577" y="0" width="318" height="100" fill="rgb(71,106,91)"/><rect x="2895" y="0" width="413" height="100" fill="rgb(119,128,120)"/><rect x="3308" y="0" width="850" height="100" fill="rgb(96,108,112)"/><rect x="4158" y="0" width="623" height="100" fill="rgb(20,157,145)"/><rect x="4781" y="0" width="715" height="100" fill="rgb(40,30,120)"/><rect x="5496" y="0" width="615" height="100" fill="rgb(58,111,132)"/><rect x="6111" y="0" width="570" height="100" fill="rgb(98,140,108)"/><rect x="6681" y="0" width="507" height="100" fill="rgb(119,121,103)"/><rect x="7188" y="0" width="1052" height="100" fill="rgb(112,90,137)"/><rect x="8240" y="0" width="788" height="100" fill="rgb(115,78,120)"/><rect x="9028" y="0" width="738" height="100" fill="rgb(110,210,160)"/><rect x="9766" y="0" width="945" height="100" fill="rgb(175,10,40)"/><rect x="10711" y="0" width="348" height="100" fill="rgb(66,45,78)"/><rect x="11059" y="0" width="430" height="100" fill="rgb(56,76,158)"/><rect x="11489" y="0" width="237" height="100" fill="rgb(127,50,100)"/><rect x="11726" y="0" width="765" height="100" fill="rgb(128,151,104)"/><rect x="12491" y="0" width="490" height="100" fill="rgb(102,120,44)"/></svg>
