<svg xmlns="http://www.w3.org/2000/svg" width="13405" height="100" viewBox="0 0 13405 100"><rect x="0" y="0" width="633" height="100" fill="rgb(47,125,140)"/><rect x="633" y="0" width="710" height="100" fill="rgb(65,140,30)"/><rect x="1343" y="0" width="278" height="100" fill="rgb(90,98,60)"/><rect x="1621" y="0" width="568" height="100" fill="rgb(60,90,150)"/><rect x="2189" y="0" width="680" height="100" fill="rgb(105,70,200)"/><rect x="2869" y="0" width="437" height="100" fill="rgb(84,106,111)"/><rect x="3306" y="0" width="883" height="100" fill="rgb(143,57,125)"/><rect x="4189" y="0" width="803" height="100" fill="rgb(119,96,119)"/><rect x="4992" y="0" width="757" height="100" fill="rgb(35,190,45)"/><rect x="5749" y="0" width="515" height="100" fill="rgb(88,82,118)"/><rect x="6264" y="0" width="967" height="100" fill="rgb(144,74,84)"/><rect x="7231" y="0" width="1170" height="100" fill="rgb(124,130,118)"/><rect x="8401" y="0" width="323" height="100" fill="rgb(110,210,160)"/><rect x="8724" y="0" width="1697" height="100" fill="rgb(175,10,40)"/><rect x="10421" y="0" width="707" height="100" fill="rgb(190,117,115)"/><rect x="11128" y="0" width="650" height="100" fill="rgb(101,77,59)"/><rect x="11778" y="0" width="1060" height="100" fill="rgb(150,100,80)"/><rect x="12838" y="0" width="567" height="100" fill="rgb(122,68,92)"/></svg>
