<svg xmlns="http://www.w3.org/2000/svg" width="13383" height="100" viewBox="0 0 13383 100"><rect x="0" y="0" width="788" height="100" fill="rgb(70,60,119)"/><rect x="788" y="0" width="893" height="100" fill="rgb(100,108,162)"/><rect x="1681" y="0" width="812" height="100" fill="rgb(107,141,110)"/><rect x="2493" y="0" width="632" height="100" fill="rgb(62,98,98)"/><rect x="3125" y="0" width="925" height="100" fill="rgb(99,91,92)"/><rect x="4050" y="0" width="613" height="100" fill="rgb(118,100,55)"/><rect x="4663" y="0" width="455" height="100" fill="rgb(155,74,78)"/><rect x="5118" y="0" width="333" height="100" fill="rgb(123,32,125)"/><rect x="5451" y="0" width="653" height="100" fill="rgb(106,65,116)"/><rect x="6104" y="0" width="1052" height="100" fill="rgb(96,77,134)"/><rect x="7156" y="0" width="732" height="100" fill="rgb(99,123,118)"/><rect x="7888" y="0" width="1153" height="100" fill="rgb(110,210,160)"/><rect x="9041" y="0" width="590" height="100" fill="rgb(175,10,40)"/><rect x="9631" y="0" width="623" height="100" fill="rgb(83,132,85)"/><rect x="10254" y="0" width="877" height="100" fill="rgb(107,80,130)"/><rect x="11131" y="0" width="1020" height="100" fill="rgb(168,98,146)"/><rect x="12151" y="0" width="615" height="100" fill="rgb(123,32,125)"/><rect x="12766" y="0" width="617" height="100" fill="rgb(48,134,120)"/></svg>
