<svg xmlns="http://www.w3.org/2000/svg" width="16000" height="100" viewBox="0 0 16000 100" preserveAspectRatio="none"><rect x="0" y="0" width="963" height="100" fill="rgb(100,80,130)"/><rect x="963" y="0" width="878" height="100" fill="rgb(70,60,119)"/><rect x="1841" y="0" width="812" height="100" fill="rgb(134,40,110)"/><rect x="2653" y="0" width="1175" height="100" fill="rgb(130,75,153)"/><rect x="3828" y="0" width="565" height="100" fill="rgb(103,70,105)"/><rect x="4393" y="0" width="665" height="100" fill="rgb(92,85,114)"/><rect x="5058" y="0" width="518" height="100" fill="rgb(84,106,111)"/><rect x="5576" y="0" width="385" height="100" fill="rgb(106,60,82)"/><rect x="5961" y="0" width="672" height="100" fill="rgb(85,62,133)"/><rect x="6633" y="0" width="492" height="100" fill="rgb(75,125,108)"/><rect x="7125" y="0" width="803" height="100" fill="rgb(119,108,123)"/><rect x="7928" y="0" width="982" height="100" fill="rgb(99,123,118)"/><rect x="8910" y="0" width="692" height="100" fill="rgb(149,113,103)"/><rect x="9602" y="0" width="582" height="100" fill="rgb(142,78,100)"/><rect x="10184" y="0" width="1443" height="100" fill="rgb(110,210,160)"/><rect x="11627" y="0" width="710" height="100" fill="rgb(175,10,40)"/><rect x="12337" y="0" width="357" height="100" fill="rgb(110,103,73)"/><rect x="12694" y="0" width="975" height="100" fill="rgb(168,98,146)"/><rect x="13669" y="0" width="1122" height="100" fill="rgb(123,32,125)"/><rect x="14791" y="0" width="637" height="100" fill="rgb(123,78,150)"/><rect x="15428" y="0" width="572" height="100" fill="rgb(96,93,113)"/></svg>
