<svg xmlns="http://www.w3.org/2000/svg" width="13762" height="100" viewBox="0 0 13762 100"><rect x="0" y="0" width="462" height="100" fill="rgb(88,100,118)"/><rect x="462" y="0" width="772" height="100" fill="rgb(74,43,120)"/><rect x="1234" y="0" width="637" height="100" fill="rgb(87,65,125)"/><rect x="1871" y="0" width="845" height="100" fill="rgb(118,63,143)"/><rect x="2716" y="0" width="755" height="100" fill="rgb(135,190,115)"/><rect x="3471" y="0" width="987" height="100" fill="rgb(99,91,92)"/><rect x="4458" y="0" width="575" height="100" fill="rgb(126,80,90)"/><rect x="5033" y="0" width="433" height="100" fill="rgb(155,74,78)"/><rect x="5466" y="0" width="775" height="100" fill="rgb(135,38,78)"/><rect x="6241" y="0" width="785" height="100" fill="rgb(130,54,153)"/><rect x="7026" y="0" width="573" height="100" fill="rgb(127,94,80)"/><rect x="7599" y="0" width="1118" height="100" fill="rgb(120,88,110)"/><rect x="8717" y="0" width="908" height="100" fill="rgb(110,210,160)"/><rect x="9625" y="0" width="557" height="100" fill="rgb(175,10,40)"/><rect x="10182" y="0" width="388" height="100" fill="rgb(93,103,110)"/><rect x="10570" y="0" width="792" height="100" fill="rgb(83,132,85)"/><rect x="11362" y="0" width="722" height="100" fill="rgb(140,43,100)"/><rect x="12084" y="0" width="1118" height="100" fill="rgb(132,53,102)"/><rect x="13202" y="0" width="560" height="100" fill="rgb(133,70,150)"/></svg>
