<svg xmlns="http://www.w3.org/2000/svg" width="13315" height="100" viewBox="0 0 13315 100"><rect x="0" y="0" width="742" height="100" fill="rgb(148,58,138)"/><rect x="742" y="0" width="1143" height="100" fill="rgb(130,75,153)"/><rect x="1885" y="0" width="387" height="100" fill="rgb(103,93,110)"/><rect x="2272" y="0" width="618" height="100" fill="rgb(63,130,78)"/><rect x="2890" y="0" width="637" height="100" fill="rgb(91,106,136)"/><rect x="3527" y="0" width="830" height="100" fill="rgb(133,106,48)"/><rect x="4357" y="0" width="1277" height="100" fill="rgb(93,97,158)"/><rect x="5634" y="0" width="590" height="100" fill="rgb(127,94,80)"/><rect x="6224" y="0" width="1140" height="100" fill="rgb(120,88,110)"/><rect x="7364" y="0" width="748" height="100" fill="rgb(128,83,43)"/><rect x="8112" y="0" width="618" height="100" fill="rgb(67,48,130)"/><rect x="8730" y="0" width="357" height="100" fill="rgb(128,83,43)"/><rect x="9087" y="0" width="920" height="100" fill="rgb(110,210,160)"/><rect x="10007" y="0" width="480" height="100" fill="rgb(175,10,40)"/><rect x="10487" y="0" width="437" height="100" fill="rgb(110,103,73)"/><rect x="10924" y="0" width="812" height="100" fill="rgb(45,90,120)"/><rect x="11736" y="0" width="382" height="100" fill="rgb(122,38,122)"/><rect x="12118" y="0" width="730" height="100" fill="rgb(123,78,150)"/><rect x="12848" y="0" width="467" height="100" fill="rgb(108,104,135)"/></svg>
