<svg xmlns="http://www.w3.org/2000/svg" width="14839" height="100" viewBox="0 0 14839 100"><rect x="0" y="0" width="508" height="100" fill="rgb(91,69,119)"/><rect x="508" y="0" width="732" height="100" fill="rgb(70,60,119)"/><rect x="1240" y="0" width="670" height="100" fill="rgb(135,190,115)"/><rect x="1910" y="0" width="540" height="100" fill="rgb(118,63,143)"/><rect x="2450" y="0" width="635" height="100" fill="rgb(35,190,45)"/><rect x="3085" y="0" width="508" height="100" fill="rgb(84,106,111)"/><rect x="3593" y="0" width="725" height="100" fill="rgb(133,106,48)"/><rect x="4318" y="0" width="1215" height="100" fill="rgb(93,97,158)"/><rect x="5533" y="0" width="617" height="100" fill="rgb(148,58,138)"/><rect x="6150" y="0" width="797" height="100" fill="rgb(144,74,84)"/><rect x="6947" y="0" width="647" height="100" fill="rgb(93,45,177)"/><rect x="7594" y="0" width="778" height="100" fill="rgb(119,108,123)"/><rect x="8372" y="0" width="1392" height="100" fill="rgb(124,130,118)"/><rect x="9764" y="0" width="780" height="100" fill="rgb(110,210,160)"/><rect x="10544" y="0" width="1070" height="100" fill="rgb(175,10,40)"/><rect x="11614" y="0" width="470" height="100" fill="rgb(93,103,110)"/><rect x="12084" y="0" width="722" height="100" fill="rgb(101,77,59)"/><rect x="12806" y="0" width="848" height="100" fill="rgb(116,93,100)"/><rect x="13654" y="0" width="655" height="100" fill="rgb(128,151,104)"/><rect x="14309" y="0" width="530" height="100" fill="rgb(120,68,95)"/></svg>
