<svg xmlns="http://www.w3.org/2000/svg" width="14935" height="100" viewBox="0 0 14935 100" preserveAspectRatio="none"><rect x="0" y="0" width="805" height="100" fill="rgb(120,88,110)"/><rect x="805" y="0" width="747" height="100" fill="rgb(111,128,90)"/><rect x="1552" y="0" width="593" height="100" fill="rgb(131,120,128)"/><rect x="2145" y="0" width="600" height="100" fill="rgb(91,106,136)"/><rect x="2745" y="0" width="678" height="100" fill="rgb(92,85,114)"/><rect x="3423" y="0" width="322" height="100" fill="rgb(71,106,91)"/><rect x="3745" y="0" width="1420" height="100" fill="rgb(97,77,120)"/><rect x="5165" y="0" width="392" height="100" fill="rgb(122,68,92)"/><rect x="5557" y="0" width="1000" height="100" fill="rgb(97,80,163)"/><rect x="6557" y="0" width="633" height="100" fill="rgb(135,38,78)"/><rect x="7190" y="0" width="373" height="100" fill="rgb(82,114,108)"/><rect x="7563" y="0" width="655" height="100" fill="rgb(133,135,163)"/><rect x="8218" y="0" width="967" height="100" fill="rgb(100,108,162)"/><rect x="9185" y="0" width="728" height="100" fill="rgb(100,10,130)"/><rect x="9913" y="0" width="592" height="100" fill="rgb(110,210,160)"/><rect x="10505" y="0" width="872" height="100" fill="rgb(175,10,40)"/><rect x="11377" y="0" width="407" height="100" fill="rgb(66,45,78)"/><rect x="11784" y="0" width="860" height="100" fill="rgb(140,43,100)"/><rect x="12644" y="0" width="918" height="100" fill="rgb(168,98,146)"/><rect x="13562" y="0" width="785" height="100" fill="rgb(123,32,125)"/><rect x="14347" y="0" width="588" height="100" fill="rgb(48,134,120)"/></svg>
