<svg xmlns="http://www.w3.org/2000/svg" width="13796" height="100" viewBox="0 0 13796 100" preserveAspectRatio="none"><rect x="0" y="0" width="360" height="100" fill="rgb(88,100,118)"/><rect x="360" y="0" width="715" height="100" fill="rgb(100,80,130)"/><rect x="1075" y="0" width="573" height="100" fill="rgb(118,63,143)"/><rect x="1648" y="0" width="403" height="100" fill="rgb(63,130,78)"/><rect x="2051" y="0" width="957" height="100" fill="rgb(187,63,170)"/><rect x="3008" y="0" width="802" height="100" fill="rgb(127,94,80)"/><rect x="3810" y="0" width="737" height="100" fill="rgb(116,93,100)"/><rect x="4547" y="0" width="655" height="100" fill="rgb(135,38,78)"/><rect x="5202" y="0" width="437" height="100" fill="rgb(118,111,93)"/><rect x="5639" y="0" width="830" height="100" fill="rgb(119,108,123)"/><rect x="6469" y="0" width="1218" height="100" fill="rgb(112,90,137)"/><rect x="7687" y="0" width="940" height="100" fill="rgb(115,78,120)"/><rect x="8627" y="0" width="852" height="100" fill="rgb(110,210,160)"/><rect x="9479" y="0" width="1043" height="100" fill="rgb(175,10,40)"/><rect x="10522" y="0" width="773" height="100" fill="rgb(140,43,100)"/><rect x="11295" y="0" width="885" height="100" fill="rgb(168,98,146)"/><rect x="12180" y="0" width="1148" height="100" fill="rgb(123,32,125)"/><rect x="13328" y="0" width="468" height="100" fill="rgb(103,70,105)"/></svg>
