<svg xmlns="http://www.w3.org/2000/svg" width="15055" height="100" viewBox="0 0 15055 100" preserveAspectRatio="none"><rect x="0" y="0" width="800" height="100" fill="rgb(120,88,110)"/><rect x="800" y="0" width="768" height="100" fill="rgb(118,63,143)"/><rect x="1568" y="0" width="748" height="100" fill="rgb(60,145,93)"/><rect x="2316" y="0" width="318" height="100" fill="rgb(66,84,110)"/><rect x="2634" y="0" width="678" height="100" fill="rgb(60,90,150)"/><rect x="3312" y="0" width="597" height="100" fill="rgb(118,100,55)"/><rect x="3909" y="0" width="688" height="100" fill="rgb(91,106,136)"/><rect x="4597" y="0" width="1340" height="100" fill="rgb(97,77,120)"/><rect x="5937" y="0" width="495" height="100" fill="rgb(155,74,78)"/><rect x="6432" y="0" width="473" height="100" fill="rgb(82,114,108)"/><rect x="6905" y="0" width="490" height="100" fill="rgb(133,135,163)"/><rect x="7395" y="0" width="843" height="100" fill="rgb(100,108,162)"/><rect x="8238" y="0" width="850" height="100" fill="rgb(127,94,80)"/><rect x="9088" y="0" width="913" height="100" fill="rgb(115,78,120)"/><rect x="10001" y="0" width="1073" height="100" fill="rgb(110,210,160)"/><rect x="11074" y="0" width="873" height="100" fill="rgb(175,10,40)"/><rect x="11947" y="0" width="502" height="100" fill="rgb(66,45,78)"/><rect x="12449" y="0" width="422" height="100" fill="rgb(110,103,73)"/><rect x="12871" y="0" width="452" height="100" fill="rgb(94,87,144)"/><rect x="13323" y="0" width="1340" height="100" fill="rgb(150,100,80)"/><rect x="14663" y="0" width="392" height="100" fill="rgb(61,101,115)"/></svg>
