<svg xmlns="http://www.w3.org/2000/svg" width="15078" height="100" viewBox="0 0 15078 100"><rect x="0" y="0" width="802" height="100" fill="rgb(120,88,110)"/><rect x="802" y="0" width="768" height="100" fill="rgb(118,63,143)"/><rect x="1570" y="0" width="750" height="100" fill="rgb(60,145,93)"/><rect x="2320" y="0" width="320" height="100" fill="rgb(66,84,110)"/><rect x="2640" y="0" width="680" height="100" fill="rgb(60,90,150)"/><rect x="3320" y="0" width="597" height="100" fill="rgb(118,100,55)"/><rect x="3917" y="0" width="690" height="100" fill="rgb(91,106,136)"/><rect x="4607" y="0" width="1340" height="100" fill="rgb(97,77,120)"/><rect x="5947" y="0" width="495" height="100" fill="rgb(155,74,78)"/><rect x="6442" y="0" width="475" height="100" fill="rgb(82,114,108)"/><rect x="6917" y="0" width="490" height="100" fill="rgb(133,135,163)"/><rect x="7407" y="0" width="845" height="100" fill="rgb(100,108,162)"/><rect x="8252" y="0" width="852" height="100" fill="rgb(127,94,80)"/><rect x="9104" y="0" width="913" height="100" fill="rgb(115,78,120)"/><rect x="10017" y="0" width="1073" height="100" fill="rgb(110,210,160)"/><rect x="11090" y="0" width="875" height="100" fill="rgb(175,10,40)"/><rect x="11965" y="0" width="503" height="100" fill="rgb(66,45,78)"/><rect x="12468" y="0" width="423" height="100" fill="rgb(110,103,73)"/><rect x="12891" y="0" width="452" height="100" fill="rgb(94,87,144)"/><rect x="13343" y="0" width="1342" height="100" fill="rgb(150,100,80)"/><rect x="14685" y="0" width="393" height="100" fill="rgb(61,101,115)"/></svg>
