<svg xmlns="http://www.w3.org/2000/svg" width="17480" height="100" viewBox="0 0 17480 100"><rect x="0" y="0" width="632" height="100" fill="rgb(148,58,138)"/><rect x="632" y="0" width="417" height="100" fill="rgb(119,128,120)"/><rect x="1049" y="0" width="673" height="100" fill="rgb(60,145,93)"/><rect x="1722" y="0" width="743" height="100" fill="rgb(73,133,143)"/><rect x="2465" y="0" width="473" height="100" fill="rgb(118,111,93)"/><rect x="2938" y="0" width="867" height="100" fill="rgb(133,106,48)"/><rect x="3805" y="0" width="893" height="100" fill="rgb(99,91,92)"/><rect x="4698" y="0" width="565" height="100" fill="rgb(118,100,55)"/><rect x="5263" y="0" width="445" height="100" fill="rgb(155,74,78)"/><rect x="5708" y="0" width="583" height="100" fill="rgb(91,69,119)"/><rect x="6291" y="0" width="680" height="100" fill="rgb(95,140,123)"/><rect x="6971" y="0" width="1005" height="100" fill="rgb(106,65,116)"/><rect x="7976" y="0" width="1373" height="100" fill="rgb(96,77,134)"/><rect x="9349" y="0" width="712" height="100" fill="rgb(190,117,115)"/><rect x="10061" y="0" width="1455" height="100" fill="rgb(83,132,85)"/><rect x="11516" y="0" width="1058" height="100" fill="rgb(110,210,160)"/><rect x="12574" y="0" width="1100" height="100" fill="rgb(175,10,40)"/><rect x="13674" y="0" width="510" height="100" fill="rgb(93,103,110)"/><rect x="14184" y="0" width="1118" height="100" fill="rgb(83,132,85)"/><rect x="15302" y="0" width="1043" height="100" fill="rgb(107,80,130)"/><rect x="16345" y="0" width="587" height="100" fill="rgb(132,53,102)"/><rect x="16932" y="0" width="548" height="100" fill="rgb(102,120,44)"/></svg>
