<svg xmlns="http://www.w3.org/2000/svg" width="13062" height="100" viewBox="0 0 13062 100" preserveAspectRatio="none"><rect x="0" y="0" width="632" height="100" fill="rgb(148,58,138)"/><rect x="632" y="0" width="760" height="100" fill="rgb(111,128,90)"/><rect x="1392" y="0" width="585" height="100" fill="rgb(93,45,177)"/><rect x="1977" y="0" width="848" height="100" fill="rgb(93,77,87)"/><rect x="2825" y="0" width="260" height="100" fill="rgb(90,98,60)"/><rect x="3085" y="0" width="452" height="100" fill="rgb(108,55,118)"/><rect x="3537" y="0" width="378" height="100" fill="rgb(82,114,108)"/><rect x="3915" y="0" width="543" height="100" fill="rgb(133,135,163)"/><rect x="4458" y="0" width="862" height="100" fill="rgb(100,108,162)"/><rect x="5320" y="0" width="757" height="100" fill="rgb(120,88,110)"/><rect x="6077" y="0" width="1038" height="100" fill="rgb(99,123,118)"/><rect x="7115" y="0" width="1283" height="100" fill="rgb(106,65,116)"/><rect x="8398" y="0" width="1077" height="100" fill="rgb(190,117,115)"/><rect x="9475" y="0" width="832" height="100" fill="rgb(110,210,160)"/><rect x="10307" y="0" width="827" height="100" fill="rgb(175,10,40)"/><rect x="11134" y="0" width="732" height="100" fill="rgb(67,48,130)"/><rect x="11866" y="0" width="533" height="100" fill="rgb(106,119,105)"/><rect x="12399" y="0" width="663" height="100" fill="rgb(48,134,120)"/></svg>
