<svg xmlns="http://www.w3.org/2000/svg" width="15448" height="100" viewBox="0 0 15448 100" preserveAspectRatio="none"><rect x="0" y="0" width="585" height="100" fill="rgb(74,43,120)"/><rect x="585" y="0" width="1017" height="100" fill="rgb(200,87,50)"/><rect x="1602" y="0" width="480" height="100" fill="rgb(118,111,93)"/><rect x="2082" y="0" width="793" height="100" fill="rgb(93,77,87)"/><rect x="2875" y="0" width="863" height="100" fill="rgb(99,91,92)"/><rect x="3738" y="0" width="630" height="100" fill="rgb(87,65,125)"/><rect x="4368" y="0" width="645" height="100" fill="rgb(73,133,143)"/><rect x="5013" y="0" width="895" height="100" fill="rgb(40,30,120)"/><rect x="5908" y="0" width="1012" height="100" fill="rgb(128,83,43)"/><rect x="6920" y="0" width="1202" height="100" fill="rgb(110,110,42)"/><rect x="8122" y="0" width="592" height="100" fill="rgb(128,83,43)"/><rect x="8714" y="0" width="808" height="100" fill="rgb(116,93,100)"/><rect x="9522" y="0" width="1237" height="100" fill="rgb(190,117,115)"/><rect x="10759" y="0" width="828" height="100" fill="rgb(110,210,160)"/><rect x="11587" y="0" width="990" height="100" fill="rgb(175,10,40)"/><rect x="12577" y="0" width="498" height="100" fill="rgb(94,87,144)"/><rect x="13075" y="0" width="1018" height="100" fill="rgb(107,80,130)"/><rect x="14093" y="0" width="833" height="100" fill="rgb(132,53,102)"/><rect x="14926" y="0" width="522" height="100" fill="rgb(133,70,150)"/></svg>
