<svg xmlns="http://www.w3.org/2000/svg" width="13777" height="100" viewBox="0 0 13777 100" preserveAspectRatio="none"><rect x="0" y="0" width="673" height="100" fill="rgb(73,133,143)"/><rect x="673" y="0" width="653" height="100" fill="rgb(131,120,128)"/><rect x="1326" y="0" width="713" height="100" fill="rgb(70,60,119)"/><rect x="2039" y="0" width="640" height="100" fill="rgb(107,141,110)"/><rect x="2679" y="0" width="463" height="100" fill="rgb(110,110,130)"/><rect x="3142" y="0" width="877" height="100" fill="rgb(99,91,92)"/><rect x="4019" y="0" width="1192" height="100" fill="rgb(93,97,158)"/><rect x="5211" y="0" width="833" height="100" fill="rgb(40,30,120)"/><rect x="6044" y="0" width="1205" height="100" fill="rgb(77,100,130)"/><rect x="7249" y="0" width="805" height="100" fill="rgb(128,83,43)"/><rect x="8054" y="0" width="943" height="100" fill="rgb(110,110,42)"/><rect x="8997" y="0" width="935" height="100" fill="rgb(100,10,130)"/><rect x="9932" y="0" width="615" height="100" fill="rgb(110,210,160)"/><rect x="10547" y="0" width="583" height="100" fill="rgb(175,10,40)"/><rect x="11130" y="0" width="480" height="100" fill="rgb(93,103,110)"/><rect x="11610" y="0" width="405" height="100" fill="rgb(66,45,78)"/><rect x="12015" y="0" width="530" height="100" fill="rgb(77,100,130)"/><rect x="12545" y="0" width="487" height="100" fill="rgb(120,68,95)"/><rect x="13032" y="0" width="452" height="100" fill="rgb(128,83,43)"/><rect x="13484" y="0" width="293" height="100" fill="rgb(61,101,115)"/></svg>
