<svg xmlns="http://www.w3.org/2000/svg" width="14408" height="100" viewBox="0 0 14408 100"><rect x="0" y="0" width="807" height="100" fill="rgb(120,88,110)"/><rect x="807" y="0" width="798" height="100" fill="rgb(130,75,153)"/><rect x="1605" y="0" width="573" height="100" fill="rgb(118,100,55)"/><rect x="2178" y="0" width="265" height="100" fill="rgb(66,84,110)"/><rect x="2443" y="0" width="472" height="100" fill="rgb(60,90,150)"/><rect x="2915" y="0" width="467" height="100" fill="rgb(144,78,140)"/><rect x="3382" y="0" width="753" height="100" fill="rgb(127,94,80)"/><rect x="4135" y="0" width="318" height="100" fill="rgb(106,60,82)"/><rect x="4453" y="0" width="1253" height="100" fill="rgb(112,90,137)"/><rect x="5706" y="0" width="997" height="100" fill="rgb(97,80,163)"/><rect x="6703" y="0" width="2667" height="100" fill="rgb(77,100,130)"/><rect x="9370" y="0" width="1025" height="100" fill="rgb(110,210,160)"/><rect x="10395" y="0" width="693" height="100" fill="rgb(175,10,40)"/><rect x="11088" y="0" width="480" height="100" fill="rgb(110,103,73)"/><rect x="11568" y="0" width="550" height="100" fill="rgb(84,80,140)"/><rect x="12118" y="0" width="820" height="100" fill="rgb(140,43,100)"/><rect x="12938" y="0" width="1222" height="100" fill="rgb(123,32,125)"/><rect x="14160" y="0" width="248" height="100" fill="rgb(61,101,115)"/></svg>
