<svg xmlns="http://www.w3.org/2000/svg" width="17698" height="100" viewBox="0 0 17698 100" preserveAspectRatio="none"><rect x="0" y="0" width="827" height="100" fill="rgb(70,60,119)"/><rect x="827" y="0" width="505" height="100" fill="rgb(110,110,130)"/><rect x="1332" y="0" width="915" height="100" fill="rgb(130,75,153)"/><rect x="2247" y="0" width="788" height="100" fill="rgb(92,85,114)"/><rect x="3035" y="0" width="653" height="100" fill="rgb(93,45,177)"/><rect x="3688" y="0" width="462" height="100" fill="rgb(47,60,127)"/><rect x="4150" y="0" width="1018" height="100" fill="rgb(99,91,92)"/><rect x="5168" y="0" width="1115" height="100" fill="rgb(187,63,170)"/><rect x="6283" y="0" width="825" height="100" fill="rgb(119,96,119)"/><rect x="7108" y="0" width="1140" height="100" fill="rgb(128,83,43)"/><rect x="8248" y="0" width="1197" height="100" fill="rgb(110,110,42)"/><rect x="9445" y="0" width="235" height="100" fill="rgb(128,83,43)"/><rect x="9680" y="0" width="1938" height="100" fill="rgb(77,100,130)"/><rect x="11618" y="0" width="992" height="100" fill="rgb(110,210,160)"/><rect x="12610" y="0" width="745" height="100" fill="rgb(175,10,40)"/><rect x="13355" y="0" width="878" height="100" fill="rgb(71,88,116)"/><rect x="14233" y="0" width="523" height="100" fill="rgb(56,76,158)"/><rect x="14756" y="0" width="322" height="100" fill="rgb(127,50,100)"/><rect x="15078" y="0" width="1028" height="100" fill="rgb(168,98,146)"/><rect x="16106" y="0" width="937" height="100" fill="rgb(123,78,150)"/><rect x="17043" y="0" width="655" height="100" fill="rgb(120,68,95)"/></svg>
