<svg xmlns="http://www.w3.org/2000/svg" width="14964" height="100" viewBox="0 0 14964 100" preserveAspectRatio="none"><rect x="0" y="0" width="1310" height="100" fill="rgb(88,125,136)"/><rect x="1310" y="0" width="858" height="100" fill="rgb(130,75,153)"/><rect x="2168" y="0" width="687" height="100" fill="rgb(105,70,200)"/><rect x="2855" y="0" width="612" height="100" fill="rgb(91,106,136)"/><rect x="3467" y="0" width="1347" height="100" fill="rgb(97,77,120)"/><rect x="4814" y="0" width="637" height="100" fill="rgb(119,96,119)"/><rect x="5451" y="0" width="577" height="100" fill="rgb(58,111,132)"/><rect x="6028" y="0" width="587" height="100" fill="rgb(98,140,108)"/><rect x="6615" y="0" width="790" height="100" fill="rgb(130,54,153)"/><rect x="7405" y="0" width="745" height="100" fill="rgb(99,123,118)"/><rect x="8150" y="0" width="1343" height="100" fill="rgb(124,130,118)"/><rect x="9493" y="0" width="423" height="100" fill="rgb(100,10,130)"/><rect x="9916" y="0" width="747" height="100" fill="rgb(110,210,160)"/><rect x="10663" y="0" width="742" height="100" fill="rgb(175,10,40)"/><rect x="11405" y="0" width="447" height="100" fill="rgb(94,87,144)"/><rect x="11852" y="0" width="625" height="100" fill="rgb(84,80,140)"/><rect x="12477" y="0" width="980" height="100" fill="rgb(45,90,120)"/><rect x="13457" y="0" width="372" height="100" fill="rgb(122,38,122)"/><rect x="13829" y="0" width="605" height="100" fill="rgb(123,78,150)"/><rect x="14434" y="0" width="530" height="100" fill="rgb(133,70,150)"/></svg>
