<svg xmlns="http://www.w3.org/2000/svg" width="14473" height="100" viewBox="0 0 14473 100" preserveAspectRatio="none"><rect x="0" y="0" width="422" height="100" fill="rgb(119,128,120)"/><rect x="422" y="0" width="730" height="100" fill="rgb(35,190,45)"/><rect x="1152" y="0" width="680" height="100" fill="rgb(118,63,143)"/><rect x="1832" y="0" width="572" height="100" fill="rgb(47,60,127)"/><rect x="2404" y="0" width="552" height="100" fill="rgb(85,57,170)"/><rect x="2956" y="0" width="543" height="100" fill="rgb(110,110,130)"/><rect x="3499" y="0" width="763" height="100" fill="rgb(127,94,80)"/><rect x="4262" y="0" width="510" height="100" fill="rgb(119,121,103)"/><rect x="4772" y="0" width="343" height="100" fill="rgb(106,60,82)"/><rect x="5115" y="0" width="820" height="100" fill="rgb(97,80,163)"/><rect x="5935" y="0" width="450" height="100" fill="rgb(122,68,92)"/><rect x="6385" y="0" width="673" height="100" fill="rgb(48,134,120)"/><rect x="7058" y="0" width="1077" height="100" fill="rgb(112,90,137)"/><rect x="8135" y="0" width="823" height="100" fill="rgb(119,108,123)"/><rect x="8958" y="0" width="1177" height="100" fill="rgb(110,110,42)"/><rect x="10135" y="0" width="740" height="100" fill="rgb(110,210,160)"/><rect x="10875" y="0" width="962" height="100" fill="rgb(175,10,40)"/><rect x="11837" y="0" width="518" height="100" fill="rgb(94,87,144)"/><rect x="12355" y="0" width="425" height="100" fill="rgb(66,45,78)"/><rect x="12780" y="0" width="803" height="100" fill="rgb(140,43,100)"/><rect x="13583" y="0" width="890" height="100" fill="rgb(132,53,102)"/></svg>
