<svg xmlns="http://www.w3.org/2000/svg" width="15107" height="100" viewBox="0 0 15107 100"><rect x="0" y="0" width="382" height="100" fill="rgb(88,100,118)"/><rect x="382" y="0" width="687" height="100" fill="rgb(35,190,45)"/><rect x="1069" y="0" width="400" height="100" fill="rgb(119,128,120)"/><rect x="1469" y="0" width="747" height="100" fill="rgb(135,190,115)"/><rect x="2216" y="0" width="587" height="100" fill="rgb(84,106,111)"/><rect x="2803" y="0" width="773" height="100" fill="rgb(65,140,30)"/><rect x="3576" y="0" width="685" height="100" fill="rgb(20,157,145)"/><rect x="4261" y="0" width="535" height="100" fill="rgb(118,111,93)"/><rect x="4796" y="0" width="328" height="100" fill="rgb(106,60,82)"/><rect x="5124" y="0" width="823" height="100" fill="rgb(58,111,132)"/><rect x="5947" y="0" width="758" height="100" fill="rgb(98,140,108)"/><rect x="6705" y="0" width="1113" height="100" fill="rgb(112,90,137)"/><rect x="7818" y="0" width="1493" height="100" fill="rgb(124,130,118)"/><rect x="9311" y="0" width="1010" height="100" fill="rgb(110,210,160)"/><rect x="10321" y="0" width="1032" height="100" fill="rgb(175,10,40)"/><rect x="11353" y="0" width="665" height="100" fill="rgb(110,103,73)"/><rect x="12018" y="0" width="652" height="100" fill="rgb(84,80,140)"/><rect x="12670" y="0" width="943" height="100" fill="rgb(45,90,120)"/><rect x="13613" y="0" width="737" height="100" fill="rgb(128,151,104)"/><rect x="14350" y="0" width="757" height="100" fill="rgb(98,121,78)"/></svg>
