<svg xmlns="http://www.w3.org/2000/svg" width="14208" height="100" viewBox="0 0 14208 100"><rect x="0" y="0" width="625" height="100" fill="rgb(74,43,120)"/><rect x="625" y="0" width="923" height="100" fill="rgb(200,87,50)"/><rect x="1548" y="0" width="800" height="100" fill="rgb(97,80,163)"/><rect x="2348" y="0" width="800" height="100" fill="rgb(133,106,48)"/><rect x="3148" y="0" width="605" height="100" fill="rgb(91,106,136)"/><rect x="3753" y="0" width="1413" height="100" fill="rgb(97,77,120)"/><rect x="5166" y="0" width="583" height="100" fill="rgb(47,125,140)"/><rect x="5749" y="0" width="682" height="100" fill="rgb(95,140,123)"/><rect x="6431" y="0" width="587" height="100" fill="rgb(88,82,118)"/><rect x="7018" y="0" width="835" height="100" fill="rgb(144,74,84)"/><rect x="7853" y="0" width="1218" height="100" fill="rgb(107,35,113)"/><rect x="9071" y="0" width="882" height="100" fill="rgb(110,210,160)"/><rect x="9953" y="0" width="955" height="100" fill="rgb(175,10,40)"/><rect x="10908" y="0" width="792" height="100" fill="rgb(83,132,85)"/><rect x="11700" y="0" width="1215" height="100" fill="rgb(107,80,130)"/><rect x="12915" y="0" width="780" height="100" fill="rgb(132,53,102)"/><rect x="13695" y="0" width="513" height="100" fill="rgb(102,120,44)"/></svg>
