<svg xmlns="http://www.w3.org/2000/svg" width="14571" height="100" viewBox="0 0 14571 100"><rect x="0" y="0" width="630" height="100" fill="rgb(74,43,120)"/><rect x="630" y="0" width="692" height="100" fill="rgb(134,40,110)"/><rect x="1322" y="0" width="880" height="100" fill="rgb(127,94,80)"/><rect x="2202" y="0" width="493" height="100" fill="rgb(110,110,130)"/><rect x="2695" y="0" width="577" height="100" fill="rgb(97,80,163)"/><rect x="3272" y="0" width="502" height="100" fill="rgb(84,106,111)"/><rect x="3774" y="0" width="538" height="100" fill="rgb(88,82,118)"/><rect x="4312" y="0" width="647" height="100" fill="rgb(20,157,145)"/><rect x="4959" y="0" width="332" height="100" fill="rgb(106,60,82)"/><rect x="5291" y="0" width="383" height="100" fill="rgb(82,114,108)"/><rect x="5674" y="0" width="562" height="100" fill="rgb(133,135,163)"/><rect x="6236" y="0" width="845" height="100" fill="rgb(100,108,162)"/><rect x="7081" y="0" width="1220" height="100" fill="rgb(112,90,137)"/><rect x="8301" y="0" width="973" height="100" fill="rgb(115,78,120)"/><rect x="9274" y="0" width="1125" height="100" fill="rgb(110,210,160)"/><rect x="10399" y="0" width="922" height="100" fill="rgb(175,10,40)"/><rect x="11321" y="0" width="490" height="100" fill="rgb(110,103,73)"/><rect x="11811" y="0" width="747" height="100" fill="rgb(56,76,158)"/><rect x="12558" y="0" width="218" height="100" fill="rgb(96,88,134)"/><rect x="12776" y="0" width="540" height="100" fill="rgb(71,88,116)"/><rect x="13316" y="0" width="538" height="100" fill="rgb(146,133,119)"/><rect x="13854" y="0" width="717" height="100" fill="rgb(98,121,78)"/></svg>
