<svg xmlns="http://www.w3.org/2000/svg" width="13866" height="100" viewBox="0 0 13866 100" preserveAspectRatio="none"><rect x="0" y="0" width="685" height="100" fill="rgb(35,190,45)"/><rect x="685" y="0" width="388" height="100" fill="rgb(119,128,120)"/><rect x="1073" y="0" width="502" height="100" fill="rgb(105,70,200)"/><rect x="1575" y="0" width="590" height="100" fill="rgb(90,50,102)"/><rect x="2165" y="0" width="775" height="100" fill="rgb(120,88,110)"/><rect x="2940" y="0" width="1093" height="100" fill="rgb(110,113,140)"/><rect x="4033" y="0" width="1107" height="100" fill="rgb(97,77,120)"/><rect x="5140" y="0" width="457" height="100" fill="rgb(110,110,76)"/><rect x="5597" y="0" width="922" height="100" fill="rgb(127,94,80)"/><rect x="6519" y="0" width="885" height="100" fill="rgb(116,93,100)"/><rect x="7404" y="0" width="822" height="100" fill="rgb(128,83,43)"/><rect x="8226" y="0" width="763" height="100" fill="rgb(110,110,42)"/><rect x="8989" y="0" width="288" height="100" fill="rgb(100,10,130)"/><rect x="9277" y="0" width="1043" height="100" fill="rgb(110,210,160)"/><rect x="10320" y="0" width="773" height="100" fill="rgb(175,10,40)"/><rect x="11093" y="0" width="585" height="100" fill="rgb(84,80,140)"/><rect x="11678" y="0" width="933" height="100" fill="rgb(140,43,100)"/><rect x="12611" y="0" width="650" height="100" fill="rgb(128,151,104)"/><rect x="13261" y="0" width="605" height="100" fill="rgb(110,93,117)"/></svg>
