<svg xmlns="http://www.w3.org/2000/svg" width="16184" height="100" viewBox="0 0 16184 100"><rect x="0" y="0" width="435" height="100" fill="rgb(88,100,118)"/><rect x="435" y="0" width="1212" height="100" fill="rgb(88,125,136)"/><rect x="1647" y="0" width="815" height="100" fill="rgb(130,75,153)"/><rect x="2462" y="0" width="533" height="100" fill="rgb(144,78,140)"/><rect x="2995" y="0" width="263" height="100" fill="rgb(90,98,60)"/><rect x="3258" y="0" width="565" height="100" fill="rgb(108,55,118)"/><rect x="3823" y="0" width="1095" height="100" fill="rgb(187,63,170)"/><rect x="4918" y="0" width="920" height="100" fill="rgb(99,91,92)"/><rect x="5838" y="0" width="803" height="100" fill="rgb(40,30,120)"/><rect x="6641" y="0" width="1055" height="100" fill="rgb(106,65,116)"/><rect x="7696" y="0" width="1142" height="100" fill="rgb(96,77,134)"/><rect x="8838" y="0" width="902" height="100" fill="rgb(144,74,84)"/><rect x="9740" y="0" width="1240" height="100" fill="rgb(124,130,118)"/><rect x="10980" y="0" width="1020" height="100" fill="rgb(110,210,160)"/><rect x="12000" y="0" width="647" height="100" fill="rgb(175,10,40)"/><rect x="12647" y="0" width="748" height="100" fill="rgb(83,132,85)"/><rect x="13395" y="0" width="847" height="100" fill="rgb(107,80,130)"/><rect x="14242" y="0" width="387" height="100" fill="rgb(122,38,122)"/><rect x="14629" y="0" width="930" height="100" fill="rgb(132,53,102)"/><rect x="15559" y="0" width="625" height="100" fill="rgb(98,121,78)"/></svg>
