<svg xmlns="http://www.w3.org/2000/svg" width="15268" height="100" viewBox="0 0 15268 100" preserveAspectRatio="none"><rect x="0" y="0" width="402" height="100" fill="rgb(88,100,118)"/><rect x="402" y="0" width="407" height="100" fill="rgb(82,114,108)"/><rect x="809" y="0" width="382" height="100" fill="rgb(133,135,163)"/><rect x="1191" y="0" width="812" height="100" fill="rgb(100,108,162)"/><rect x="2003" y="0" width="687" height="100" fill="rgb(118,63,143)"/><rect x="2690" y="0" width="753" height="100" fill="rgb(135,190,115)"/><rect x="3443" y="0" width="992" height="100" fill="rgb(110,113,140)"/><rect x="4435" y="0" width="790" height="100" fill="rgb(133,106,48)"/><rect x="5225" y="0" width="483" height="100" fill="rgb(106,119,105)"/><rect x="5708" y="0" width="1018" height="100" fill="rgb(128,83,43)"/><rect x="6726" y="0" width="1008" height="100" fill="rgb(110,110,42)"/><rect x="7734" y="0" width="1337" height="100" fill="rgb(124,130,118)"/><rect x="9071" y="0" width="787" height="100" fill="rgb(87,80,88)"/><rect x="9858" y="0" width="968" height="100" fill="rgb(110,210,160)"/><rect x="10826" y="0" width="1070" height="100" fill="rgb(175,10,40)"/><rect x="11896" y="0" width="473" height="100" fill="rgb(110,103,73)"/><rect x="12369" y="0" width="768" height="100" fill="rgb(84,80,140)"/><rect x="13137" y="0" width="863" height="100" fill="rgb(140,43,100)"/><rect x="14000" y="0" width="968" height="100" fill="rgb(123,32,125)"/><rect x="14968" y="0" width="300" height="100" fill="rgb(61,101,115)"/></svg>
