<svg xmlns="http://www.w3.org/2000/svg" width="18721" height="100" viewBox="0 0 18721 100"><rect x="0" y="0" width="410" height="100" fill="rgb(82,114,108)"/><rect x="410" y="0" width="512" height="100" fill="rgb(133,135,163)"/><rect x="922" y="0" width="1473" height="100" fill="rgb(100,108,162)"/><rect x="2395" y="0" width="990" height="100" fill="rgb(130,75,153)"/><rect x="3385" y="0" width="855" height="100" fill="rgb(140,90,163)"/><rect x="4240" y="0" width="305" height="100" fill="rgb(66,84,110)"/><rect x="4545" y="0" width="645" height="100" fill="rgb(60,90,150)"/><rect x="5190" y="0" width="618" height="100" fill="rgb(122,60,121)"/><rect x="5808" y="0" width="508" height="100" fill="rgb(84,106,111)"/><rect x="6316" y="0" width="1378" height="100" fill="rgb(97,77,120)"/><rect x="7694" y="0" width="503" height="100" fill="rgb(155,74,78)"/><rect x="8197" y="0" width="612" height="100" fill="rgb(106,65,116)"/><rect x="8809" y="0" width="1835" height="100" fill="rgb(96,77,134)"/><rect x="10644" y="0" width="823" height="100" fill="rgb(190,117,115)"/><rect x="11467" y="0" width="1372" height="100" fill="rgb(107,35,113)"/><rect x="12839" y="0" width="1088" height="100" fill="rgb(110,210,160)"/><rect x="13927" y="0" width="1183" height="100" fill="rgb(175,10,40)"/><rect x="15110" y="0" width="642" height="100" fill="rgb(84,80,140)"/><rect x="15752" y="0" width="1117" height="100" fill="rgb(140,43,100)"/><rect x="16869" y="0" width="598" height="100" fill="rgb(122,38,122)"/><rect x="17467" y="0" width="617" height="100" fill="rgb(123,78,150)"/><rect x="18084" y="0" width="637" height="100" fill="rgb(144,112,106)"/></svg>
