<svg xmlns="http://www.w3.org/2000/svg" width="18280" height="100" viewBox="0 0 18280 100"><rect x="0" y="0" width="957" height="100" fill="rgb(131,120,128)"/><rect x="957" y="0" width="1012" height="100" fill="rgb(111,128,90)"/><rect x="1969" y="0" width="855" height="100" fill="rgb(135,190,115)"/><rect x="2824" y="0" width="757" height="100" fill="rgb(73,133,143)"/><rect x="3581" y="0" width="1305" height="100" fill="rgb(187,63,170)"/><rect x="4886" y="0" width="1372" height="100" fill="rgb(110,113,140)"/><rect x="6258" y="0" width="972" height="100" fill="rgb(96,108,112)"/><rect x="7230" y="0" width="582" height="100" fill="rgb(155,74,78)"/><rect x="7812" y="0" width="1795" height="100" fill="rgb(115,78,120)"/><rect x="9607" y="0" width="1298" height="100" fill="rgb(112,90,137)"/><rect x="10905" y="0" width="842" height="100" fill="rgb(120,88,110)"/><rect x="11747" y="0" width="1060" height="100" fill="rgb(100,10,130)"/><rect x="12807" y="0" width="1202" height="100" fill="rgb(110,210,160)"/><rect x="14009" y="0" width="883" height="100" fill="rgb(175,10,40)"/><rect x="14892" y="0" width="708" height="100" fill="rgb(83,132,85)"/><rect x="15600" y="0" width="445" height="100" fill="rgb(110,103,73)"/><rect x="16045" y="0" width="1287" height="100" fill="rgb(132,53,102)"/><rect x="17332" y="0" width="948" height="100" fill="rgb(96,93,113)"/></svg>
