<svg xmlns="http://www.w3.org/2000/svg" width="13678" height="100" viewBox="0 0 13678 100"><rect x="0" y="0" width="873" height="100" fill="rgb(70,60,119)"/><rect x="873" y="0" width="702" height="100" fill="rgb(131,120,128)"/><rect x="1575" y="0" width="655" height="100" fill="rgb(110,93,117)"/><rect x="2230" y="0" width="622" height="100" fill="rgb(91,106,136)"/><rect x="2852" y="0" width="560" height="100" fill="rgb(100,140,132)"/><rect x="3412" y="0" width="677" height="100" fill="rgb(144,78,140)"/><rect x="4089" y="0" width="1235" height="100" fill="rgb(93,97,158)"/><rect x="5324" y="0" width="933" height="100" fill="rgb(120,88,110)"/><rect x="6257" y="0" width="843" height="100" fill="rgb(144,74,84)"/><rect x="7100" y="0" width="898" height="100" fill="rgb(107,35,113)"/><rect x="7998" y="0" width="572" height="100" fill="rgb(83,104,118)"/><rect x="8570" y="0" width="1068" height="100" fill="rgb(110,210,160)"/><rect x="9638" y="0" width="907" height="100" fill="rgb(175,10,40)"/><rect x="10545" y="0" width="640" height="100" fill="rgb(83,132,85)"/><rect x="11185" y="0" width="760" height="100" fill="rgb(71,88,116)"/><rect x="11945" y="0" width="368" height="100" fill="rgb(122,38,122)"/><rect x="12313" y="0" width="718" height="100" fill="rgb(123,78,150)"/><rect x="13031" y="0" width="647" height="100" fill="rgb(48,134,120)"/></svg>
