<svg xmlns="http://www.w3.org/2000/svg" width="15374" height="100" viewBox="0 0 15374 100"><rect x="0" y="0" width="410" height="100" fill="rgb(119,128,120)"/><rect x="410" y="0" width="670" height="100" fill="rgb(148,58,138)"/><rect x="1080" y="0" width="737" height="100" fill="rgb(90,50,102)"/><rect x="1817" y="0" width="760" height="100" fill="rgb(107,141,110)"/><rect x="2577" y="0" width="460" height="100" fill="rgb(47,60,127)"/><rect x="3037" y="0" width="545" height="100" fill="rgb(84,106,111)"/><rect x="3582" y="0" width="1313" height="100" fill="rgb(97,77,120)"/><rect x="4895" y="0" width="1160" height="100" fill="rgb(93,97,158)"/><rect x="6055" y="0" width="1343" height="100" fill="rgb(115,78,120)"/><rect x="7398" y="0" width="785" height="100" fill="rgb(135,38,78)"/><rect x="8183" y="0" width="778" height="100" fill="rgb(119,108,123)"/><rect x="8961" y="0" width="772" height="100" fill="rgb(190,117,115)"/><rect x="9733" y="0" width="562" height="100" fill="rgb(167,145,130)"/><rect x="10295" y="0" width="998" height="100" fill="rgb(110,210,160)"/><rect x="11293" y="0" width="897" height="100" fill="rgb(175,10,40)"/><rect x="12190" y="0" width="430" height="100" fill="rgb(93,103,110)"/><rect x="12620" y="0" width="697" height="100" fill="rgb(101,77,59)"/><rect x="13317" y="0" width="915" height="100" fill="rgb(45,90,120)"/><rect x="14232" y="0" width="675" height="100" fill="rgb(122,38,122)"/><rect x="14907" y="0" width="467" height="100" fill="rgb(108,104,135)"/></svg>
