<svg xmlns="http://www.w3.org/2000/svg" width="16641" height="100" viewBox="0 0 16641 100"><rect x="0" y="0" width="635" height="100" fill="rgb(74,43,120)"/><rect x="635" y="0" width="1177" height="100" fill="rgb(200,87,50)"/><rect x="1812" y="0" width="750" height="100" fill="rgb(111,128,90)"/><rect x="2562" y="0" width="518" height="100" fill="rgb(47,60,127)"/><rect x="3080" y="0" width="632" height="100" fill="rgb(82,112,90)"/><rect x="3712" y="0" width="765" height="100" fill="rgb(92,85,114)"/><rect x="4477" y="0" width="515" height="100" fill="rgb(84,106,111)"/><rect x="4992" y="0" width="1187" height="100" fill="rgb(97,77,120)"/><rect x="6179" y="0" width="485" height="100" fill="rgb(155,74,78)"/><rect x="6664" y="0" width="695" height="100" fill="rgb(58,111,132)"/><rect x="7359" y="0" width="710" height="100" fill="rgb(98,140,108)"/><rect x="8069" y="0" width="640" height="100" fill="rgb(111,86,107)"/><rect x="8709" y="0" width="940" height="100" fill="rgb(119,108,123)"/><rect x="9649" y="0" width="1073" height="100" fill="rgb(128,83,43)"/><rect x="10722" y="0" width="1008" height="100" fill="rgb(110,210,160)"/><rect x="11730" y="0" width="1172" height="100" fill="rgb(175,10,40)"/><rect x="12902" y="0" width="245" height="100" fill="rgb(128,83,43)"/><rect x="13147" y="0" width="922" height="100" fill="rgb(140,43,100)"/><rect x="14069" y="0" width="1022" height="100" fill="rgb(168,98,146)"/><rect x="15091" y="0" width="1022" height="100" fill="rgb(123,32,125)"/><rect x="16113" y="0" width="528" height="100" fill="rgb(106,119,105)"/></svg>
