<svg xmlns="http://www.w3.org/2000/svg" width="14612" height="100" viewBox="0 0 14612 100" preserveAspectRatio="none"><rect x="0" y="0" width="878" height="100" fill="rgb(70,60,119)"/><rect x="878" y="0" width="697" height="100" fill="rgb(87,65,125)"/><rect x="1575" y="0" width="845" height="100" fill="rgb(130,75,153)"/><rect x="2420" y="0" width="755" height="100" fill="rgb(121,60,106)"/><rect x="3175" y="0" width="330" height="100" fill="rgb(66,84,110)"/><rect x="3505" y="0" width="583" height="100" fill="rgb(60,90,150)"/><rect x="4088" y="0" width="748" height="100" fill="rgb(134,40,110)"/><rect x="4836" y="0" width="672" height="100" fill="rgb(91,106,136)"/><rect x="5508" y="0" width="645" height="100" fill="rgb(100,80,130)"/><rect x="6153" y="0" width="320" height="100" fill="rgb(82,114,108)"/><rect x="6473" y="0" width="593" height="100" fill="rgb(133,135,163)"/><rect x="7066" y="0" width="912" height="100" fill="rgb(100,108,162)"/><rect x="7978" y="0" width="778" height="100" fill="rgb(190,117,115)"/><rect x="8756" y="0" width="927" height="100" fill="rgb(107,35,113)"/><rect x="9683" y="0" width="1047" height="100" fill="rgb(110,210,160)"/><rect x="10730" y="0" width="820" height="100" fill="rgb(175,10,40)"/><rect x="11550" y="0" width="497" height="100" fill="rgb(66,45,78)"/><rect x="12047" y="0" width="470" height="100" fill="rgb(110,103,73)"/><rect x="12517" y="0" width="592" height="100" fill="rgb(101,77,59)"/><rect x="13109" y="0" width="840" height="100" fill="rgb(122,38,122)"/><rect x="13949" y="0" width="663" height="100" fill="rgb(133,70,150)"/></svg>
