<svg xmlns="http://www.w3.org/2000/svg" width="15251" height="100" viewBox="0 0 15251 100" preserveAspectRatio="none"><rect x="0" y="0" width="418" height="100" fill="rgb(82,114,108)"/><rect x="418" y="0" width="582" height="100" fill="rgb(133,135,163)"/><rect x="1000" y="0" width="965" height="100" fill="rgb(100,108,162)"/><rect x="1965" y="0" width="920" height="100" fill="rgb(130,75,153)"/><rect x="2885" y="0" width="347" height="100" fill="rgb(103,93,110)"/><rect x="3232" y="0" width="730" height="100" fill="rgb(98,110,140)"/><rect x="3962" y="0" width="618" height="100" fill="rgb(119,121,103)"/><rect x="4580" y="0" width="793" height="100" fill="rgb(73,133,143)"/><rect x="5373" y="0" width="342" height="100" fill="rgb(106,60,82)"/><rect x="5715" y="0" width="712" height="100" fill="rgb(100,80,130)"/><rect x="6427" y="0" width="930" height="100" fill="rgb(128,83,43)"/><rect x="7357" y="0" width="568" height="100" fill="rgb(67,48,130)"/><rect x="7925" y="0" width="825" height="100" fill="rgb(110,110,42)"/><rect x="8750" y="0" width="1298" height="100" fill="rgb(124,130,118)"/><rect x="10048" y="0" width="980" height="100" fill="rgb(110,210,160)"/><rect x="11028" y="0" width="1150" height="100" fill="rgb(175,10,40)"/><rect x="12178" y="0" width="403" height="100" fill="rgb(66,45,78)"/><rect x="12581" y="0" width="490" height="100" fill="rgb(94,87,144)"/><rect x="13071" y="0" width="893" height="100" fill="rgb(116,93,100)"/><rect x="13964" y="0" width="767" height="100" fill="rgb(123,32,125)"/><rect x="14731" y="0" width="520" height="100" fill="rgb(120,68,95)"/></svg>
