<svg xmlns="http://www.w3.org/2000/svg" width="17107" height="100" viewBox="0 0 17107 100" preserveAspectRatio="none"><rect x="0" y="0" width="882" height="100" fill="rgb(70,60,119)"/><rect x="882" y="0" width="908" height="100" fill="rgb(65,140,30)"/><rect x="1790" y="0" width="1042" height="100" fill="rgb(98,110,140)"/><rect x="2832" y="0" width="888" height="100" fill="rgb(92,85,114)"/><rect x="3720" y="0" width="582" height="100" fill="rgb(85,57,170)"/><rect x="4302" y="0" width="645" height="100" fill="rgb(144,78,140)"/><rect x="4947" y="0" width="415" height="100" fill="rgb(119,128,120)"/><rect x="5362" y="0" width="538" height="100" fill="rgb(133,70,150)"/><rect x="5900" y="0" width="912" height="100" fill="rgb(190,117,115)"/><rect x="6812" y="0" width="785" height="100" fill="rgb(58,111,132)"/><rect x="7597" y="0" width="715" height="100" fill="rgb(98,140,108)"/><rect x="8312" y="0" width="612" height="100" fill="rgb(99,123,118)"/><rect x="8924" y="0" width="1452" height="100" fill="rgb(110,210,160)"/><rect x="10376" y="0" width="1040" height="100" fill="rgb(175,10,40)"/><rect x="11416" y="0" width="1335" height="100" fill="rgb(77,100,130)"/><rect x="12751" y="0" width="388" height="100" fill="rgb(128,83,43)"/><rect x="13139" y="0" width="1473" height="100" fill="rgb(77,100,130)"/><rect x="14612" y="0" width="1005" height="100" fill="rgb(168,98,146)"/><rect x="15617" y="0" width="768" height="100" fill="rgb(148,58,138)"/><rect x="16385" y="0" width="722" height="100" fill="rgb(128,151,104)"/></svg>
