<svg xmlns="http://www.w3.org/2000/svg" width="14498" height="100" viewBox="0 0 14498 100"><rect x="0" y="0" width="693" height="100" fill="rgb(87,65,125)"/><rect x="693" y="0" width="773" height="100" fill="rgb(70,60,119)"/><rect x="1466" y="0" width="645" height="100" fill="rgb(107,141,110)"/><rect x="2111" y="0" width="252" height="100" fill="rgb(90,98,60)"/><rect x="2363" y="0" width="535" height="100" fill="rgb(60,90,150)"/><rect x="2898" y="0" width="693" height="100" fill="rgb(140,90,163)"/><rect x="3591" y="0" width="883" height="100" fill="rgb(99,91,92)"/><rect x="4474" y="0" width="1028" height="100" fill="rgb(187,63,170)"/><rect x="5502" y="0" width="1190" height="100" fill="rgb(93,97,158)"/><rect x="6692" y="0" width="822" height="100" fill="rgb(119,108,123)"/><rect x="7514" y="0" width="1045" height="100" fill="rgb(128,83,43)"/><rect x="8559" y="0" width="808" height="100" fill="rgb(110,110,42)"/><rect x="9367" y="0" width="720" height="100" fill="rgb(100,10,130)"/><rect x="10087" y="0" width="762" height="100" fill="rgb(110,210,160)"/><rect x="10849" y="0" width="657" height="100" fill="rgb(175,10,40)"/><rect x="11506" y="0" width="588" height="100" fill="rgb(56,76,158)"/><rect x="12094" y="0" width="412" height="100" fill="rgb(66,45,78)"/><rect x="12506" y="0" width="788" height="100" fill="rgb(45,90,120)"/><rect x="13294" y="0" width="602" height="100" fill="rgb(128,151,104)"/><rect x="13896" y="0" width="602" height="100" fill="rgb(48,134,120)"/></svg>
