<svg xmlns="http://www.w3.org/2000/svg" width="16074" height="100" viewBox="0 0 16074 100" preserveAspectRatio="none"><rect x="0" y="0" width="767" height="100" fill="rgb(148,58,138)"/><rect x="767" y="0" width="735" height="100" fill="rgb(118,63,143)"/><rect x="1502" y="0" width="718" height="100" fill="rgb(60,145,93)"/><rect x="2220" y="0" width="563" height="100" fill="rgb(103,70,105)"/><rect x="2783" y="0" width="535" height="100" fill="rgb(108,55,118)"/><rect x="3318" y="0" width="588" height="100" fill="rgb(70,83,95)"/><rect x="3906" y="0" width="752" height="100" fill="rgb(65,140,30)"/><rect x="4658" y="0" width="690" height="100" fill="rgb(20,157,145)"/><rect x="5348" y="0" width="817" height="100" fill="rgb(133,106,48)"/><rect x="6165" y="0" width="725" height="100" fill="rgb(101,89,134)"/><rect x="6890" y="0" width="882" height="100" fill="rgb(127,94,80)"/><rect x="7772" y="0" width="1067" height="100" fill="rgb(115,78,120)"/><rect x="8839" y="0" width="1023" height="100" fill="rgb(112,90,137)"/><rect x="9862" y="0" width="892" height="100" fill="rgb(110,110,42)"/><rect x="10754" y="0" width="1187" height="100" fill="rgb(110,210,160)"/><rect x="11941" y="0" width="763" height="100" fill="rgb(175,10,40)"/><rect x="12704" y="0" width="773" height="100" fill="rgb(83,132,85)"/><rect x="13477" y="0" width="847" height="100" fill="rgb(107,80,130)"/><rect x="14324" y="0" width="930" height="100" fill="rgb(132,53,102)"/><rect x="15254" y="0" width="820" height="100" fill="rgb(96,93,113)"/></svg>
