<svg xmlns="http://www.w3.org/2000/svg" width="16512" height="100" viewBox="0 0 16512 100" preserveAspectRatio="none"><rect x="0" y="0" width="608" height="100" fill="rgb(148,58,138)"/><rect x="608" y="0" width="760" height="100" fill="rgb(118,63,143)"/><rect x="1368" y="0" width="772" height="100" fill="rgb(60,145,93)"/><rect x="2140" y="0" width="290" height="100" fill="rgb(90,98,60)"/><rect x="2430" y="0" width="630" height="100" fill="rgb(108,55,118)"/><rect x="3060" y="0" width="852" height="100" fill="rgb(134,40,110)"/><rect x="3912" y="0" width="553" height="100" fill="rgb(84,106,111)"/><rect x="4465" y="0" width="1405" height="100" fill="rgb(97,77,120)"/><rect x="5870" y="0" width="490" height="100" fill="rgb(103,70,105)"/><rect x="6360" y="0" width="648" height="100" fill="rgb(110,93,117)"/><rect x="7008" y="0" width="913" height="100" fill="rgb(128,83,43)"/><rect x="7921" y="0" width="880" height="100" fill="rgb(119,108,123)"/><rect x="8801" y="0" width="937" height="100" fill="rgb(110,110,42)"/><rect x="9738" y="0" width="1258" height="100" fill="rgb(110,210,160)"/><rect x="10996" y="0" width="1077" height="100" fill="rgb(175,10,40)"/><rect x="12073" y="0" width="575" height="100" fill="rgb(94,87,144)"/><rect x="12648" y="0" width="635" height="100" fill="rgb(84,80,140)"/><rect x="13283" y="0" width="993" height="100" fill="rgb(140,43,100)"/><rect x="14276" y="0" width="953" height="100" fill="rgb(168,98,146)"/><rect x="15229" y="0" width="750" height="100" fill="rgb(123,32,125)"/><rect x="15979" y="0" width="533" height="100" fill="rgb(106,119,105)"/></svg>
