<svg xmlns="http://www.w3.org/2000/svg" width="14115" height="100" viewBox="0 0 14115 100" preserveAspectRatio="none"><rect x="0" y="0" width="648" height="100" fill="rgb(87,65,125)"/><rect x="648" y="0" width="745" height="100" fill="rgb(111,128,90)"/><rect x="1393" y="0" width="580" height="100" fill="rgb(100,140,132)"/><rect x="1973" y="0" width="623" height="100" fill="rgb(80,93,90)"/><rect x="2596" y="0" width="653" height="100" fill="rgb(91,106,136)"/><rect x="3249" y="0" width="618" height="100" fill="rgb(140,90,163)"/><rect x="3867" y="0" width="610" height="100" fill="rgb(20,157,145)"/><rect x="4477" y="0" width="832" height="100" fill="rgb(40,30,120)"/><rect x="5309" y="0" width="1035" height="100" fill="rgb(120,88,110)"/><rect x="6344" y="0" width="815" height="100" fill="rgb(144,74,84)"/><rect x="7159" y="0" width="583" height="100" fill="rgb(88,82,118)"/><rect x="7742" y="0" width="577" height="100" fill="rgb(110,93,117)"/><rect x="8319" y="0" width="707" height="100" fill="rgb(95,140,123)"/><rect x="9026" y="0" width="1128" height="100" fill="rgb(110,210,160)"/><rect x="10154" y="0" width="937" height="100" fill="rgb(175,10,40)"/><rect x="11091" y="0" width="687" height="100" fill="rgb(83,132,85)"/><rect x="11778" y="0" width="1058" height="100" fill="rgb(107,80,130)"/><rect x="12836" y="0" width="787" height="100" fill="rgb(123,78,150)"/><rect x="13623" y="0" width="492" height="100" fill="rgb(150,170,127)"/></svg>
