<svg xmlns="http://www.w3.org/2000/svg" width="15946" height="100" viewBox="0 0 15946 100"><rect x="0" y="0" width="757" height="100" fill="rgb(74,43,120)"/><rect x="757" y="0" width="878" height="100" fill="rgb(93,77,87)"/><rect x="1635" y="0" width="780" height="100" fill="rgb(118,63,143)"/><rect x="2415" y="0" width="840" height="100" fill="rgb(87,65,125)"/><rect x="3255" y="0" width="262" height="100" fill="rgb(90,98,60)"/><rect x="3517" y="0" width="782" height="100" fill="rgb(70,83,95)"/><rect x="4299" y="0" width="700" height="100" fill="rgb(20,157,145)"/><rect x="4999" y="0" width="713" height="100" fill="rgb(101,89,134)"/><rect x="5712" y="0" width="902" height="100" fill="rgb(127,94,80)"/><rect x="6614" y="0" width="840" height="100" fill="rgb(148,58,138)"/><rect x="7454" y="0" width="837" height="100" fill="rgb(128,83,43)"/><rect x="8291" y="0" width="987" height="100" fill="rgb(77,100,130)"/><rect x="9278" y="0" width="1303" height="100" fill="rgb(110,210,160)"/><rect x="10581" y="0" width="523" height="100" fill="rgb(175,10,40)"/><rect x="11104" y="0" width="1092" height="100" fill="rgb(77,100,130)"/><rect x="12196" y="0" width="280" height="100" fill="rgb(128,83,43)"/><rect x="12476" y="0" width="895" height="100" fill="rgb(107,80,130)"/><rect x="13371" y="0" width="992" height="100" fill="rgb(168,98,146)"/><rect x="14363" y="0" width="960" height="100" fill="rgb(123,32,125)"/><rect x="15323" y="0" width="623" height="100" fill="rgb(133,70,150)"/></svg>
