<svg xmlns="http://www.w3.org/2000/svg" width="14049" height="100" viewBox="0 0 14049 100" preserveAspectRatio="none"><rect x="0" y="0" width="625" height="100" fill="rgb(74,43,120)"/><rect x="625" y="0" width="868" height="100" fill="rgb(200,87,50)"/><rect x="1493" y="0" width="672" height="100" fill="rgb(111,128,90)"/><rect x="2165" y="0" width="683" height="100" fill="rgb(92,85,114)"/><rect x="2848" y="0" width="303" height="100" fill="rgb(66,84,110)"/><rect x="3151" y="0" width="533" height="100" fill="rgb(70,83,95)"/><rect x="3684" y="0" width="680" height="100" fill="rgb(80,93,90)"/><rect x="4364" y="0" width="662" height="100" fill="rgb(20,157,145)"/><rect x="5026" y="0" width="742" height="100" fill="rgb(133,106,48)"/><rect x="5768" y="0" width="640" height="100" fill="rgb(73,133,143)"/><rect x="6408" y="0" width="553" height="100" fill="rgb(58,111,132)"/><rect x="6961" y="0" width="567" height="100" fill="rgb(98,140,108)"/><rect x="7528" y="0" width="823" height="100" fill="rgb(190,117,115)"/><rect x="8351" y="0" width="882" height="100" fill="rgb(107,35,113)"/><rect x="9233" y="0" width="782" height="100" fill="rgb(110,210,160)"/><rect x="10015" y="0" width="872" height="100" fill="rgb(175,10,40)"/><rect x="10887" y="0" width="462" height="100" fill="rgb(110,103,73)"/><rect x="11349" y="0" width="523" height="100" fill="rgb(66,45,78)"/><rect x="11872" y="0" width="910" height="100" fill="rgb(45,90,120)"/><rect x="12782" y="0" width="610" height="100" fill="rgb(128,151,104)"/><rect x="13392" y="0" width="657" height="100" fill="rgb(96,93,113)"/></svg>
