<svg xmlns="http://www.w3.org/2000/svg" width="17652" height="100" viewBox="0 0 17652 100"><rect x="0" y="0" width="737" height="100" fill="rgb(47,125,140)"/><rect x="737" y="0" width="843" height="100" fill="rgb(35,190,45)"/><rect x="1580" y="0" width="323" height="100" fill="rgb(66,84,110)"/><rect x="1903" y="0" width="652" height="100" fill="rgb(60,90,150)"/><rect x="2555" y="0" width="678" height="100" fill="rgb(122,60,121)"/><rect x="3233" y="0" width="1070" height="100" fill="rgb(99,91,92)"/><rect x="4303" y="0" width="425" height="100" fill="rgb(82,114,108)"/><rect x="4728" y="0" width="697" height="100" fill="rgb(133,135,163)"/><rect x="5425" y="0" width="1413" height="100" fill="rgb(100,108,162)"/><rect x="6838" y="0" width="1108" height="100" fill="rgb(128,83,43)"/><rect x="7946" y="0" width="672" height="100" fill="rgb(130,54,153)"/><rect x="8618" y="0" width="253" height="100" fill="rgb(128,83,43)"/><rect x="8871" y="0" width="1082" height="100" fill="rgb(110,110,42)"/><rect x="9953" y="0" width="1150" height="100" fill="rgb(93,97,158)"/><rect x="11103" y="0" width="1130" height="100" fill="rgb(100,10,130)"/><rect x="12233" y="0" width="730" height="100" fill="rgb(110,210,160)"/><rect x="12963" y="0" width="1223" height="100" fill="rgb(175,10,40)"/><rect x="14186" y="0" width="768" height="100" fill="rgb(101,77,59)"/><rect x="14954" y="0" width="1065" height="100" fill="rgb(140,43,100)"/><rect x="16019" y="0" width="1055" height="100" fill="rgb(122,38,122)"/><rect x="17074" y="0" width="578" height="100" fill="rgb(108,104,135)"/></svg>
