<svg xmlns="http://www.w3.org/2000/svg" width="14133" height="100" viewBox="0 0 14133 100"><rect x="0" y="0" width="612" height="100" fill="rgb(87,65,125)"/><rect x="612" y="0" width="817" height="100" fill="rgb(70,60,119)"/><rect x="1429" y="0" width="753" height="100" fill="rgb(60,145,93)"/><rect x="2182" y="0" width="652" height="100" fill="rgb(118,63,143)"/><rect x="2834" y="0" width="707" height="100" fill="rgb(135,190,115)"/><rect x="3541" y="0" width="647" height="100" fill="rgb(91,106,136)"/><rect x="4188" y="0" width="1000" height="100" fill="rgb(97,77,120)"/><rect x="5188" y="0" width="452" height="100" fill="rgb(155,74,78)"/><rect x="5640" y="0" width="710" height="100" fill="rgb(148,58,138)"/><rect x="6350" y="0" width="1128" height="100" fill="rgb(112,90,137)"/><rect x="7478" y="0" width="737" height="100" fill="rgb(119,108,123)"/><rect x="8215" y="0" width="808" height="100" fill="rgb(128,83,43)"/><rect x="9023" y="0" width="972" height="100" fill="rgb(110,210,160)"/><rect x="9995" y="0" width="548" height="100" fill="rgb(175,10,40)"/><rect x="10543" y="0" width="577" height="100" fill="rgb(84,80,140)"/><rect x="11120" y="0" width="735" height="100" fill="rgb(140,43,100)"/><rect x="11855" y="0" width="933" height="100" fill="rgb(168,98,146)"/><rect x="12788" y="0" width="832" height="100" fill="rgb(123,32,125)"/><rect x="13620" y="0" width="513" height="100" fill="rgb(106,119,105)"/></svg>
