<svg xmlns="http://www.w3.org/2000/svg" width="16396" height="100" viewBox="0 0 16396 100" preserveAspectRatio="none"><rect x="0" y="0" width="418" height="100" fill="rgb(88,100,118)"/><rect x="418" y="0" width="645" height="100" fill="rgb(148,58,138)"/><rect x="1063" y="0" width="773" height="100" fill="rgb(111,128,90)"/><rect x="1836" y="0" width="655" height="100" fill="rgb(105,70,200)"/><rect x="2491" y="0" width="625" height="100" fill="rgb(91,106,136)"/><rect x="3116" y="0" width="737" height="100" fill="rgb(135,190,115)"/><rect x="3853" y="0" width="605" height="100" fill="rgb(82,112,90)"/><rect x="4458" y="0" width="1437" height="100" fill="rgb(97,77,120)"/><rect x="5895" y="0" width="1203" height="100" fill="rgb(97,80,163)"/><rect x="7098" y="0" width="1135" height="100" fill="rgb(106,65,116)"/><rect x="8233" y="0" width="1107" height="100" fill="rgb(112,90,137)"/><rect x="9340" y="0" width="765" height="100" fill="rgb(130,54,153)"/><rect x="10105" y="0" width="692" height="100" fill="rgb(99,123,118)"/><rect x="10797" y="0" width="538" height="100" fill="rgb(100,10,130)"/><rect x="11335" y="0" width="962" height="100" fill="rgb(110,210,160)"/><rect x="12297" y="0" width="1070" height="100" fill="rgb(175,10,40)"/><rect x="13367" y="0" width="692" height="100" fill="rgb(83,132,85)"/><rect x="14059" y="0" width="880" height="100" fill="rgb(140,43,100)"/><rect x="14939" y="0" width="925" height="100" fill="rgb(132,53,102)"/><rect x="15864" y="0" width="532" height="100" fill="rgb(83,104,118)"/></svg>
