<svg xmlns="http://www.w3.org/2000/svg" width="14418" height="100" viewBox="0 0 14418 100"><rect x="0" y="0" width="597" height="100" fill="rgb(47,125,140)"/><rect x="597" y="0" width="793" height="100" fill="rgb(131,120,128)"/><rect x="1390" y="0" width="558" height="100" fill="rgb(118,63,143)"/><rect x="1948" y="0" width="792" height="100" fill="rgb(93,77,87)"/><rect x="2740" y="0" width="575" height="100" fill="rgb(82,112,90)"/><rect x="3315" y="0" width="453" height="100" fill="rgb(47,60,127)"/><rect x="3768" y="0" width="507" height="100" fill="rgb(84,106,111)"/><rect x="4275" y="0" width="1128" height="100" fill="rgb(93,97,158)"/><rect x="5403" y="0" width="423" height="100" fill="rgb(100,10,130)"/><rect x="5826" y="0" width="492" height="100" fill="rgb(103,70,105)"/><rect x="6318" y="0" width="1132" height="100" fill="rgb(115,78,120)"/><rect x="7450" y="0" width="690" height="100" fill="rgb(135,38,78)"/><rect x="8140" y="0" width="718" height="100" fill="rgb(130,54,153)"/><rect x="8858" y="0" width="1312" height="100" fill="rgb(77,100,130)"/><rect x="10170" y="0" width="1115" height="100" fill="rgb(110,210,160)"/><rect x="11285" y="0" width="553" height="100" fill="rgb(175,10,40)"/><rect x="11838" y="0" width="440" height="100" fill="rgb(77,100,130)"/><rect x="12278" y="0" width="965" height="100" fill="rgb(168,98,146)"/><rect x="13243" y="0" width="603" height="100" fill="rgb(123,32,125)"/><rect x="13846" y="0" width="90" height="100" fill="rgb(86,79,129)"/><rect x="13936" y="0" width="482" height="100" fill="rgb(106,119,105)"/></svg>
