<svg xmlns="http://www.w3.org/2000/svg" width="17714" height="100" viewBox="0 0 17714 100" preserveAspectRatio="none"><rect x="0" y="0" width="832" height="100" fill="rgb(74,43,120)"/><rect x="832" y="0" width="888" height="100" fill="rgb(131,120,128)"/><rect x="1720" y="0" width="913" height="100" fill="rgb(97,80,163)"/><rect x="2633" y="0" width="267" height="100" fill="rgb(90,98,60)"/><rect x="2900" y="0" width="723" height="100" fill="rgb(108,55,118)"/><rect x="3623" y="0" width="845" height="100" fill="rgb(140,90,163)"/><rect x="4468" y="0" width="912" height="100" fill="rgb(98,110,140)"/><rect x="5380" y="0" width="810" height="100" fill="rgb(80,93,90)"/><rect x="6190" y="0" width="1167" height="100" fill="rgb(93,97,158)"/><rect x="7357" y="0" width="355" height="100" fill="rgb(106,60,82)"/><rect x="7712" y="0" width="385" height="100" fill="rgb(132,53,102)"/><rect x="8097" y="0" width="655" height="100" fill="rgb(106,65,116)"/><rect x="8752" y="0" width="752" height="100" fill="rgb(99,123,118)"/><rect x="9504" y="0" width="845" height="100" fill="rgb(130,54,153)"/><rect x="10349" y="0" width="1088" height="100" fill="rgb(190,117,115)"/><rect x="11437" y="0" width="663" height="100" fill="rgb(100,10,130)"/><rect x="12100" y="0" width="722" height="100" fill="rgb(110,210,160)"/><rect x="12822" y="0" width="1187" height="100" fill="rgb(175,10,40)"/><rect x="14009" y="0" width="567" height="100" fill="rgb(110,103,73)"/><rect x="14576" y="0" width="570" height="100" fill="rgb(94,87,144)"/><rect x="15146" y="0" width="1087" height="100" fill="rgb(107,80,130)"/><rect x="16233" y="0" width="393" height="100" fill="rgb(122,38,122)"/><rect x="16626" y="0" width="468" height="100" fill="rgb(150,48,110)"/><rect x="17094" y="0" width="620" height="100" fill="rgb(102,120,44)"/></svg>
