<svg xmlns="http://www.w3.org/2000/svg" width="15867" height="100" viewBox="0 0 15867 100" preserveAspectRatio="none"><rect x="0" y="0" width="668" height="100" fill="rgb(148,58,138)"/><rect x="668" y="0" width="645" height="100" fill="rgb(118,63,143)"/><rect x="1313" y="0" width="620" height="100" fill="rgb(118,111,93)"/><rect x="1933" y="0" width="733" height="100" fill="rgb(60,145,93)"/><rect x="2666" y="0" width="313" height="100" fill="rgb(66,84,110)"/><rect x="2979" y="0" width="543" height="100" fill="rgb(60,90,150)"/><rect x="3522" y="0" width="823" height="100" fill="rgb(65,140,30)"/><rect x="4345" y="0" width="985" height="100" fill="rgb(127,94,80)"/><rect x="5330" y="0" width="940" height="100" fill="rgb(96,108,112)"/><rect x="6270" y="0" width="793" height="100" fill="rgb(119,96,119)"/><rect x="7063" y="0" width="557" height="100" fill="rgb(58,111,132)"/><rect x="7620" y="0" width="485" height="100" fill="rgb(98,140,108)"/><rect x="8105" y="0" width="783" height="100" fill="rgb(130,54,153)"/><rect x="8888" y="0" width="790" height="100" fill="rgb(99,123,118)"/><rect x="9678" y="0" width="750" height="100" fill="rgb(110,210,160)"/><rect x="10428" y="0" width="1180" height="100" fill="rgb(175,10,40)"/><rect x="11608" y="0" width="570" height="100" fill="rgb(56,76,158)"/><rect x="12178" y="0" width="262" height="100" fill="rgb(127,50,100)"/><rect x="12440" y="0" width="700" height="100" fill="rgb(190,117,115)"/><rect x="13140" y="0" width="1035" height="100" fill="rgb(140,43,100)"/><rect x="14175" y="0" width="925" height="100" fill="rgb(132,53,102)"/><rect x="15100" y="0" width="767" height="100" fill="rgb(98,121,78)"/></svg>
