<svg xmlns="http://www.w3.org/2000/svg" width="15087" height="100" viewBox="0 0 15087 100"><rect x="0" y="0" width="538" height="100" fill="rgb(47,125,140)"/><rect x="538" y="0" width="690" height="100" fill="rgb(35,190,45)"/><rect x="1228" y="0" width="540" height="100" fill="rgb(90,50,102)"/><rect x="1768" y="0" width="528" height="100" fill="rgb(144,78,140)"/><rect x="2296" y="0" width="623" height="100" fill="rgb(91,106,136)"/><rect x="2919" y="0" width="932" height="100" fill="rgb(187,63,170)"/><rect x="3851" y="0" width="1292" height="100" fill="rgb(93,97,158)"/><rect x="5143" y="0" width="500" height="100" fill="rgb(100,10,130)"/><rect x="5643" y="0" width="502" height="100" fill="rgb(110,110,76)"/><rect x="6145" y="0" width="702" height="100" fill="rgb(73,133,143)"/><rect x="6847" y="0" width="887" height="100" fill="rgb(120,88,110)"/><rect x="7734" y="0" width="847" height="100" fill="rgb(144,74,84)"/><rect x="8581" y="0" width="1412" height="100" fill="rgb(124,130,118)"/><rect x="9993" y="0" width="1050" height="100" fill="rgb(110,210,160)"/><rect x="11043" y="0" width="1007" height="100" fill="rgb(175,10,40)"/><rect x="12050" y="0" width="407" height="100" fill="rgb(110,103,73)"/><rect x="12457" y="0" width="548" height="100" fill="rgb(66,45,78)"/><rect x="13005" y="0" width="835" height="100" fill="rgb(45,90,120)"/><rect x="13840" y="0" width="720" height="100" fill="rgb(128,151,104)"/><rect x="14560" y="0" width="527" height="100" fill="rgb(110,93,117)"/></svg>
