<svg xmlns="http://www.w3.org/2000/svg" width="15425" height="100" viewBox="0 0 15425 100" preserveAspectRatio="none"><rect x="0" y="0" width="857" height="100" fill="rgb(131,120,128)"/><rect x="857" y="0" width="760" height="100" fill="rgb(111,128,90)"/><rect x="1617" y="0" width="508" height="100" fill="rgb(63,130,78)"/><rect x="2125" y="0" width="648" height="100" fill="rgb(91,106,136)"/><rect x="2773" y="0" width="745" height="100" fill="rgb(140,90,163)"/><rect x="3518" y="0" width="812" height="100" fill="rgb(127,94,80)"/><rect x="4330" y="0" width="800" height="100" fill="rgb(116,93,100)"/><rect x="5130" y="0" width="488" height="100" fill="rgb(155,74,78)"/><rect x="5618" y="0" width="717" height="100" fill="rgb(95,140,123)"/><rect x="6335" y="0" width="763" height="100" fill="rgb(119,108,123)"/><rect x="7098" y="0" width="550" height="100" fill="rgb(88,82,118)"/><rect x="7648" y="0" width="1185" height="100" fill="rgb(112,90,137)"/><rect x="8833" y="0" width="1270" height="100" fill="rgb(107,35,113)"/><rect x="10103" y="0" width="962" height="100" fill="rgb(110,210,160)"/><rect x="11065" y="0" width="765" height="100" fill="rgb(175,10,40)"/><rect x="11830" y="0" width="427" height="100" fill="rgb(66,45,78)"/><rect x="12257" y="0" width="868" height="100" fill="rgb(107,80,130)"/><rect x="13125" y="0" width="898" height="100" fill="rgb(168,98,146)"/><rect x="14023" y="0" width="685" height="100" fill="rgb(128,151,104)"/><rect x="14708" y="0" width="717" height="100" fill="rgb(96,93,113)"/></svg>
