<svg xmlns="http://www.w3.org/2000/svg" width="17968" height="100" viewBox="0 0 17968 100"><rect x="0" y="0" width="705" height="100" fill="rgb(74,43,120)"/><rect x="705" y="0" width="668" height="100" fill="rgb(87,65,125)"/><rect x="1373" y="0" width="1035" height="100" fill="rgb(130,75,153)"/><rect x="2408" y="0" width="852" height="100" fill="rgb(118,100,55)"/><rect x="3260" y="0" width="777" height="100" fill="rgb(91,106,136)"/><rect x="4037" y="0" width="1057" height="100" fill="rgb(133,106,48)"/><rect x="5094" y="0" width="643" height="100" fill="rgb(20,157,145)"/><rect x="5737" y="0" width="980" height="100" fill="rgb(40,30,120)"/><rect x="6717" y="0" width="817" height="100" fill="rgb(135,38,78)"/><rect x="7534" y="0" width="1023" height="100" fill="rgb(100,80,130)"/><rect x="8557" y="0" width="877" height="100" fill="rgb(144,74,84)"/><rect x="9434" y="0" width="1643" height="100" fill="rgb(107,35,113)"/><rect x="11077" y="0" width="783" height="100" fill="rgb(100,10,130)"/><rect x="11860" y="0" width="898" height="100" fill="rgb(110,210,160)"/><rect x="12758" y="0" width="1080" height="100" fill="rgb(175,10,40)"/><rect x="13838" y="0" width="947" height="100" fill="rgb(116,93,100)"/><rect x="14785" y="0" width="573" height="100" fill="rgb(100,10,130)"/><rect x="15358" y="0" width="532" height="100" fill="rgb(66,45,78)"/><rect x="15890" y="0" width="1320" height="100" fill="rgb(150,100,80)"/><rect x="17210" y="0" width="758" height="100" fill="rgb(98,121,78)"/></svg>
