<svg xmlns="http://www.w3.org/2000/svg" width="16718" height="100" viewBox="0 0 16718 100"><rect x="0" y="0" width="632" height="100" fill="rgb(47,125,140)"/><rect x="632" y="0" width="1122" height="100" fill="rgb(200,87,50)"/><rect x="1754" y="0" width="653" height="100" fill="rgb(100,140,132)"/><rect x="2407" y="0" width="618" height="100" fill="rgb(118,63,143)"/><rect x="3025" y="0" width="853" height="100" fill="rgb(65,140,30)"/><rect x="3878" y="0" width="695" height="100" fill="rgb(119,121,103)"/><rect x="4573" y="0" width="927" height="100" fill="rgb(133,106,48)"/><rect x="5500" y="0" width="618" height="100" fill="rgb(20,157,145)"/><rect x="6118" y="0" width="405" height="100" fill="rgb(106,60,82)"/><rect x="6523" y="0" width="645" height="100" fill="rgb(58,111,132)"/><rect x="7168" y="0" width="682" height="100" fill="rgb(98,140,108)"/><rect x="7850" y="0" width="712" height="100" fill="rgb(135,38,78)"/><rect x="8562" y="0" width="1437" height="100" fill="rgb(124,130,118)"/><rect x="9999" y="0" width="838" height="100" fill="rgb(100,10,130)"/><rect x="10837" y="0" width="998" height="100" fill="rgb(110,210,160)"/><rect x="11835" y="0" width="1008" height="100" fill="rgb(175,10,40)"/><rect x="12843" y="0" width="433" height="100" fill="rgb(93,103,110)"/><rect x="13276" y="0" width="1097" height="100" fill="rgb(107,80,130)"/><rect x="14373" y="0" width="898" height="100" fill="rgb(168,98,146)"/><rect x="15271" y="0" width="935" height="100" fill="rgb(123,32,125)"/><rect x="16206" y="0" width="512" height="100" fill="rgb(150,170,127)"/></svg>
