<svg xmlns="http://www.w3.org/2000/svg" width="17980" height="100" viewBox="0 0 17980 100" preserveAspectRatio="none"><rect x="0" y="0" width="705" height="100" fill="rgb(74,43,120)"/><rect x="705" y="0" width="670" height="100" fill="rgb(87,65,125)"/><rect x="1375" y="0" width="1035" height="100" fill="rgb(130,75,153)"/><rect x="2410" y="0" width="853" height="100" fill="rgb(118,100,55)"/><rect x="3263" y="0" width="778" height="100" fill="rgb(91,106,136)"/><rect x="4041" y="0" width="1058" height="100" fill="rgb(133,106,48)"/><rect x="5099" y="0" width="643" height="100" fill="rgb(20,157,145)"/><rect x="5742" y="0" width="980" height="100" fill="rgb(40,30,120)"/><rect x="6722" y="0" width="817" height="100" fill="rgb(135,38,78)"/><rect x="7539" y="0" width="1025" height="100" fill="rgb(100,80,130)"/><rect x="8564" y="0" width="878" height="100" fill="rgb(144,74,84)"/><rect x="9442" y="0" width="1643" height="100" fill="rgb(107,35,113)"/><rect x="11085" y="0" width="783" height="100" fill="rgb(100,10,130)"/><rect x="11868" y="0" width="898" height="100" fill="rgb(110,210,160)"/><rect x="12766" y="0" width="1082" height="100" fill="rgb(175,10,40)"/><rect x="13848" y="0" width="947" height="100" fill="rgb(116,93,100)"/><rect x="14795" y="0" width="575" height="100" fill="rgb(100,10,130)"/><rect x="15370" y="0" width="532" height="100" fill="rgb(66,45,78)"/><rect x="15902" y="0" width="1320" height="100" fill="rgb(150,100,80)"/><rect x="17222" y="0" width="758" height="100" fill="rgb(98,121,78)"/></svg>
