<svg xmlns="http://www.w3.org/2000/svg" width="15779" height="100" viewBox="0 0 15779 100"><rect x="0" y="0" width="1225" height="100" fill="rgb(88,125,136)"/><rect x="1225" y="0" width="628" height="100" fill="rgb(74,43,120)"/><rect x="1853" y="0" width="1140" height="100" fill="rgb(200,87,50)"/><rect x="2993" y="0" width="693" height="100" fill="rgb(93,45,177)"/><rect x="3686" y="0" width="528" height="100" fill="rgb(84,106,111)"/><rect x="4214" y="0" width="1018" height="100" fill="rgb(187,63,170)"/><rect x="5232" y="0" width="723" height="100" fill="rgb(73,133,143)"/><rect x="5955" y="0" width="765" height="100" fill="rgb(133,106,48)"/><rect x="6720" y="0" width="470" height="100" fill="rgb(155,74,78)"/><rect x="7190" y="0" width="1407" height="100" fill="rgb(112,90,137)"/><rect x="8597" y="0" width="695" height="100" fill="rgb(106,65,116)"/><rect x="9292" y="0" width="810" height="100" fill="rgb(119,108,123)"/><rect x="10102" y="0" width="1167" height="100" fill="rgb(128,83,43)"/><rect x="11269" y="0" width="828" height="100" fill="rgb(110,210,160)"/><rect x="12097" y="0" width="693" height="100" fill="rgb(175,10,40)"/><rect x="12790" y="0" width="428" height="100" fill="rgb(93,103,110)"/><rect x="13218" y="0" width="623" height="100" fill="rgb(101,77,59)"/><rect x="13841" y="0" width="870" height="100" fill="rgb(168,98,146)"/><rect x="14711" y="0" width="745" height="100" fill="rgb(123,32,125)"/><rect x="15456" y="0" width="323" height="100" fill="rgb(61,101,115)"/></svg>
