<svg xmlns="http://www.w3.org/2000/svg" width="14379" height="100" viewBox="0 0 14379 100" preserveAspectRatio="none"><rect x="0" y="0" width="688" height="100" fill="rgb(74,43,120)"/><rect x="688" y="0" width="613" height="100" fill="rgb(126,80,90)"/><rect x="1301" y="0" width="523" height="100" fill="rgb(118,111,93)"/><rect x="1824" y="0" width="652" height="100" fill="rgb(82,112,90)"/><rect x="2476" y="0" width="467" height="100" fill="rgb(62,98,98)"/><rect x="2943" y="0" width="728" height="100" fill="rgb(73,133,143)"/><rect x="3671" y="0" width="1088" height="100" fill="rgb(187,63,170)"/><rect x="4759" y="0" width="1150" height="100" fill="rgb(97,80,163)"/><rect x="5909" y="0" width="548" height="100" fill="rgb(110,110,130)"/><rect x="6457" y="0" width="993" height="100" fill="rgb(127,94,80)"/><rect x="7450" y="0" width="573" height="100" fill="rgb(58,111,132)"/><rect x="8023" y="0" width="538" height="100" fill="rgb(98,140,108)"/><rect x="8561" y="0" width="623" height="100" fill="rgb(99,123,118)"/><rect x="9184" y="0" width="1135" height="100" fill="rgb(110,210,160)"/><rect x="10319" y="0" width="848" height="100" fill="rgb(175,10,40)"/><rect x="11167" y="0" width="403" height="100" fill="rgb(66,45,78)"/><rect x="11570" y="0" width="533" height="100" fill="rgb(56,76,158)"/><rect x="12103" y="0" width="513" height="100" fill="rgb(94,87,144)"/><rect x="12616" y="0" width="1193" height="100" fill="rgb(150,100,80)"/><rect x="13809" y="0" width="570" height="100" fill="rgb(102,120,44)"/></svg>
