<svg xmlns="http://www.w3.org/2000/svg" width="15187" height="100" viewBox="0 0 15187 100"><rect x="0" y="0" width="625" height="100" fill="rgb(47,125,140)"/><rect x="625" y="0" width="698" height="100" fill="rgb(35,190,45)"/><rect x="1323" y="0" width="607" height="100" fill="rgb(93,45,177)"/><rect x="1930" y="0" width="813" height="100" fill="rgb(92,85,114)"/><rect x="2743" y="0" width="603" height="100" fill="rgb(84,106,111)"/><rect x="3346" y="0" width="1308" height="100" fill="rgb(97,77,120)"/><rect x="4654" y="0" width="477" height="100" fill="rgb(155,74,78)"/><rect x="5131" y="0" width="1655" height="100" fill="rgb(115,78,120)"/><rect x="6786" y="0" width="1478" height="100" fill="rgb(112,90,137)"/><rect x="8264" y="0" width="1832" height="100" fill="rgb(77,100,130)"/><rect x="10096" y="0" width="1038" height="100" fill="rgb(110,210,160)"/><rect x="11134" y="0" width="788" height="100" fill="rgb(175,10,40)"/><rect x="11922" y="0" width="277" height="100" fill="rgb(77,100,130)"/><rect x="12199" y="0" width="438" height="100" fill="rgb(110,103,73)"/><rect x="12637" y="0" width="942" height="100" fill="rgb(168,98,146)"/><rect x="13579" y="0" width="768" height="100" fill="rgb(146,133,119)"/><rect x="14347" y="0" width="840" height="100" fill="rgb(96,93,113)"/></svg>
