<svg xmlns="http://www.w3.org/2000/svg" width="14743" height="100" viewBox="0 0 14743 100"><rect x="0" y="0" width="672" height="100" fill="rgb(74,43,120)"/><rect x="672" y="0" width="715" height="100" fill="rgb(35,190,45)"/><rect x="1387" y="0" width="708" height="100" fill="rgb(93,45,177)"/><rect x="2095" y="0" width="522" height="100" fill="rgb(47,60,127)"/><rect x="2617" y="0" width="768" height="100" fill="rgb(73,133,143)"/><rect x="3385" y="0" width="598" height="100" fill="rgb(144,78,140)"/><rect x="3983" y="0" width="740" height="100" fill="rgb(98,110,140)"/><rect x="4723" y="0" width="867" height="100" fill="rgb(40,30,120)"/><rect x="5590" y="0" width="545" height="100" fill="rgb(103,70,105)"/><rect x="6135" y="0" width="1158" height="100" fill="rgb(120,88,110)"/><rect x="7293" y="0" width="853" height="100" fill="rgb(128,83,43)"/><rect x="8146" y="0" width="1467" height="100" fill="rgb(115,78,120)"/><rect x="9613" y="0" width="1043" height="100" fill="rgb(110,210,160)"/><rect x="10656" y="0" width="1087" height="100" fill="rgb(175,10,40)"/><rect x="11743" y="0" width="620" height="100" fill="rgb(67,48,130)"/><rect x="12363" y="0" width="452" height="100" fill="rgb(94,87,144)"/><rect x="12815" y="0" width="690" height="100" fill="rgb(101,77,59)"/><rect x="13505" y="0" width="658" height="100" fill="rgb(122,38,122)"/><rect x="14163" y="0" width="580" height="100" fill="rgb(102,120,44)"/></svg>
