<svg xmlns="http://www.w3.org/2000/svg" width="17219" height="100" viewBox="0 0 17219 100" preserveAspectRatio="none"><rect x="0" y="0" width="837" height="100" fill="rgb(70,60,119)"/><rect x="837" y="0" width="1235" height="100" fill="rgb(200,87,50)"/><rect x="2072" y="0" width="1008" height="100" fill="rgb(111,128,90)"/><rect x="3080" y="0" width="840" height="100" fill="rgb(92,85,114)"/><rect x="3920" y="0" width="672" height="100" fill="rgb(82,112,90)"/><rect x="4592" y="0" width="572" height="100" fill="rgb(47,60,127)"/><rect x="5164" y="0" width="632" height="100" fill="rgb(20,157,145)"/><rect x="5796" y="0" width="348" height="100" fill="rgb(106,60,82)"/><rect x="6144" y="0" width="980" height="100" fill="rgb(106,65,116)"/><rect x="7124" y="0" width="1508" height="100" fill="rgb(96,77,134)"/><rect x="8632" y="0" width="1025" height="100" fill="rgb(190,117,115)"/><rect x="9657" y="0" width="1513" height="100" fill="rgb(124,130,118)"/><rect x="11170" y="0" width="505" height="100" fill="rgb(100,10,130)"/><rect x="11675" y="0" width="612" height="100" fill="rgb(110,210,160)"/><rect x="12287" y="0" width="1067" height="100" fill="rgb(175,10,40)"/><rect x="13354" y="0" width="1062" height="100" fill="rgb(83,132,85)"/><rect x="14416" y="0" width="1055" height="100" fill="rgb(107,80,130)"/><rect x="15471" y="0" width="1225" height="100" fill="rgb(132,53,102)"/><rect x="16696" y="0" width="523" height="100" fill="rgb(133,70,150)"/></svg>
