<svg xmlns="http://www.w3.org/2000/svg" width="14885" height="100" viewBox="0 0 14885 100"><rect x="0" y="0" width="820" height="100" fill="rgb(70,60,119)"/><rect x="820" y="0" width="768" height="100" fill="rgb(134,40,110)"/><rect x="1588" y="0" width="623" height="100" fill="rgb(100,140,132)"/><rect x="2211" y="0" width="357" height="100" fill="rgb(71,106,91)"/><rect x="2568" y="0" width="648" height="100" fill="rgb(122,60,121)"/><rect x="3216" y="0" width="567" height="100" fill="rgb(83,104,118)"/><rect x="3783" y="0" width="712" height="100" fill="rgb(73,133,143)"/><rect x="4495" y="0" width="350" height="100" fill="rgb(106,60,82)"/><rect x="4845" y="0" width="850" height="100" fill="rgb(106,65,116)"/><rect x="5695" y="0" width="1173" height="100" fill="rgb(96,77,134)"/><rect x="6868" y="0" width="683" height="100" fill="rgb(135,38,78)"/><rect x="7551" y="0" width="655" height="100" fill="rgb(92,68,137)"/><rect x="8206" y="0" width="1103" height="100" fill="rgb(190,117,115)"/><rect x="9309" y="0" width="1158" height="100" fill="rgb(110,210,160)"/><rect x="10467" y="0" width="820" height="100" fill="rgb(175,10,40)"/><rect x="11287" y="0" width="670" height="100" fill="rgb(83,132,85)"/><rect x="11957" y="0" width="487" height="100" fill="rgb(127,50,100)"/><rect x="12444" y="0" width="397" height="100" fill="rgb(56,76,158)"/><rect x="12841" y="0" width="450" height="100" fill="rgb(127,50,100)"/><rect x="13291" y="0" width="877" height="100" fill="rgb(132,53,102)"/><rect x="14168" y="0" width="717" height="100" fill="rgb(98,121,78)"/></svg>
