<svg xmlns="http://www.w3.org/2000/svg" width="16101" height="100" viewBox="0 0 16101 100"><rect x="0" y="0" width="1275" height="100" fill="rgb(88,125,136)"/><rect x="1275" y="0" width="947" height="100" fill="rgb(130,75,153)"/><rect x="2222" y="0" width="548" height="100" fill="rgb(118,100,55)"/><rect x="2770" y="0" width="313" height="100" fill="rgb(66,84,110)"/><rect x="3083" y="0" width="537" height="100" fill="rgb(108,55,118)"/><rect x="3620" y="0" width="873" height="100" fill="rgb(93,77,87)"/><rect x="4493" y="0" width="592" height="100" fill="rgb(118,111,93)"/><rect x="5085" y="0" width="553" height="100" fill="rgb(84,106,111)"/><rect x="5638" y="0" width="803" height="100" fill="rgb(92,85,114)"/><rect x="6441" y="0" width="765" height="100" fill="rgb(119,96,119)"/><rect x="7206" y="0" width="813" height="100" fill="rgb(100,80,130)"/><rect x="8019" y="0" width="845" height="100" fill="rgb(144,74,84)"/><rect x="8864" y="0" width="893" height="100" fill="rgb(107,35,113)"/><rect x="9757" y="0" width="890" height="100" fill="rgb(190,117,115)"/><rect x="10647" y="0" width="732" height="100" fill="rgb(167,145,130)"/><rect x="11379" y="0" width="688" height="100" fill="rgb(110,210,160)"/><rect x="12067" y="0" width="1138" height="100" fill="rgb(175,10,40)"/><rect x="13205" y="0" width="578" height="100" fill="rgb(110,103,73)"/><rect x="13783" y="0" width="613" height="100" fill="rgb(84,80,140)"/><rect x="14396" y="0" width="1153" height="100" fill="rgb(150,100,80)"/><rect x="15549" y="0" width="552" height="100" fill="rgb(133,70,150)"/></svg>
