<svg xmlns="http://www.w3.org/2000/svg" width="16043" height="100" viewBox="0 0 16043 100" preserveAspectRatio="none"><rect x="0" y="0" width="673" height="100" fill="rgb(100,80,130)"/><rect x="673" y="0" width="517" height="100" fill="rgb(119,128,120)"/><rect x="1190" y="0" width="848" height="100" fill="rgb(65,140,30)"/><rect x="2038" y="0" width="890" height="100" fill="rgb(130,75,153)"/><rect x="2928" y="0" width="847" height="100" fill="rgb(135,190,115)"/><rect x="3775" y="0" width="775" height="100" fill="rgb(98,110,140)"/><rect x="4550" y="0" width="645" height="100" fill="rgb(144,78,140)"/><rect x="5195" y="0" width="758" height="100" fill="rgb(73,133,143)"/><rect x="5953" y="0" width="478" height="100" fill="rgb(103,70,105)"/><rect x="6431" y="0" width="637" height="100" fill="rgb(87,65,125)"/><rect x="7068" y="0" width="708" height="100" fill="rgb(135,38,78)"/><rect x="7776" y="0" width="1408" height="100" fill="rgb(115,78,120)"/><rect x="9184" y="0" width="1353" height="100" fill="rgb(110,210,160)"/><rect x="10537" y="0" width="1192" height="100" fill="rgb(175,10,40)"/><rect x="11729" y="0" width="743" height="100" fill="rgb(83,104,118)"/><rect x="12472" y="0" width="1042" height="100" fill="rgb(45,90,120)"/><rect x="13514" y="0" width="878" height="100" fill="rgb(168,98,146)"/><rect x="14392" y="0" width="1118" height="100" fill="rgb(123,32,125)"/><rect x="15510" y="0" width="533" height="100" fill="rgb(133,70,150)"/></svg>
