<svg xmlns="http://www.w3.org/2000/svg" width="15900" height="100" viewBox="0 0 15900 100"><rect x="0" y="0" width="757" height="100" fill="rgb(74,43,120)"/><rect x="757" y="0" width="743" height="100" fill="rgb(35,190,45)"/><rect x="1500" y="0" width="763" height="100" fill="rgb(118,63,143)"/><rect x="2263" y="0" width="1100" height="100" fill="rgb(92,85,114)"/><rect x="3363" y="0" width="330" height="100" fill="rgb(71,106,91)"/><rect x="3693" y="0" width="803" height="100" fill="rgb(62,98,98)"/><rect x="4496" y="0" width="797" height="100" fill="rgb(119,121,103)"/><rect x="5293" y="0" width="1425" height="100" fill="rgb(93,97,158)"/><rect x="6718" y="0" width="602" height="100" fill="rgb(132,53,102)"/><rect x="7320" y="0" width="1293" height="100" fill="rgb(120,88,110)"/><rect x="8613" y="0" width="887" height="100" fill="rgb(128,83,43)"/><rect x="9500" y="0" width="1253" height="100" fill="rgb(124,130,118)"/><rect x="10753" y="0" width="272" height="100" fill="rgb(128,83,43)"/><rect x="11025" y="0" width="1067" height="100" fill="rgb(110,210,160)"/><rect x="12092" y="0" width="852" height="100" fill="rgb(175,10,40)"/><rect x="12944" y="0" width="475" height="100" fill="rgb(110,103,73)"/><rect x="13419" y="0" width="930" height="100" fill="rgb(45,90,120)"/><rect x="14349" y="0" width="377" height="100" fill="rgb(122,38,122)"/><rect x="14726" y="0" width="657" height="100" fill="rgb(150,48,110)"/><rect x="15383" y="0" width="517" height="100" fill="rgb(103,70,105)"/></svg>
