<svg xmlns="http://www.w3.org/2000/svg" width="15077" height="100" viewBox="0 0 15077 100" preserveAspectRatio="none"><rect x="0" y="0" width="662" height="100" fill="rgb(73,133,143)"/><rect x="662" y="0" width="1212" height="100" fill="rgb(200,87,50)"/><rect x="1874" y="0" width="325" height="100" fill="rgb(66,84,110)"/><rect x="2199" y="0" width="593" height="100" fill="rgb(108,55,118)"/><rect x="2792" y="0" width="895" height="100" fill="rgb(121,60,106)"/><rect x="3687" y="0" width="1092" height="100" fill="rgb(99,91,92)"/><rect x="4779" y="0" width="663" height="100" fill="rgb(140,90,163)"/><rect x="5442" y="0" width="740" height="100" fill="rgb(119,96,119)"/><rect x="6182" y="0" width="783" height="100" fill="rgb(100,80,130)"/><rect x="6965" y="0" width="892" height="100" fill="rgb(144,74,84)"/><rect x="7857" y="0" width="713" height="100" fill="rgb(128,90,88)"/><rect x="8570" y="0" width="1037" height="100" fill="rgb(128,83,43)"/><rect x="9607" y="0" width="872" height="100" fill="rgb(110,110,42)"/><rect x="10479" y="0" width="1097" height="100" fill="rgb(110,210,160)"/><rect x="11576" y="0" width="1237" height="100" fill="rgb(175,10,40)"/><rect x="12813" y="0" width="637" height="100" fill="rgb(83,104,118)"/><rect x="13450" y="0" width="1150" height="100" fill="rgb(150,100,80)"/><rect x="14600" y="0" width="477" height="100" fill="rgb(108,104,135)"/></svg>
