<svg xmlns="http://www.w3.org/2000/svg" width="15809" height="100" viewBox="0 0 15809 100" preserveAspectRatio="none"><rect x="0" y="0" width="877" height="100" fill="rgb(70,60,119)"/><rect x="877" y="0" width="778" height="100" fill="rgb(35,190,45)"/><rect x="1655" y="0" width="817" height="100" fill="rgb(111,128,90)"/><rect x="2472" y="0" width="612" height="100" fill="rgb(122,60,121)"/><rect x="3084" y="0" width="433" height="100" fill="rgb(103,93,110)"/><rect x="3517" y="0" width="778" height="100" fill="rgb(91,106,136)"/><rect x="4295" y="0" width="1008" height="100" fill="rgb(134,40,110)"/><rect x="5303" y="0" width="825" height="100" fill="rgb(119,96,119)"/><rect x="6128" y="0" width="333" height="100" fill="rgb(106,60,82)"/><rect x="6461" y="0" width="863" height="100" fill="rgb(131,120,128)"/><rect x="7324" y="0" width="828" height="100" fill="rgb(111,86,107)"/><rect x="8152" y="0" width="818" height="100" fill="rgb(90,50,118)"/><rect x="8970" y="0" width="1478" height="100" fill="rgb(110,110,42)"/><rect x="10448" y="0" width="1228" height="100" fill="rgb(110,210,160)"/><rect x="11676" y="0" width="1282" height="100" fill="rgb(175,10,40)"/><rect x="12958" y="0" width="812" height="100" fill="rgb(101,77,59)"/><rect x="13770" y="0" width="517" height="100" fill="rgb(120,68,95)"/><rect x="14287" y="0" width="1055" height="100" fill="rgb(123,78,150)"/><rect x="15342" y="0" width="467" height="100" fill="rgb(122,68,92)"/></svg>
