<svg xmlns="http://www.w3.org/2000/svg" width="16693" height="100" viewBox="0 0 16693 100" preserveAspectRatio="none"><rect x="0" y="0" width="648" height="100" fill="rgb(148,58,138)"/><rect x="648" y="0" width="532" height="100" fill="rgb(119,128,120)"/><rect x="1180" y="0" width="880" height="100" fill="rgb(135,190,115)"/><rect x="2060" y="0" width="913" height="100" fill="rgb(111,128,90)"/><rect x="2973" y="0" width="788" height="100" fill="rgb(60,145,93)"/><rect x="3761" y="0" width="542" height="100" fill="rgb(60,90,150)"/><rect x="4303" y="0" width="922" height="100" fill="rgb(70,83,95)"/><rect x="5225" y="0" width="957" height="100" fill="rgb(187,63,170)"/><rect x="6182" y="0" width="1428" height="100" fill="rgb(93,97,158)"/><rect x="7610" y="0" width="833" height="100" fill="rgb(135,38,78)"/><rect x="8443" y="0" width="1437" height="100" fill="rgb(115,78,120)"/><rect x="9880" y="0" width="722" height="100" fill="rgb(111,86,107)"/><rect x="10602" y="0" width="908" height="100" fill="rgb(100,10,130)"/><rect x="11510" y="0" width="1190" height="100" fill="rgb(110,210,160)"/><rect x="12700" y="0" width="853" height="100" fill="rgb(175,10,40)"/><rect x="13553" y="0" width="878" height="100" fill="rgb(83,132,85)"/><rect x="14431" y="0" width="1023" height="100" fill="rgb(107,80,130)"/><rect x="15454" y="0" width="687" height="100" fill="rgb(123,78,150)"/><rect x="16141" y="0" width="552" height="100" fill="rgb(120,68,95)"/></svg>
