<svg xmlns="http://www.w3.org/2000/svg" width="16228" height="100" viewBox="0 0 16228 100" preserveAspectRatio="none"><rect x="0" y="0" width="1388" height="100" fill="rgb(88,125,136)"/><rect x="1388" y="0" width="592" height="100" fill="rgb(20,135,90)"/><rect x="1980" y="0" width="640" height="100" fill="rgb(96,87,102)"/><rect x="2620" y="0" width="718" height="100" fill="rgb(82,112,90)"/><rect x="3338" y="0" width="900" height="100" fill="rgb(80,93,90)"/><rect x="4238" y="0" width="857" height="100" fill="rgb(20,157,145)"/><rect x="5095" y="0" width="938" height="100" fill="rgb(40,30,120)"/><rect x="6033" y="0" width="392" height="100" fill="rgb(82,114,108)"/><rect x="6425" y="0" width="735" height="100" fill="rgb(133,135,163)"/><rect x="7160" y="0" width="1030" height="100" fill="rgb(100,108,162)"/><rect x="8190" y="0" width="1308" height="100" fill="rgb(112,90,137)"/><rect x="9498" y="0" width="1232" height="100" fill="rgb(77,100,130)"/><rect x="10730" y="0" width="505" height="100" fill="rgb(110,210,160)"/><rect x="11235" y="0" width="828" height="100" fill="rgb(175,10,40)"/><rect x="12063" y="0" width="1220" height="100" fill="rgb(77,100,130)"/><rect x="13283" y="0" width="428" height="100" fill="rgb(66,45,78)"/><rect x="13711" y="0" width="900" height="100" fill="rgb(116,93,100)"/><rect x="14611" y="0" width="945" height="100" fill="rgb(128,151,104)"/><rect x="15556" y="0" width="672" height="100" fill="rgb(98,121,78)"/></svg>
