<svg xmlns="http://www.w3.org/2000/svg" width="15596" height="100" viewBox="0 0 15596 100"><rect x="0" y="0" width="507" height="100" fill="rgb(80,93,129)"/><rect x="507" y="0" width="827" height="100" fill="rgb(92,85,114)"/><rect x="1334" y="0" width="858" height="100" fill="rgb(90,50,102)"/><rect x="2192" y="0" width="768" height="100" fill="rgb(60,145,93)"/><rect x="2960" y="0" width="1070" height="100" fill="rgb(99,91,92)"/><rect x="4030" y="0" width="1068" height="100" fill="rgb(187,63,170)"/><rect x="5098" y="0" width="602" height="100" fill="rgb(47,125,140)"/><rect x="5700" y="0" width="792" height="100" fill="rgb(127,94,80)"/><rect x="6492" y="0" width="887" height="100" fill="rgb(119,108,123)"/><rect x="7379" y="0" width="838" height="100" fill="rgb(128,83,43)"/><rect x="8217" y="0" width="1932" height="100" fill="rgb(124,130,118)"/><rect x="10149" y="0" width="978" height="100" fill="rgb(110,210,160)"/><rect x="11127" y="0" width="945" height="100" fill="rgb(175,10,40)"/><rect x="12072" y="0" width="468" height="100" fill="rgb(110,103,73)"/><rect x="12540" y="0" width="375" height="100" fill="rgb(66,45,78)"/><rect x="12915" y="0" width="950" height="100" fill="rgb(107,80,130)"/><rect x="13865" y="0" width="1188" height="100" fill="rgb(132,53,102)"/><rect x="15053" y="0" width="543" height="100" fill="rgb(102,120,44)"/></svg>
