<svg xmlns="http://www.w3.org/2000/svg" width="17312" height="100" viewBox="0 0 17312 100"><rect x="0" y="0" width="700" height="100" fill="rgb(148,58,138)"/><rect x="700" y="0" width="1005" height="100" fill="rgb(90,50,102)"/><rect x="1705" y="0" width="683" height="100" fill="rgb(105,70,200)"/><rect x="2388" y="0" width="573" height="100" fill="rgb(60,90,150)"/><rect x="2961" y="0" width="655" height="100" fill="rgb(88,82,118)"/><rect x="3616" y="0" width="768" height="100" fill="rgb(65,140,30)"/><rect x="4384" y="0" width="668" height="100" fill="rgb(84,106,111)"/><rect x="5052" y="0" width="1437" height="100" fill="rgb(97,77,120)"/><rect x="6489" y="0" width="832" height="100" fill="rgb(127,94,80)"/><rect x="7321" y="0" width="1077" height="100" fill="rgb(106,65,116)"/><rect x="8398" y="0" width="1350" height="100" fill="rgb(96,77,134)"/><rect x="9748" y="0" width="1247" height="100" fill="rgb(110,210,160)"/><rect x="10995" y="0" width="1523" height="100" fill="rgb(175,10,40)"/><rect x="12518" y="0" width="812" height="100" fill="rgb(83,132,85)"/><rect x="13330" y="0" width="990" height="100" fill="rgb(140,43,100)"/><rect x="14320" y="0" width="857" height="100" fill="rgb(168,98,146)"/><rect x="15177" y="0" width="1203" height="100" fill="rgb(123,32,125)"/><rect x="16380" y="0" width="932" height="100" fill="rgb(96,93,113)"/></svg>
