<svg xmlns="http://www.w3.org/2000/svg" width="14199" height="100" viewBox="0 0 14199 100"><rect x="0" y="0" width="622" height="100" fill="rgb(88,100,118)"/><rect x="622" y="0" width="667" height="100" fill="rgb(47,125,140)"/><rect x="1289" y="0" width="935" height="100" fill="rgb(93,77,87)"/><rect x="2224" y="0" width="485" height="100" fill="rgb(47,60,127)"/><rect x="2709" y="0" width="883" height="100" fill="rgb(110,113,140)"/><rect x="3592" y="0" width="788" height="100" fill="rgb(133,106,48)"/><rect x="4380" y="0" width="492" height="100" fill="rgb(155,74,78)"/><rect x="4872" y="0" width="723" height="100" fill="rgb(58,111,132)"/><rect x="5595" y="0" width="530" height="100" fill="rgb(98,140,108)"/><rect x="6125" y="0" width="798" height="100" fill="rgb(130,54,153)"/><rect x="6923" y="0" width="850" height="100" fill="rgb(190,117,115)"/><rect x="7773" y="0" width="447" height="100" fill="rgb(167,145,130)"/><rect x="8220" y="0" width="938" height="100" fill="rgb(107,35,113)"/><rect x="9158" y="0" width="970" height="100" fill="rgb(110,210,160)"/><rect x="10128" y="0" width="1543" height="100" fill="rgb(175,10,40)"/><rect x="11671" y="0" width="598" height="100" fill="rgb(84,80,140)"/><rect x="12269" y="0" width="625" height="100" fill="rgb(67,48,130)"/><rect x="12894" y="0" width="758" height="100" fill="rgb(106,119,105)"/><rect x="13652" y="0" width="547" height="100" fill="rgb(110,93,117)"/></svg>
