<svg xmlns="http://www.w3.org/2000/svg" width="15484" height="100" viewBox="0 0 15484 100" preserveAspectRatio="none"><rect x="0" y="0" width="772" height="100" fill="rgb(148,58,138)"/><rect x="772" y="0" width="515" height="100" fill="rgb(119,128,120)"/><rect x="1287" y="0" width="847" height="100" fill="rgb(65,140,30)"/><rect x="2134" y="0" width="823" height="100" fill="rgb(98,110,140)"/><rect x="2957" y="0" width="787" height="100" fill="rgb(93,77,87)"/><rect x="3744" y="0" width="478" height="100" fill="rgb(84,106,111)"/><rect x="4222" y="0" width="847" height="100" fill="rgb(92,85,114)"/><rect x="5069" y="0" width="1272" height="100" fill="rgb(93,97,158)"/><rect x="6341" y="0" width="645" height="100" fill="rgb(100,80,130)"/><rect x="6986" y="0" width="1345" height="100" fill="rgb(112,90,137)"/><rect x="8331" y="0" width="715" height="100" fill="rgb(104,48,116)"/><rect x="9046" y="0" width="935" height="100" fill="rgb(107,35,113)"/><rect x="9981" y="0" width="963" height="100" fill="rgb(110,210,160)"/><rect x="10944" y="0" width="1033" height="100" fill="rgb(175,10,40)"/><rect x="11977" y="0" width="905" height="100" fill="rgb(83,132,85)"/><rect x="12882" y="0" width="515" height="100" fill="rgb(110,103,73)"/><rect x="13397" y="0" width="900" height="100" fill="rgb(168,98,146)"/><rect x="14297" y="0" width="507" height="100" fill="rgb(106,119,105)"/><rect x="14804" y="0" width="312" height="100" fill="rgb(15,110,128)"/><rect x="15116" y="0" width="368" height="100" fill="rgb(163,115,143)"/></svg>
