<svg xmlns="http://www.w3.org/2000/svg" width="15137" height="100" viewBox="0 0 15137 100" preserveAspectRatio="none"><rect x="0" y="0" width="868" height="100" fill="rgb(148,58,138)"/><rect x="868" y="0" width="652" height="100" fill="rgb(119,128,120)"/><rect x="1520" y="0" width="1282" height="100" fill="rgb(187,63,170)"/><rect x="2802" y="0" width="307" height="100" fill="rgb(102,23,114)"/><rect x="3109" y="0" width="347" height="100" fill="rgb(103,93,110)"/><rect x="3456" y="0" width="823" height="100" fill="rgb(99,91,92)"/><rect x="4279" y="0" width="673" height="100" fill="rgb(127,144,76)"/><rect x="4952" y="0" width="447" height="100" fill="rgb(122,68,92)"/><rect x="5399" y="0" width="863" height="100" fill="rgb(135,38,78)"/><rect x="6262" y="0" width="907" height="100" fill="rgb(118,116,98)"/><rect x="7169" y="0" width="762" height="100" fill="rgb(190,117,115)"/><rect x="7931" y="0" width="1193" height="100" fill="rgb(107,35,113)"/><rect x="9124" y="0" width="1300" height="100" fill="rgb(110,210,160)"/><rect x="10424" y="0" width="1013" height="100" fill="rgb(175,10,40)"/><rect x="11437" y="0" width="617" height="100" fill="rgb(83,132,85)"/><rect x="12054" y="0" width="778" height="100" fill="rgb(101,77,59)"/><rect x="12832" y="0" width="1405" height="100" fill="rgb(150,100,80)"/><rect x="14237" y="0" width="365" height="100" fill="rgb(15,110,128)"/><rect x="14602" y="0" width="535" height="100" fill="rgb(163,115,143)"/></svg>
