<svg xmlns="http://www.w3.org/2000/svg" width="14871" height="100" viewBox="0 0 14871 100"><rect x="0" y="0" width="660" height="100" fill="rgb(74,43,120)"/><rect x="660" y="0" width="717" height="100" fill="rgb(35,190,45)"/><rect x="1377" y="0" width="735" height="100" fill="rgb(104,48,116)"/><rect x="2112" y="0" width="797" height="100" fill="rgb(105,70,200)"/><rect x="2909" y="0" width="567" height="100" fill="rgb(115,50,185)"/><rect x="3476" y="0" width="780" height="100" fill="rgb(133,106,48)"/><rect x="4256" y="0" width="908" height="100" fill="rgb(119,96,119)"/><rect x="5164" y="0" width="1163" height="100" fill="rgb(65,131,115)"/><rect x="6327" y="0" width="693" height="100" fill="rgb(138,93,82)"/><rect x="7020" y="0" width="872" height="100" fill="rgb(128,83,43)"/><rect x="7892" y="0" width="1165" height="100" fill="rgb(124,130,118)"/><rect x="9057" y="0" width="635" height="100" fill="rgb(100,10,130)"/><rect x="9692" y="0" width="900" height="100" fill="rgb(110,210,160)"/><rect x="10592" y="0" width="1267" height="100" fill="rgb(175,10,40)"/><rect x="11859" y="0" width="567" height="100" fill="rgb(83,104,118)"/><rect x="12426" y="0" width="812" height="100" fill="rgb(140,43,100)"/><rect x="13238" y="0" width="973" height="100" fill="rgb(132,53,102)"/><rect x="14211" y="0" width="660" height="100" fill="rgb(110,93,117)"/></svg>
