<svg xmlns="http://www.w3.org/2000/svg" width="15350" height="100" viewBox="0 0 15350 100"><rect x="0" y="0" width="1330" height="100" fill="rgb(131,120,128)"/><rect x="1330" y="0" width="928" height="100" fill="rgb(130,75,153)"/><rect x="2258" y="0" width="710" height="100" fill="rgb(65,140,30)"/><rect x="2968" y="0" width="670" height="100" fill="rgb(84,106,111)"/><rect x="3638" y="0" width="577" height="100" fill="rgb(144,78,140)"/><rect x="4215" y="0" width="782" height="100" fill="rgb(20,157,145)"/><rect x="4997" y="0" width="720" height="100" fill="rgb(140,90,163)"/><rect x="5717" y="0" width="987" height="100" fill="rgb(100,80,130)"/><rect x="6704" y="0" width="850" height="100" fill="rgb(127,94,80)"/><rect x="7554" y="0" width="930" height="100" fill="rgb(110,110,42)"/><rect x="8484" y="0" width="1055" height="100" fill="rgb(90,150,75)"/><rect x="9539" y="0" width="1445" height="100" fill="rgb(110,210,160)"/><rect x="10984" y="0" width="1202" height="100" fill="rgb(175,10,40)"/><rect x="12186" y="0" width="512" height="100" fill="rgb(110,103,73)"/><rect x="12698" y="0" width="537" height="100" fill="rgb(84,80,140)"/><rect x="13235" y="0" width="628" height="100" fill="rgb(67,48,130)"/><rect x="13863" y="0" width="710" height="100" fill="rgb(106,119,105)"/><rect x="14573" y="0" width="777" height="100" fill="rgb(95,165,50)"/></svg>
