<svg xmlns="http://www.w3.org/2000/svg" width="15450" height="100" viewBox="0 0 15450 100" preserveAspectRatio="none"><rect x="0" y="0" width="697" height="100" fill="rgb(65,131,115)"/><rect x="697" y="0" width="848" height="100" fill="rgb(111,128,90)"/><rect x="1545" y="0" width="763" height="100" fill="rgb(92,85,114)"/><rect x="2308" y="0" width="580" height="100" fill="rgb(115,50,185)"/><rect x="2888" y="0" width="548" height="100" fill="rgb(84,106,111)"/><rect x="3436" y="0" width="728" height="100" fill="rgb(127,144,76)"/><rect x="4164" y="0" width="1358" height="100" fill="rgb(93,97,158)"/><rect x="5522" y="0" width="683" height="100" fill="rgb(35,190,45)"/><rect x="6205" y="0" width="632" height="100" fill="rgb(123,78,150)"/><rect x="6837" y="0" width="932" height="100" fill="rgb(110,110,42)"/><rect x="7769" y="0" width="1607" height="100" fill="rgb(128,83,43)"/><rect x="9376" y="0" width="1393" height="100" fill="rgb(110,210,160)"/><rect x="10769" y="0" width="962" height="100" fill="rgb(175,10,40)"/><rect x="11731" y="0" width="923" height="100" fill="rgb(90,150,75)"/><rect x="12654" y="0" width="493" height="100" fill="rgb(120,68,95)"/><rect x="13147" y="0" width="933" height="100" fill="rgb(168,98,146)"/><rect x="14080" y="0" width="762" height="100" fill="rgb(123,32,125)"/><rect x="14842" y="0" width="608" height="100" fill="rgb(105,83,225)"/></svg>
