<svg xmlns="http://www.w3.org/2000/svg" width="15955" height="100" viewBox="0 0 15955 100" preserveAspectRatio="none"><rect x="0" y="0" width="487" height="100" fill="rgb(180,50,140)"/><rect x="487" y="0" width="1283" height="100" fill="rgb(88,125,136)"/><rect x="1770" y="0" width="645" height="100" fill="rgb(90,50,102)"/><rect x="2415" y="0" width="780" height="100" fill="rgb(87,65,125)"/><rect x="3195" y="0" width="617" height="100" fill="rgb(91,106,136)"/><rect x="3812" y="0" width="838" height="100" fill="rgb(65,140,30)"/><rect x="4650" y="0" width="917" height="100" fill="rgb(100,160,180)"/><rect x="5567" y="0" width="343" height="100" fill="rgb(106,60,82)"/><rect x="5910" y="0" width="623" height="100" fill="rgb(58,111,132)"/><rect x="6533" y="0" width="570" height="100" fill="rgb(98,140,108)"/><rect x="7103" y="0" width="1235" height="100" fill="rgb(112,90,137)"/><rect x="8338" y="0" width="1028" height="100" fill="rgb(115,78,120)"/><rect x="9366" y="0" width="1298" height="100" fill="rgb(110,210,160)"/><rect x="10664" y="0" width="1390" height="100" fill="rgb(175,10,40)"/><rect x="12054" y="0" width="647" height="100" fill="rgb(138,93,82)"/><rect x="12701" y="0" width="990" height="100" fill="rgb(123,68,118)"/><rect x="13691" y="0" width="928" height="100" fill="rgb(168,98,146)"/><rect x="14619" y="0" width="633" height="100" fill="rgb(123,32,125)"/><rect x="15252" y="0" width="703" height="100" fill="rgb(105,83,225)"/></svg>
