<svg xmlns="http://www.w3.org/2000/svg" width="14861" height="100" viewBox="0 0 14861 100"><rect x="0" y="0" width="388" height="100" fill="rgb(82,114,108)"/><rect x="388" y="0" width="672" height="100" fill="rgb(133,135,163)"/><rect x="1060" y="0" width="1008" height="100" fill="rgb(100,108,162)"/><rect x="2068" y="0" width="910" height="100" fill="rgb(111,128,90)"/><rect x="2978" y="0" width="798" height="100" fill="rgb(92,85,114)"/><rect x="3776" y="0" width="540" height="100" fill="rgb(84,106,111)"/><rect x="4316" y="0" width="1423" height="100" fill="rgb(97,77,120)"/><rect x="5739" y="0" width="633" height="100" fill="rgb(125,85,163)"/><rect x="6372" y="0" width="772" height="100" fill="rgb(127,144,76)"/><rect x="7144" y="0" width="1587" height="100" fill="rgb(112,90,137)"/><rect x="8731" y="0" width="755" height="100" fill="rgb(77,100,130)"/><rect x="9486" y="0" width="620" height="100" fill="rgb(110,210,160)"/><rect x="10106" y="0" width="1755" height="100" fill="rgb(175,10,40)"/><rect x="11861" y="0" width="1077" height="100" fill="rgb(107,80,130)"/><rect x="12938" y="0" width="908" height="100" fill="rgb(168,98,146)"/><rect x="13846" y="0" width="482" height="100" fill="rgb(128,151,104)"/><rect x="14328" y="0" width="533" height="100" fill="rgb(102,105,82)"/></svg>
