<svg xmlns="http://www.w3.org/2000/svg" width="14451" height="100" viewBox="0 0 14451 100" preserveAspectRatio="none"><rect x="0" y="0" width="860" height="100" fill="rgb(148,58,138)"/><rect x="860" y="0" width="733" height="100" fill="rgb(111,128,90)"/><rect x="1593" y="0" width="805" height="100" fill="rgb(135,190,115)"/><rect x="2398" y="0" width="273" height="100" fill="rgb(66,84,110)"/><rect x="2671" y="0" width="753" height="100" fill="rgb(108,55,118)"/><rect x="3424" y="0" width="567" height="100" fill="rgb(115,50,185)"/><rect x="3991" y="0" width="883" height="100" fill="rgb(133,106,48)"/><rect x="4874" y="0" width="775" height="100" fill="rgb(20,157,145)"/><rect x="5649" y="0" width="922" height="100" fill="rgb(40,30,120)"/><rect x="6571" y="0" width="907" height="100" fill="rgb(135,38,78)"/><rect x="7478" y="0" width="752" height="100" fill="rgb(127,144,76)"/><rect x="8230" y="0" width="630" height="100" fill="rgb(138,93,82)"/><rect x="8860" y="0" width="898" height="100" fill="rgb(190,117,115)"/><rect x="9758" y="0" width="1268" height="100" fill="rgb(110,210,160)"/><rect x="11026" y="0" width="785" height="100" fill="rgb(175,10,40)"/><rect x="11811" y="0" width="898" height="100" fill="rgb(83,132,85)"/><rect x="12709" y="0" width="962" height="100" fill="rgb(123,68,118)"/><rect x="13671" y="0" width="508" height="100" fill="rgb(122,68,92)"/><rect x="14179" y="0" width="272" height="100" fill="rgb(102,105,82)"/></svg>
