<svg xmlns="http://www.w3.org/2000/svg" width="16575" height="100" viewBox="0 0 16575 100" preserveAspectRatio="none"><rect x="0" y="0" width="702" height="100" fill="rgb(47,125,140)"/><rect x="702" y="0" width="1347" height="100" fill="rgb(200,87,50)"/><rect x="2049" y="0" width="652" height="100" fill="rgb(118,63,143)"/><rect x="2701" y="0" width="977" height="100" fill="rgb(92,85,114)"/><rect x="3678" y="0" width="525" height="100" fill="rgb(119,121,103)"/><rect x="4203" y="0" width="687" height="100" fill="rgb(125,85,163)"/><rect x="4890" y="0" width="682" height="100" fill="rgb(127,144,76)"/><rect x="5572" y="0" width="562" height="100" fill="rgb(155,74,78)"/><rect x="6134" y="0" width="1327" height="100" fill="rgb(120,88,110)"/><rect x="7461" y="0" width="752" height="100" fill="rgb(99,123,118)"/><rect x="8213" y="0" width="757" height="100" fill="rgb(130,54,153)"/><rect x="8970" y="0" width="1213" height="100" fill="rgb(111,86,107)"/><rect x="10183" y="0" width="1565" height="100" fill="rgb(110,210,160)"/><rect x="11748" y="0" width="1463" height="100" fill="rgb(175,10,40)"/><rect x="13211" y="0" width="583" height="100" fill="rgb(66,45,78)"/><rect x="13794" y="0" width="443" height="100" fill="rgb(135,60,114)"/><rect x="14237" y="0" width="1052" height="100" fill="rgb(116,93,100)"/><rect x="15289" y="0" width="948" height="100" fill="rgb(128,151,104)"/><rect x="16237" y="0" width="338" height="100" fill="rgb(102,105,82)"/></svg>
