<svg xmlns="http://www.w3.org/2000/svg" width="15755" height="100" viewBox="0 0 15755 100"><rect x="0" y="0" width="403" height="100" fill="rgb(82,114,108)"/><rect x="403" y="0" width="565" height="100" fill="rgb(133,135,163)"/><rect x="968" y="0" width="1332" height="100" fill="rgb(100,108,162)"/><rect x="2300" y="0" width="718" height="100" fill="rgb(104,48,116)"/><rect x="3018" y="0" width="995" height="100" fill="rgb(65,140,30)"/><rect x="4013" y="0" width="692" height="100" fill="rgb(20,157,145)"/><rect x="4705" y="0" width="423" height="100" fill="rgb(72,105,84)"/><rect x="5128" y="0" width="312" height="100" fill="rgb(106,60,82)"/><rect x="5440" y="0" width="1137" height="100" fill="rgb(100,80,130)"/><rect x="6577" y="0" width="740" height="100" fill="rgb(60,102,78)"/><rect x="7317" y="0" width="985" height="100" fill="rgb(107,35,113)"/><rect x="8302" y="0" width="362" height="100" fill="rgb(146,60,113)"/><rect x="8664" y="0" width="1052" height="100" fill="rgb(190,117,115)"/><rect x="9716" y="0" width="867" height="100" fill="rgb(110,210,160)"/><rect x="10583" y="0" width="1753" height="100" fill="rgb(175,10,40)"/><rect x="12336" y="0" width="1308" height="100" fill="rgb(123,68,118)"/><rect x="13644" y="0" width="875" height="100" fill="rgb(168,98,146)"/><rect x="14519" y="0" width="753" height="100" fill="rgb(123,32,125)"/><rect x="15272" y="0" width="483" height="100" fill="rgb(133,70,150)"/></svg>
