<svg xmlns="http://www.w3.org/2000/svg" width="16567" height="100" viewBox="0 0 16567 100"><rect x="0" y="0" width="567" height="100" fill="rgb(80,93,129)"/><rect x="567" y="0" width="682" height="100" fill="rgb(105,70,200)"/><rect x="1249" y="0" width="802" height="100" fill="rgb(111,128,90)"/><rect x="2051" y="0" width="845" height="100" fill="rgb(133,106,48)"/><rect x="2896" y="0" width="1033" height="100" fill="rgb(100,160,180)"/><rect x="3929" y="0" width="768" height="100" fill="rgb(93,77,87)"/><rect x="4697" y="0" width="473" height="100" fill="rgb(155,74,78)"/><rect x="5170" y="0" width="2518" height="100" fill="rgb(115,78,120)"/><rect x="7688" y="0" width="735" height="100" fill="rgb(99,123,118)"/><rect x="8423" y="0" width="730" height="100" fill="rgb(119,108,123)"/><rect x="9153" y="0" width="1323" height="100" fill="rgb(112,90,137)"/><rect x="10476" y="0" width="838" height="100" fill="rgb(110,210,160)"/><rect x="11314" y="0" width="2308" height="100" fill="rgb(175,10,40)"/><rect x="13622" y="0" width="350" height="100" fill="rgb(110,103,73)"/><rect x="13972" y="0" width="675" height="100" fill="rgb(84,80,140)"/><rect x="14647" y="0" width="1185" height="100" fill="rgb(150,100,80)"/><rect x="15832" y="0" width="735" height="100" fill="rgb(101,117,47)"/></svg>
