<svg xmlns="http://www.w3.org/2000/svg" width="16072" height="100" viewBox="0 0 16072 100" preserveAspectRatio="none"><rect x="0" y="0" width="1107" height="100" fill="rgb(70,60,119)"/><rect x="1107" y="0" width="937" height="100" fill="rgb(35,190,45)"/><rect x="2044" y="0" width="537" height="100" fill="rgb(167,145,130)"/><rect x="2581" y="0" width="613" height="100" fill="rgb(47,60,127)"/><rect x="3194" y="0" width="733" height="100" fill="rgb(85,57,170)"/><rect x="3927" y="0" width="638" height="100" fill="rgb(86,87,108)"/><rect x="4565" y="0" width="1528" height="100" fill="rgb(97,77,120)"/><rect x="6093" y="0" width="927" height="100" fill="rgb(135,38,78)"/><rect x="7020" y="0" width="812" height="100" fill="rgb(118,116,98)"/><rect x="7832" y="0" width="710" height="100" fill="rgb(111,86,107)"/><rect x="8542" y="0" width="1920" height="100" fill="rgb(124,130,118)"/><rect x="10462" y="0" width="1025" height="100" fill="rgb(110,210,160)"/><rect x="11487" y="0" width="1417" height="100" fill="rgb(175,10,40)"/><rect x="12904" y="0" width="690" height="100" fill="rgb(138,93,82)"/><rect x="13594" y="0" width="963" height="100" fill="rgb(140,43,100)"/><rect x="14557" y="0" width="1012" height="100" fill="rgb(132,53,102)"/><rect x="15569" y="0" width="503" height="100" fill="rgb(102,120,44)"/></svg>
