<svg xmlns="http://www.w3.org/2000/svg" width="16649" height="100" viewBox="0 0 16649 100"><rect x="0" y="0" width="610" height="100" fill="rgb(47,125,140)"/><rect x="610" y="0" width="863" height="100" fill="rgb(134,40,110)"/><rect x="1473" y="0" width="628" height="100" fill="rgb(91,106,136)"/><rect x="2101" y="0" width="725" height="100" fill="rgb(127,144,76)"/><rect x="2826" y="0" width="655" height="100" fill="rgb(85,57,170)"/><rect x="3481" y="0" width="922" height="100" fill="rgb(92,85,114)"/><rect x="4403" y="0" width="528" height="100" fill="rgb(103,70,105)"/><rect x="4931" y="0" width="1130" height="100" fill="rgb(106,65,116)"/><rect x="6061" y="0" width="2137" height="100" fill="rgb(96,77,134)"/><rect x="8198" y="0" width="833" height="100" fill="rgb(144,74,84)"/><rect x="9031" y="0" width="707" height="100" fill="rgb(60,102,78)"/><rect x="9738" y="0" width="860" height="100" fill="rgb(90,150,75)"/><rect x="10598" y="0" width="857" height="100" fill="rgb(100,10,130)"/><rect x="11455" y="0" width="1077" height="100" fill="rgb(110,210,160)"/><rect x="12532" y="0" width="1765" height="100" fill="rgb(175,10,40)"/><rect x="14297" y="0" width="542" height="100" fill="rgb(66,45,78)"/><rect x="14839" y="0" width="540" height="100" fill="rgb(120,68,95)"/><rect x="15379" y="0" width="647" height="100" fill="rgb(128,151,104)"/><rect x="16026" y="0" width="623" height="100" fill="rgb(105,83,225)"/></svg>
