<svg xmlns="http://www.w3.org/2000/svg" width="16881" height="100" viewBox="0 0 16881 100"><rect x="0" y="0" width="718" height="100" fill="rgb(148,58,138)"/><rect x="718" y="0" width="652" height="100" fill="rgb(90,50,102)"/><rect x="1370" y="0" width="837" height="100" fill="rgb(135,190,115)"/><rect x="2207" y="0" width="263" height="100" fill="rgb(90,98,60)"/><rect x="2470" y="0" width="650" height="100" fill="rgb(108,55,118)"/><rect x="3120" y="0" width="627" height="100" fill="rgb(126,80,90)"/><rect x="3747" y="0" width="552" height="100" fill="rgb(84,106,111)"/><rect x="4299" y="0" width="953" height="100" fill="rgb(140,90,163)"/><rect x="5252" y="0" width="1277" height="100" fill="rgb(93,97,158)"/><rect x="6529" y="0" width="1095" height="100" fill="rgb(120,88,110)"/><rect x="7624" y="0" width="1092" height="100" fill="rgb(128,83,43)"/><rect x="8716" y="0" width="1210" height="100" fill="rgb(110,110,42)"/><rect x="9926" y="0" width="598" height="100" fill="rgb(100,10,130)"/><rect x="10524" y="0" width="1470" height="100" fill="rgb(110,210,160)"/><rect x="11994" y="0" width="1257" height="100" fill="rgb(175,10,40)"/><rect x="13251" y="0" width="1040" height="100" fill="rgb(83,132,85)"/><rect x="14291" y="0" width="1165" height="100" fill="rgb(107,80,130)"/><rect x="15456" y="0" width="680" height="100" fill="rgb(122,68,92)"/><rect x="16136" y="0" width="745" height="100" fill="rgb(98,121,78)"/></svg>
