<svg xmlns="http://www.w3.org/2000/svg" width="15291" height="100" viewBox="0 0 15291 100" preserveAspectRatio="none"><rect x="0" y="0" width="1618" height="100" fill="rgb(88,125,136)"/><rect x="1618" y="0" width="893" height="100" fill="rgb(130,75,153)"/><rect x="2511" y="0" width="895" height="100" fill="rgb(118,100,55)"/><rect x="3406" y="0" width="650" height="100" fill="rgb(82,112,90)"/><rect x="4056" y="0" width="558" height="100" fill="rgb(119,121,103)"/><rect x="4614" y="0" width="672" height="100" fill="rgb(60,145,93)"/><rect x="5286" y="0" width="640" height="100" fill="rgb(125,85,163)"/><rect x="5926" y="0" width="908" height="100" fill="rgb(40,30,120)"/><rect x="6834" y="0" width="630" height="100" fill="rgb(65,131,115)"/><rect x="7464" y="0" width="902" height="100" fill="rgb(127,94,80)"/><rect x="8366" y="0" width="645" height="100" fill="rgb(138,93,82)"/><rect x="9011" y="0" width="1088" height="100" fill="rgb(128,90,88)"/><rect x="10099" y="0" width="1305" height="100" fill="rgb(110,210,160)"/><rect x="11404" y="0" width="1195" height="100" fill="rgb(175,10,40)"/><rect x="12599" y="0" width="668" height="100" fill="rgb(83,104,118)"/><rect x="13267" y="0" width="1005" height="100" fill="rgb(116,93,100)"/><rect x="14272" y="0" width="512" height="100" fill="rgb(106,119,105)"/><rect x="14784" y="0" width="507" height="100" fill="rgb(112,100,142)"/></svg>
