<svg xmlns="http://www.w3.org/2000/svg" width="15177" height="100" viewBox="0 0 15177 100" preserveAspectRatio="none"><rect x="0" y="0" width="758" height="100" fill="rgb(148,58,138)"/><rect x="758" y="0" width="773" height="100" fill="rgb(130,75,153)"/><rect x="1531" y="0" width="712" height="100" fill="rgb(127,144,76)"/><rect x="2243" y="0" width="582" height="100" fill="rgb(84,106,111)"/><rect x="2825" y="0" width="470" height="100" fill="rgb(72,105,84)"/><rect x="3295" y="0" width="470" height="100" fill="rgb(88,82,118)"/><rect x="3765" y="0" width="463" height="100" fill="rgb(155,74,78)"/><rect x="4228" y="0" width="1427" height="100" fill="rgb(88,125,136)"/><rect x="5655" y="0" width="783" height="100" fill="rgb(135,38,78)"/><rect x="6438" y="0" width="1177" height="100" fill="rgb(118,116,98)"/><rect x="7615" y="0" width="675" height="100" fill="rgb(60,102,78)"/><rect x="8290" y="0" width="1477" height="100" fill="rgb(90,150,75)"/><rect x="9767" y="0" width="1587" height="100" fill="rgb(110,210,160)"/><rect x="11354" y="0" width="1128" height="100" fill="rgb(175,10,40)"/><rect x="12482" y="0" width="703" height="100" fill="rgb(140,75,70)"/><rect x="13185" y="0" width="967" height="100" fill="rgb(132,53,102)"/><rect x="14152" y="0" width="527" height="100" fill="rgb(48,134,120)"/><rect x="14679" y="0" width="498" height="100" fill="rgb(103,70,105)"/></svg>
